<?xml version="1.0" encoding="UTF-8"?>
<svg width="13px" height="13px" viewBox="0 0 13 13" version="1.1" xmlns="http://www.w3.org/2000/svg" xmlns:xlink="http://www.w3.org/1999/xlink">
    <!-- Generator: Sketch 53.2 (72643) - https://sketchapp.com -->
    <title>编辑</title>
    <desc>Created with Sketch.</desc>
    <g id="Page-1" stroke="none" stroke-width="1" fill="none" fill-rule="evenodd">
        <g id="信息展示、tab切换" transform="translate(-1623.000000, -945.000000)" fill="#22B37A" fill-rule="nonzero">
            <g id="分组-7" transform="translate(150.000000, 514.000000)">
                <g id="分组-2" transform="translate(36.000000, 30.000000)">
                    <g id="方案一-copy" transform="translate(0.000000, 396.000000)">
                        <g id="操作" transform="translate(1437.000000, 1.000000)">
                            <g id="分组-6-copy">
                                <path d="M11.5580357,15 L1.44196429,15 C1.19765625,15 1,15.2236111 1,15.5 C1,15.7763889 1.19765625,16 1.44196429,16 L11.5580357,16 C11.8023438,16 12,15.7763889 12,15.5 C12,15.2236111 11.8023438,15 11.5580357,15 Z M3.56662561,13.9667874 L6.55734032,12.7004701 C6.60559814,12.6801481 6.64877618,12.6509351 6.68687446,12.6141014 L11.7310863,7.5691542 C12.0879401,7.21224832 12.09048,6.63052983 11.7336262,6.27362394 L10.7265617,5.26641268 C10.3697079,4.90950679 9.78807417,4.91204705 9.43122031,5.26895293 L4.3870085,10.3139002 C4.35018016,10.3507339 4.32097148,10.3951883 4.3006524,10.4434532 L3.03324974,13.4333338 C2.96213295,13.6009907 3.01166071,13.7699177 3.11960583,13.8791486 C3.22755095,13.9883796 3.39772325,14.0379146 3.56662561,13.9667874 Z M5.32549848,10.7503602 L10.056198,6.02642983 L11.0076636,6.97789548 L6.2518607,11.7125659 L4.17158625,12.8049602 L5.32549848,10.7503602 Z" id="Shape"></path>
                            </g>
                        </g>
                    </g>
                </g>
            </g>
        </g>
    </g>
</svg>