<?xml version="1.0" encoding="UTF-8"?>
<svg width="80px" height="80px" viewBox="0 0 80 80" version="1.1" xmlns="http://www.w3.org/2000/svg" xmlns:xlink="http://www.w3.org/1999/xlink">
    <!-- Generator: Sketch 53.2 (72643) - https://sketchapp.com -->
    <title> scan_btn_n</title>
    <desc>Created with Sketch.</desc>
    <defs>
        <linearGradient x1="50%" y1="0%" x2="50%" y2="78.5541048%" id="linearGradient-1">
            <stop stop-color="#6BA4FF" offset="0%"></stop>
            <stop stop-color="#3164FF" offset="100%"></stop>
        </linearGradient>
        <linearGradient x1="50%" y1="0%" x2="50%" y2="78.5541048%" id="linearGradient-2">
            <stop stop-color="#7CAEFF" offset="0%"></stop>
            <stop stop-color="#4A80FF" stop-opacity="0" offset="100%"></stop>
        </linearGradient>
    </defs>
    <g id="1.1版本" stroke="none" stroke-width="1" fill="none" fill-rule="evenodd">
        <g id="突发漏洞管理-登记" transform="translate(-1030.000000, -3134.000000)">
            <g id="分组-15" transform="translate(260.000000, 605.000000)">
                <g id="悬浮操作栏" transform="translate(0.000000, 2524.000000)">
                    <g id="分组-17" transform="translate(770.000000, 5.000000)">
                        <g id="分组-16">
                            <circle id="椭圆形" fill="url(#linearGradient-1)" cx="40" cy="40" r="40"></circle>
                            <circle id="椭圆形" fill="url(#linearGradient-2)" cx="40" cy="28" r="26"></circle>
                            <text id="扫描" font-family="PingFangSC-Regular, PingFang SC" font-size="14" font-weight="normal" fill="#FFFFFF">
                                <tspan x="26" y="62">扫描</tspan>
                            </text>
                            <path d="M45.0903015,20.5940571 C44.6512958,20.5905983 44.298037,20.2339543 44.3008382,19.7970286 C44.3008382,19.3570286 44.6545177,19 45.0903015,19 L48.3214168,19 C49.7424508,19 50.8944356,20.1628571 50.8944356,21.5978857 L50.8944356,25.2373143 C50.8944356,25.6779429 50.5407561,26.0356 50.1049723,26.0356 C49.8939165,26.0339395 49.6921685,25.9489002 49.544114,25.7991912 C49.3960595,25.6494821 49.3138273,25.4473677 49.315509,25.2373143 L49.315509,21.5978857 C49.315509,21.0434857 48.8708833,20.5940571 48.3214168,20.5940571 L45.0903015,20.5940571 Z M49.315509,34.8814857 C49.315509,34.4414857 49.6691886,34.0850857 50.1049723,34.0850857 C50.5407561,34.0850857 50.8944356,34.4414857 50.8944356,34.8821143 L50.8944356,38.4021143 C50.8944356,39.8371429 49.7424508,41 48.3214168,41 L44.9804082,41 C44.5414025,40.9965412 44.1881437,40.6398972 44.1909449,40.2029714 C44.1909449,39.7629714 44.5439928,39.4059429 44.9804082,39.4059429 L48.3214168,39.4059429 C48.8708833,39.4059429 49.315509,38.9565143 49.315509,38.4021143 L49.315509,34.8821143 L49.315509,34.8814857 Z M35.5573742,39.4059429 C35.993158,39.4059429 36.3468375,39.7629714 36.3468375,40.2029714 C36.3468375,40.6429714 35.993158,41 35.5573742,41 L31.6782674,41 C30.2572335,41 29.1052486,39.8371429 29.1052486,38.4021143 L29.1052486,34.8444 C29.1052486,34.4044 29.4589282,34.0473714 29.8947119,34.0473714 C30.3304957,34.0473714 30.6841752,34.4044 30.6841752,34.8444 L30.6841752,38.4021143 C30.6841752,38.9565143 31.1288009,39.4059429 31.6782674,39.4059429 L35.5573742,39.4059429 L35.5573742,39.4059429 Z M30.6841752,25.314 C30.6841752,25.754 30.3304956,26.1116571 29.8947119,26.1116571 C29.455458,26.1081987 29.1020972,25.7511704 29.1052486,25.314 L29.1052486,21.5978857 C29.1052486,20.1628571 30.2572335,19 31.6782674,19 L35.64011,19 C36.0758937,19 36.4295733,19.3570286 36.4295733,19.7970286 C36.4295733,20.2370286 36.0758937,20.5940571 35.64011,20.5940571 L31.6782674,20.5940571 C31.1288009,20.5940571 30.6841752,21.0434857 30.6841752,21.5978857 L30.6841752,25.314 L30.6841752,25.314 Z M28.8008316,29.362 L51.1988527,29.362 C51.6413141,29.362 52,29.7189826 52,30.1593429 C52,30.5997032 51.6413141,30.9566857 51.1988527,30.9566857 L28.8008316,30.9566857 C28.3585445,30.9566857 28,30.5998439 28,30.1596571 C28,29.7194704 28.3585445,29.3626286 28.8008316,29.3626286 L28.8008316,29.362 Z" id="形状" fill="#FFFFFF" fill-rule="nonzero"></path>
                        </g>
                    </g>
                </g>
            </g>
        </g>
    </g>
</svg>