<?xml version="1.0" standalone="no"?><!DOCTYPE svg PUBLIC "-//W3C//DTD SVG 1.1//EN" "http://www.w3.org/Graphics/SVG/1.1/DTD/svg11.dtd"><svg t="1558428845195" class="icon" style="" viewBox="0 0 1070 1024" version="1.1" xmlns="http://www.w3.org/2000/svg" p-id="4111" xmlns:xlink="http://www.w3.org/1999/xlink" width="33.4375" height="32"><defs><style type="text/css"></style></defs><path d="M838.004364 600.064v-97.140364C919.133091 493.754182 977.454545 422.4 977.454545 337.454545a30.021818 30.021818 0 0 0-29.509818-30.394181 30.021818 30.021818 0 0 0-29.509818 30.394181c0 53.108364-30.254545 95.650909-80.430545 104.727273v-21.224727c0-54.644364-64.093091-110.126545-126.138182-135.912727C710.516364 169.658182 625.570909 93.090909 512 93.090909 401.268364 93.090909 319.441455 181.108364 313.530182 291.933091c-76.660364 24.250182-127.069091 66.792727-127.069091 129.024v18.152727c-45.428364-12.381091-81.221818-54.784-80.942546-103.144727a30.021818 30.021818 0 0 0-29.509818-30.394182 30.021818 30.021818 0 0 0-29.463272 30.394182c0 81.92 63.208727 151.738182 139.962181 163.886545v98.676364c0 18.152727 1.489455 36.398545 4.421819 53.108364-75.543273 16.151273-133.957818 84.573091-134.05091 163.933091 0 16.756364 13.265455 30.347636 29.463273 30.347636 16.290909 0 29.509818-13.591273 29.556364-30.347636 0-51.572364 41.099636-95.604364 89.832727-104.727273C252.322909 843.031273 375.342545 930.909091 512 930.909091c137.216 0.325818 261.12-88.529455 306.827636-221.556364 53.620364 4.608 88.157091 50.874182 87.831273 106.216728 0 16.756364 13.218909 30.347636 29.463273 30.347636a30.068364 30.068364 0 0 0 29.509818-30.347636c0-83.456-53.853091-151.738182-132.049455-163.933091 2.885818-16.709818 4.421818-34.909091 4.421819-51.572364zM512.325818 138.705455c73.821091 0 148.154182 57.949091 155.461818 137.774545-43.473455-19.549091-95.278545-29.323636-155.461818-29.323636-59.298909 0-111.104 9.774545-155.461818 29.323636 24.157091-79.825455 81.640727-137.774545 155.461818-137.774545z" fill="#05CC7F" p-id="4112"></path></svg>