<?xml version="1.0" standalone="no"?><!DOCTYPE svg PUBLIC "-//W3C//DTD SVG 1.1//EN" "http://www.w3.org/Graphics/SVG/1.1/DTD/svg11.dtd"><svg t="1558428875773" class="icon" style="" viewBox="0 0 1070 1024" version="1.1" xmlns="http://www.w3.org/2000/svg" p-id="4453" xmlns:xlink="http://www.w3.org/1999/xlink" width="33.4375" height="32"><defs><style type="text/css"></style></defs><path d="M885.76 884.363636c17.687273 0 45.149091-12.148364 45.149091-46.824727V280.762182C930.909091 244.549818 905.495273 232.727273 885.76 232.727273h-139.636364v68.794182c0 24.576-33.419636 57.390545-71.726545 57.390545s-69.12-33.838545-69.12-57.390545V232.727273H419.374545v68.794182c0 24.808727-30.347636 59.531636-70.656 59.531636s-69.818182-34.722909-69.818181-59.531636V232.727273H141.637818C93.090909 232.727273 93.090909 280.762182 93.090909 280.762182v556.776727c0 15.965091 16.663273 46.405818 48.593455 46.405818L885.806545 884.363636zM263.726545 651.636364h403.549091c16.896 0 30.952727 9.588364 30.952728 23.272727 0 13.684364-14.056727 23.272727-30.952728 23.272727h-403.549091C246.225455 698.181818 232.727273 688.593455 232.727273 674.909091c0-14.103273 12.939636-23.272727 30.952727-23.272727z m-2.513454-139.636364h268.939636c15.499636 0 28.439273 9.588364 28.439273 23.272727 0 13.684364-12.939636 23.272727-28.439273 23.272728H261.12C245.154909 558.545455 232.727273 548.957091 232.727273 535.272727c0-14.103273 11.915636-23.272727 28.439272-23.272727z m135.493818-317.998545v93.090909a46.545455 46.545455 0 1 1-93.090909 0v-93.090909a46.545455 46.545455 0 1 1 93.090909 0z m326.097455 0.930909v93.090909a46.545455 46.545455 0 0 1-93.090909 0v-93.090909a46.545455 46.545455 0 1 1 93.090909 0z" fill="#05CC7F" p-id="4454"></path></svg>