<?xml version="1.0" standalone="no"?><!DOCTYPE svg PUBLIC "-//W3C//DTD SVG 1.1//EN" "http://www.w3.org/Graphics/SVG/1.1/DTD/svg11.dtd"><svg t="1558428840747" class="icon" style="" viewBox="0 0 1024 1024" version="1.1" xmlns="http://www.w3.org/2000/svg" p-id="3997" xmlns:xlink="http://www.w3.org/1999/xlink" width="32" height="32"><defs><style type="text/css"></style></defs><path d="M768.232727 853.085091c-5.725091 18.664727-22.946909 31.138909-45.893818 31.138909H205.870545c-10.426182 1.815273-24.762182-13.079273-17.221818-31.138909l136.285091-449.629091c5.771636-18.618182 22.993455-31.092364 45.940364-31.092364H917.410909c17.221818 0 13.963636 24.669091 11.496727 31.092364l-160.674909 449.629091z m89.925818-525.777455H325.073455a49.803636 49.803636 0 0 0-47.290182 37.236364c-65.163636 208.942545-112.500364 376.087273-151.272728 473.274182C104.261818 831.534545 93.090909 815.243636 93.090909 788.945455V188.648727C93.090909 164.538182 119.342545 139.636364 143.127273 139.636364h248.552727c23.738182 0 49.570909 24.901818 49.570909 49.012363v26.763637h416.907636c12.288 0 26.205091 9.309091 26.205091 29.835636v57.809455c0 18.245818-16.942545 24.203636-26.205091 24.203636z" fill="#05CC7F" p-id="3998"></path></svg>