<?xml version="1.0" standalone="no"?><!DOCTYPE svg PUBLIC "-//W3C//DTD SVG 1.1//EN" "http://www.w3.org/Graphics/SVG/1.1/DTD/svg11.dtd"><svg t="1558428789768" class="icon" style="" viewBox="0 0 1070 1024" version="1.1" xmlns="http://www.w3.org/2000/svg" p-id="3883" xmlns:xlink="http://www.w3.org/1999/xlink" width="33.4375" height="32"><defs><style type="text/css"></style></defs><path d="M954.461091 453.632l-87.319273-31.092364a50.082909 50.082909 0 0 1-26.810182-27.089454l-13.824-33.419637a49.896727 49.896727 0 0 1-0.046545-38.167272l39.703273-83.409455a34.583273 34.583273 0 0 0-5.12-34.862545l-42.635637-42.635637a34.397091 34.397091 0 0 0-34.909091-5.026909l-83.316363 39.656728a50.501818 50.501818 0 0 1-38.260364-0.046546l-33.373091-13.824a50.222545 50.222545 0 0 1-27.089454-26.903273l-31.045819-87.319272a36.072727 36.072727 0 0 0-28.25309-21.783273S529.408 46.545455 512 46.545455c-17.268364 0-30.114909 1.163636-30.114909 1.163636a35.933091 35.933091 0 0 0-28.206546 21.783273L422.539636 156.858182c-5.12 12.148364-14.894545 21.783273-27.089454 26.810182l-33.326546 13.824a50.501818 50.501818 0 0 1-38.213818 0.093091l-83.502545-39.656728a34.676364 34.676364 0 0 0-34.909091 5.026909l-42.589091 42.635637a34.304 34.304 0 0 0-4.980364 34.816l39.610182 83.456c4.980364 10.472727 4.980364 27.648-0.093091 38.167272l-13.824 33.466182a49.943273 49.943273 0 0 1-26.810182 27.089455l-87.319272 31.092363a36.072727 36.072727 0 0 0-21.783273 28.206546S46.545455 494.638545 46.545455 511.953455c0 17.361455 1.163636 30.254545 1.163636 30.254545 1.768727 12.567273 10.053818 23.272727 21.783273 28.206545l87.365818 31.045819c10.938182 3.863273 23.04 16.058182 26.856727 27.089454l13.777455 33.419637c5.12 12.194909 5.12 25.925818 0.139636 38.167272l-39.703273 83.362909a34.490182 34.490182 0 0 0 5.073455 34.909091l42.635636 42.635637c9.774545 7.912727 23.179636 9.914182 34.816 5.12l83.456-39.703273a50.269091 50.269091 0 0 1 38.167273 0l33.419636 13.824c12.241455 5.026909 22.016 14.708364 27.136 26.903273l31.092364 87.365818a35.933091 35.933091 0 0 0 28.113454 21.736727c20.061091 1.536 40.261818 1.536 60.32291 0a36.119273 36.119273 0 0 0 28.25309-21.876364l31.092364-87.365818c5.12-12.148364 14.894545-21.783273 27.089455-26.763636l33.373091-13.824c10.519273-5.12 27.648-5.12 38.213818-0.093091l83.409454 39.656727c11.636364 4.887273 25.041455 2.978909 34.909091-4.980363l42.589091-42.775273a34.443636 34.443636 0 0 0 5.12-34.769455l-39.703273-83.502545a49.710545 49.710545 0 0 1 0-38.120727l13.870546-33.419637c5.026909-12.241455 14.661818-21.969455 26.810182-27.136l87.365818-30.999272a35.979636 35.979636 0 0 0 21.783273-28.206546s1.117091-12.8 1.11709-30.161454a420.817455 420.817455 0 0 0-1.210181-30.11491 35.979636 35.979636 0 0 0-21.783273-28.206545zM325.818182 511.953455A186.181818 186.181818 0 1 1 698.181818 512 186.181818 186.181818 0 0 1 325.818182 512z" fill="#8891B1" p-id="3884"></path></svg>