<?xml version="1.0" standalone="no"?><!DOCTYPE svg PUBLIC "-//W3C//DTD SVG 1.1//EN" "http://www.w3.org/Graphics/SVG/1.1/DTD/svg11.dtd"><svg t="1558428776674" class="icon" style="" viewBox="0 0 1070 1024" version="1.1" xmlns="http://www.w3.org/2000/svg" p-id="3541" xmlns:xlink="http://www.w3.org/1999/xlink" width="33.4375" height="32"><defs><style type="text/css"></style></defs><path d="M881.384727 139.636364H143.639273C113.245091 139.636364 93.090909 160.023273 93.090909 189.160727v505.902546c0 32.628364 19.735273 49.896727 50.501818 49.896727h344.343273v94.487273H254.696727c-14.149818 0-21.829818 8.145455-21.829818 22.295272s7.68 22.621091 21.829818 22.621091h514.606546c14.149818 0 21.829818-8.471273 21.829818-22.621091s-7.68-22.295273-21.829818-22.295272h-231.936v-94.487273h344.017454c32.721455 0 49.524364-17.501091 49.524364-49.896727V189.114182C930.909091 156.765091 913.826909 139.636364 881.384727 139.636364zM93.090909 604.904727h837.818182v46.545455H93.090909v-46.545455z" fill="#8891B1" p-id="3542"></path></svg>