<?xml version="1.0" standalone="no"?><!DOCTYPE svg PUBLIC "-//W3C//DTD SVG 1.1//EN" "http://www.w3.org/Graphics/SVG/1.1/DTD/svg11.dtd"><svg t="1558428886171" class="icon" style="" viewBox="0 0 1070 1024" version="1.1" xmlns="http://www.w3.org/2000/svg" p-id="4681" xmlns:xlink="http://www.w3.org/1999/xlink" width="33.4375" height="32"><defs><style type="text/css"></style></defs><path d="M504.738909 94.347636L150.946909 225.419636A17.035636 17.035636 0 0 0 139.636364 241.338182v264.238545c0 188.834909 133.026909 344.203636 327.586909 413.696 44.311273 15.499636 45.242182 15.499636 89.553454 0C751.802182 850.199273 884.363636 694.458182 884.363636 505.576727V240.919273c0-7.121455-4.514909-13.032727-11.310545-15.918546l-354.676364-130.653091a18.944 18.944 0 0 0-13.637818 0z m-177.245091 460.893091c-1.070545-1.070545-11.403636-23.505455 6.144-40.820363 17.501091-17.361455 40.215273-7.168 41.425455-6.050909l83.223272 82.245818a5.306182 5.306182 0 0 0 7.68 0l219.415273-216.576c1.163636-1.117091 25.879273-11.636364 42.682182 6.423272 16.756364 17.966545 5.957818 39.330909 4.840727 40.401455l-264.657454 260.794182c-3.211636 3.537455-8.610909 3.537455-12.241455 0.465454l-128.465454-126.882909z" fill="#05CC7F" p-id="4682"></path></svg>