<?xml version="1.0" standalone="no"?><!DOCTYPE svg PUBLIC "-//W3C//DTD SVG 1.1//EN" "http://www.w3.org/Graphics/SVG/1.1/DTD/svg11.dtd"><svg t="1558428785836" class="icon" style="" viewBox="0 0 1070 1024" version="1.1" xmlns="http://www.w3.org/2000/svg" p-id="3769" xmlns:xlink="http://www.w3.org/1999/xlink" width="33.4375" height="32"><defs><style type="text/css"></style></defs><path d="M139.636364 837.818182h744.727272a46.545455 46.545455 0 1 1 0 93.090909H139.636364a46.545455 46.545455 0 1 1 0-93.090909zM791.272727 93.090909a46.545455 46.545455 0 0 1 46.545455 46.545455v605.090909a46.545455 46.545455 0 1 1-93.090909 0V139.636364a46.545455 46.545455 0 0 1 46.545454-46.545455z m-186.181818 372.363636a46.545455 46.545455 0 0 1 46.545455 46.545455v232.727273a46.545455 46.545455 0 1 1-93.090909 0v-232.727273a46.545455 46.545455 0 0 1 46.545454-46.545455zM418.909091 279.272727a46.545455 46.545455 0 0 1 46.545454 46.545455v418.909091a46.545455 46.545455 0 1 1-93.090909 0V325.818182a46.545455 46.545455 0 0 1 46.545455-46.545455z m-186.181818 279.272728a46.545455 46.545455 0 0 1 46.545454 46.545454v139.636364a46.545455 46.545455 0 1 1-93.090909 0v-139.636364a46.545455 46.545455 0 0 1 46.545455-46.545454z" fill="#8891B1" p-id="3770"></path></svg>