<?xml version="1.0" standalone="no"?><!DOCTYPE svg PUBLIC "-//W3C//DTD SVG 1.1//EN" "http://www.w3.org/Graphics/SVG/1.1/DTD/svg11.dtd"><svg t="1558428759779" class="icon" style="" viewBox="0 0 1070 1024" version="1.1" xmlns="http://www.w3.org/2000/svg" p-id="3199" xmlns:xlink="http://www.w3.org/1999/xlink" width="33.4375" height="32"><defs><style type="text/css"></style></defs><path d="M465.454545 901.12v-326.376727c0-28.066909-20.154182-56.133818-44.823272-69.957818L137.914182 364.730182c-25.134545-9.216-44.823273 0-44.823273 23.458909v331.915636c0 28.066909 20.154182 56.133818 44.823273 69.957818l282.717091 134.516364c25.134545 13.824 44.823273 4.608 44.823272-23.458909zM158.533818 252.741818c-25.181091 13.777455-25.181091 32.628364 0 46.452364l310.690909 154.065454c42.542545 16.942545 51.2 16.942545 85.038546 0l311.202909-154.065454c25.181091-13.824 25.181091-32.674909 0-46.498909l-311.202909-149.224728c-29.323636-13.824-60.276364-13.824-85.038546 0L158.533818 252.695273z m445.160727 671.837091l282.065455-135.307636c25.274182-13.824 45.149091-41.890909 45.149091-69.957818v-326.749091c0-28.113455-20.340364-37.329455-45.149091-23.505455l-282.065455 135.307636c-25.274182 13.824-45.149091 41.890909-45.14909 69.957819v326.749091c0 28.113455 20.340364 37.329455 45.14909 23.505454z" fill="#8891B1" p-id="3200"></path></svg>