<?xml version="1.0" encoding="UTF-8"?>
<svg width="18px" height="18px" viewBox="0 0 18 18" version="1.1" xmlns="http://www.w3.org/2000/svg" xmlns:xlink="http://www.w3.org/1999/xlink">
    <!-- Generator: Sketch 53.2 (72643) - https://sketchapp.com -->
    <title>形状</title>
    <desc>Created with Sketch.</desc>
    <g id="Page-1" stroke="none" stroke-width="1" fill="none" fill-rule="evenodd">
        <g id="附件" transform="translate(-698.000000, -873.000000)" fill="#8891B1" fill-rule="nonzero">
            <g id="分组" transform="translate(666.000000, 443.000000)">
                <g id="icon_n" transform="translate(30.000000, 30.000000)">
                    <path d="M2.5487852,417.099009 C2.24560578,417.098705 1.99999982,416.864743 2,416.576243 L2,414.359448 C2.006595,412.844994 3.29863085,411.620609 4.89015282,411.620622 L8.5933422,411.620622 L8.5933422,409.364806 C6.04161658,408.087851 5.06033225,405.085436 6.40148523,402.657071 C7.74263821,400.228707 10.8987809,399.295116 13.4505065,400.571336 C16.0022321,401.847555 16.9837096,404.850889 15.6423635,407.27907 C15.1505446,408.169475 14.3862149,408.896799 13.4505065,409.364806 L13.4505065,411.682383 L17.1098472,411.682383 C18.7013691,411.68237 19.993405,412.906756 20,414.421209 L20,416.638923 C19.9842596,416.776875 19.9115276,416.903212 19.797829,416.990098 C19.6841304,417.076984 19.5387949,417.117289 19.3938444,417.102134 L19.3745278,417.099744 L2.5487852,417.099009 Z M4.5,414 C4.22385763,414 4,414.223858 4,414.5 C4,414.776142 4.22385763,415 4.5,415 L17.5,415 C17.7761424,415 18,414.776142 18,414.5 C18,414.223858 17.7761424,414 17.5,414 L4.5,414 Z" id="形状"></path>
                </g>
            </g>
        </g>
    </g>
</svg>