<?xml version="1.0" encoding="UTF-8"?>
<svg width="84px" height="80px" viewBox="0 0 84 80" version="1.1" xmlns="http://www.w3.org/2000/svg" xmlns:xlink="http://www.w3.org/1999/xlink">
    <!-- Generator: Sketch 53.2 (72643) - https://sketchapp.com -->
    <title>工作台1_s</title>
    <desc>Created with Sketch.</desc>
    <defs>
        <linearGradient x1="42.3701232%" y1="26.0244269%" x2="23.7081703%" y2="100%" id="linearGradient-1">
            <stop stop-color="#8CAEFF" offset="0%"></stop>
            <stop stop-color="#5E88FF" offset="100%"></stop>
        </linearGradient>
        <linearGradient x1="50%" y1="50%" x2="50%" y2="100%" id="linearGradient-2">
            <stop stop-color="#C6D6FF" stop-opacity="0.9" offset="0%"></stop>
            <stop stop-color="#688FFF" offset="100%"></stop>
        </linearGradient>
        <linearGradient x1="73.5549931%" y1="36.9701479%" x2="24.803818%" y2="73.7812128%" id="linearGradient-3">
            <stop stop-color="#FEFFFF" offset="0%"></stop>
            <stop stop-color="#A3BBFF" offset="100%"></stop>
        </linearGradient>
    </defs>
    <g id="1.1版本" stroke="none" stroke-width="1" fill="none" fill-rule="evenodd">
        <g id="资产工作台1920x1080" transform="translate(-566.000000, -180.000000)" fill-rule="nonzero">
            <g id="切换" transform="translate(300.000000, 170.000000)">
                <g id="icon1-copy-2" transform="translate(266.000000, 10.000000)">
                    <g id="icon1-copy" transform="translate(2.000000, 3.000000)">
                        <path d="M54.4245113,20.5870685 C53.7466972,20.5870685 54.1986732,20.5870685 26.5667854,20.5870685 C25.1680362,20.5870685 23.2626073,21.4763782 22.6748256,23.6078723 C17.3084217,40.5389004 12.8652821,55.0925343 9.67472758,62.9655359 C8.20689117,62.6124064 7.47297297,61.2717816 7.47297297,58.9436617 L7.47297297,9.35138553 C7.47297297,7.39869415 9.63452938,5.37943138 11.5895881,5.37943138 L26.7100676,5.37943138 C28.6651263,5.37943138 30.7905526,7.39869415 30.7905526,9.35138553 L30.7905526,10.4517886 L54.4245113,10.4517886 C55.4362432,10.4517886 56.5810811,11.2077248 56.5810811,12.8723767 L56.5810811,20.5870685 C56.5810811,22.065099 55.1847973,20.5870685 54.4245113,20.5870685 Z" id="路径" fill="url(#linearGradient-1)" transform="translate(32.027027, 34.172484) rotate(-15.000000) translate(-32.027027, -34.172484) "></path>
                        <path d="M62.455181,25.4096803 C61.777367,25.4096803 62.229343,25.4096803 34.5974552,25.4096803 C33.198706,25.4096803 31.2932771,26.29899 30.7054954,28.4304841 C25.3390915,45.3615123 20.8959518,59.9151461 17.7053973,67.7881478 C16.2375609,67.4350182 15.5036427,66.0943935 15.5036427,63.7662735 L15.5036427,14.1739974 C15.5036427,12.221306 17.6651991,10.2020432 19.6202578,10.2020432 L34.7407373,10.2020432 C36.695796,10.2020432 38.8212223,12.221306 38.8212223,14.1739974 L38.8212223,15.2744004 L62.455181,15.2744004 C63.4669129,15.2744004 64.6117508,16.0303366 64.6117508,17.6949886 L64.6117508,25.4096803 C64.6117508,26.8877108 63.2154671,25.4096803 62.455181,25.4096803 Z" id="路径" fill="url(#linearGradient-2)"></path>
                        <path d="M64.9574974,65.243177 C64.480165,66.8002204 63.048168,67.8382494 61.1388386,67.8382493 L18.1789267,67.8382493 C17.310032,67.9890677 16.1189932,66.7480535 16.7469296,65.243177 L28.0832427,27.7430615 C28.560575,26.1860181 29.9925721,25.1479892 31.9019015,25.1479892 L77.3681387,25.1479892 C78.8001357,25.1479892 78.531619,27.2056046 78.3228034,27.7430615 L64.9574974,65.243177 Z" id="路径" fill="url(#linearGradient-3)"></path>
                    </g>
                </g>
            </g>
        </g>
    </g>
</svg>