<?xml version="1.0" encoding="UTF-8"?>
<svg width="100px" height="96px" viewBox="0 0 100 96" version="1.1" xmlns="http://www.w3.org/2000/svg" xmlns:xlink="http://www.w3.org/1999/xlink">
    <!-- Generator: Sketch 52.3 (67297) - http://www.bohemiancoding.com/sketch -->
    <title>通联设置</title>
    <desc>Created with Sketch.</desc>
    <defs>
        <linearGradient x1="50%" y1="0%" x2="50%" y2="100%" id="linearGradient-1">
            <stop stop-color="#6DA5FF" offset="0%"></stop>
            <stop stop-color="#3B6CFF" offset="100%"></stop>
        </linearGradient>
        <linearGradient x1="100%" y1="50%" x2="51.517341%" y2="50%" id="linearGradient-2">
            <stop stop-color="#E8EEF8" stop-opacity="0" offset="0%"></stop>
            <stop stop-color="#A2B7DC" offset="100%"></stop>
        </linearGradient>
        <linearGradient x1="100%" y1="50%" x2="50%" y2="50%" id="linearGradient-3">
            <stop stop-color="#E8EEF8" stop-opacity="0" offset="0%"></stop>
            <stop stop-color="#A2B7DC" offset="100%"></stop>
        </linearGradient>
    </defs>
    <g id="1.1版本" stroke="none" stroke-width="1" fill="none" fill-rule="evenodd">
        <g id="资产工作台1920x1080-copy" transform="translate(-1212.000000, -558.000000)">
            <g id="通联设置" transform="translate(1212.000000, 558.000000)">
                <rect id="矩形-copy-44" fill="url(#linearGradient-1)" x="0" y="0" width="100" height="96" rx="4"></rect>
                <text font-family="PingFangSC-Regular, PingFang SC" font-size="14" font-weight="normal" fill="#FFFFFF">
                    <tspan x="22" y="81">通联设置</tspan>
                </text>
                <g transform="translate(17.000000, 16.000000)">
                    <g id="Group-10">
                        <rect id="Rectangle-11" stroke="#5F8AFF" stroke-width="2" fill="#FFFFFF" x="8" y="1" width="46" height="38"></rect>
                        <path d="M40.6140351,11.6910988 L36.1923246,9.10312605 C36.0741228,9.03437535 35.9414474,9 35.8111842,9 C35.6809211,9 35.5482456,9.03437535 35.4300439,9.10312605 L31.0083333,11.6910988 C30.7719298,11.8310556 30.627193,12.0864153 30.627193,12.3663289 L30.627193,12.5848579 L30.3835526,12.4424457 C30.2653509,12.373695 30.1326754,12.3393197 30.0024123,12.3393197 C29.8721491,12.3393197 29.7394737,12.373695 29.6212719,12.4424457 L29.3752193,12.5873133 L29.3752193,12.3663289 C29.3752193,12.0888707 29.2280702,11.8310556 28.9916667,11.6910988 L24.5675439,9.10312605 C24.4493421,9.03437535 24.3166667,9 24.1864035,9 C24.0561404,9 23.9234649,9.03437535 23.8052632,9.10312605 L19.3835526,11.6910988 C19.1447368,11.8310556 19,12.0864153 19,12.3663289 L19,17.5619174 C19,17.8393756 19.1447368,18.0971907 19.3835526,18.2371475 L23.8052632,20.8251203 C23.9234649,20.893871 24.0537281,20.9282463 24.1864035,20.9282463 C24.3190789,20.9282463 24.4493421,20.893871 24.5675439,20.8251203 L24.8135965,20.6802527 L24.8135965,20.9012371 C24.8135965,21.1786953 24.9607456,21.4365104 25.1971491,21.5764672 L25.3539474,21.6673163 L25.1971491,21.7581655 C24.9607456,21.8981223 24.8135965,22.153482 24.8135965,22.4333956 L24.8135965,27.6289841 C24.8135965,27.9064423 24.9607456,28.1642574 25.1971491,28.3042142 L29.6188596,30.892187 C29.7370614,30.9609377 29.8697368,30.995313 30,30.995313 C30.1302632,30.995313 30.2629386,30.9609377 30.3811404,30.892187 L34.8028509,28.3042142 C35.0392544,28.1642574 35.1864035,27.9088977 35.1864035,27.6289841 L35.1864035,22.4358509 C35.1864035,22.1583928 35.0392544,21.9005776 34.8028509,21.7606209 L34.6460526,21.6697717 L34.8028509,21.5789226 C35.0392544,21.4389658 35.1864035,21.1836061 35.1864035,20.9036925 L35.1864035,20.6851635 L35.4300439,20.8275757 C35.5482456,20.8963264 35.6809211,20.9307017 35.8111842,20.9307017 C35.9414474,20.9307017 36.0741228,20.8963264 36.1923246,20.8275757 L40.6140351,18.2371475 C40.8504386,18.0971907 41,17.841831 41,17.5619174 L41,12.3663289 C41,12.0864153 40.8528509,11.8310556 40.6140351,11.6910988 Z M24.1864035,19.0081375 L20.7368421,16.9898134 L20.7368421,12.9384329 L24.1864035,10.9201088 L27.6359649,12.9384329 L27.6359649,13.6038415 L25.1971491,15.0304185 C24.9607456,15.1703753 24.8135965,15.425735 24.8135965,15.7056486 L24.8135965,18.6422856 L24.1864035,19.0081375 Z M27.6359649,14.9076494 L27.6359649,16.9922688 L25.9232456,17.9940647 L25.9232456,15.9094453 L27.6359649,14.9076494 Z M33.4495614,23.007955 L33.4495614,27.0593355 L30,29.0776596 L26.5504386,27.0593355 L26.5504386,23.007955 L27.095614,22.6887553 L29.6188596,24.16444 C29.7370614,24.2331907 29.8697368,24.267566 30,24.267566 C30.1302632,24.267566 30.2629386,24.2331907 30.3811404,24.16444 L32.904386,22.6887553 L33.4495614,23.007955 Z M28.2100877,22.0356237 L30,20.9871755 L31.7899123,22.0356237 L30,23.0840718 L28.2100877,22.0356237 Z M34.0767544,20.6998958 L33.5339912,21.0190955 L30.3811404,19.1751035 C30.2629386,19.1063528 30.1302632,19.0719774 30,19.0719774 C29.8697368,19.0719774 29.7370614,19.1063528 29.6188596,19.1751035 L26.4660088,21.0190955 L25.9232456,20.6998958 L25.9232456,20.0320318 L28.9892544,18.2371475 C29.2256579,18.0971907 29.372807,17.841831 29.372807,17.5619174 L29.372807,13.8911212 L30.0024123,13.5228139 L30.627193,13.8886658 L30.627193,17.5643728 C30.627193,17.841831 30.7719298,18.0996461 31.0083333,18.2396029 L34.0767544,20.0344872 L34.0767544,20.6998958 Z M34.0767544,17.9940647 L32.3640351,16.9898134 L32.3640351,14.9027386 L34.0767544,15.9069899 L34.0767544,17.9940647 Z M39.2631579,16.9898134 L35.8111842,19.0081375 L35.1864035,18.644741 L35.1864035,15.7056486 C35.1864035,15.4281904 35.0416667,15.1703753 34.8052632,15.0304185 L32.3640351,13.6013861 L32.3640351,12.9384329 L35.8135965,10.9201088 L39.2631579,12.9384329 L39.2631579,16.9898134 Z" id="Shape" fill="#FF700B" fill-rule="nonzero"></path>
                        <g id="Group-11-Copy-4" transform="translate(49.500000, 20.000000) scale(-1, 1) translate(-49.500000, -20.000000) translate(39.000000, 10.000000)" fill="url(#linearGradient-2)" fill-rule="nonzero">
                            <path d="M6.14695731,7.58704784 L17.4362271,7.58704784 L17.4362271,9.0151041 L5.92582471,9.0151041 C5.47268918,10.1407647 4.39777394,10.9321914 3.14400378,10.9321914 C1.48096222,10.9321914 0.132602193,9.53973694 0.132602193,7.82180416 C0.132602193,6.10387138 1.48096222,4.71141696 3.14400378,4.71141696 C4.73059423,4.71141696 6.03077036,5.97878998 6.14695731,7.58704784 Z M13.037193,2.0656628 L17.1336772,2.0656628 L17.1336772,3.49371906 L12.948699,3.49371906 C12.6066045,4.45293728 11.7138665,5.13694888 10.6665771,5.13694888 C9.3239262,5.13694888 8.23529412,4.01271609 8.23529412,2.62565145 C8.23529412,1.23858681 9.3239262,0.114354019 10.6665771,0.114354019 C11.8228994,0.114354019 12.7908146,0.948203863 13.037193,2.0656628 Z M9.1479773,14.2968532 L13.9110928,14.2968532 L16.0139793,18.4803178 L20.8683817,18.4803178 L20.8683817,19.9083741 L15.174635,19.9083741 L13.0717485,15.7249095 L9.01569206,15.7249095 L9.01569206,15.539336 C8.66842401,16.4881317 7.78079322,17.1627249 6.74073904,17.1627249 C5.39808813,17.1627249 4.30945605,16.0384921 4.30945605,14.6514275 C4.30945605,13.2643629 5.39808813,12.1401301 6.74073904,12.1401301 C7.96688584,12.1401301 8.98118451,13.0777244 9.1479773,14.2968532 Z M6.74073904,15.7346687 C7.32043204,15.7346687 7.79016759,15.2495717 7.79016759,14.6514275 C7.79016759,14.0532833 7.32043204,13.5681863 6.74073904,13.5681863 C6.16104604,13.5681863 5.69131048,14.0532833 5.69131048,14.6514275 C5.69131048,15.2495717 6.16104604,15.7346687 6.74073904,15.7346687 Z M10.6665771,3.70889262 C11.2462701,3.70889262 11.7160057,3.22379566 11.7160057,2.62565145 C11.7160057,2.02750723 11.2462701,1.54241028 10.6665771,1.54241028 C10.0868841,1.54241028 9.61714855,2.02750723 9.61714855,2.62565145 C9.61714855,3.22379566 10.0868841,3.70889262 10.6665771,3.70889262 Z M3.14400378,9.5041351 C4.04408743,9.5041351 4.77355092,8.75081651 4.77355092,7.82180416 C4.77355092,6.8927918 4.04408743,6.13947322 3.14400378,6.13947322 C2.24392013,6.13947322 1.51445663,6.8927918 1.51445663,7.82180416 C1.51445663,8.75081651 2.24392013,9.5041351 3.14400378,9.5041351 Z" id="Combined-Shape"></path>
                        </g>
                        <g id="Group-11-Copy-4" transform="translate(0.000000, 10.000000)" fill="url(#linearGradient-3)" fill-rule="nonzero">
                            <path d="M6.14695731,7.58704784 L17.4362271,7.58704784 L17.4362271,9.0151041 L5.92582471,9.0151041 C5.47268918,10.1407647 4.39777394,10.9321914 3.14400378,10.9321914 C1.48096222,10.9321914 0.132602193,9.53973694 0.132602193,7.82180416 C0.132602193,6.10387138 1.48096222,4.71141696 3.14400378,4.71141696 C4.73059423,4.71141696 6.03077036,5.97878998 6.14695731,7.58704784 Z M13.037193,2.0656628 L17.1336772,2.0656628 L17.1336772,3.49371906 L12.948699,3.49371906 C12.6066045,4.45293728 11.7138665,5.13694888 10.6665771,5.13694888 C9.3239262,5.13694888 8.23529412,4.01271609 8.23529412,2.62565145 C8.23529412,1.23858681 9.3239262,0.114354019 10.6665771,0.114354019 C11.8228994,0.114354019 12.7908146,0.948203863 13.037193,2.0656628 Z M9.1479773,14.2968532 L13.9110928,14.2968532 L16.0139793,18.4803178 L20.8683817,18.4803178 L20.8683817,19.9083741 L15.174635,19.9083741 L13.0717485,15.7249095 L9.01569206,15.7249095 L9.01569206,15.539336 C8.66842401,16.4881317 7.78079322,17.1627249 6.74073904,17.1627249 C5.39808813,17.1627249 4.30945605,16.0384921 4.30945605,14.6514275 C4.30945605,13.2643629 5.39808813,12.1401301 6.74073904,12.1401301 C7.96688584,12.1401301 8.98118451,13.0777244 9.1479773,14.2968532 Z M6.74073904,15.7346687 C7.32043204,15.7346687 7.79016759,15.2495717 7.79016759,14.6514275 C7.79016759,14.0532833 7.32043204,13.5681863 6.74073904,13.5681863 C6.16104604,13.5681863 5.69131048,14.0532833 5.69131048,14.6514275 C5.69131048,15.2495717 6.16104604,15.7346687 6.74073904,15.7346687 Z M10.6665771,3.70889262 C11.2462701,3.70889262 11.7160057,3.22379566 11.7160057,2.62565145 C11.7160057,2.02750723 11.2462701,1.54241028 10.6665771,1.54241028 C10.0868841,1.54241028 9.61714855,2.02750723 9.61714855,2.62565145 C9.61714855,3.22379566 10.0868841,3.70889262 10.6665771,3.70889262 Z M3.14400378,9.5041351 C4.04408743,9.5041351 4.77355092,8.75081651 4.77355092,7.82180416 C4.77355092,6.8927918 4.04408743,6.13947322 3.14400378,6.13947322 C2.24392013,6.13947322 1.51445663,6.8927918 1.51445663,7.82180416 C1.51445663,8.75081651 2.24392013,9.5041351 3.14400378,9.5041351 Z" id="Combined-Shape"></path>
                        </g>
                    </g>
                    <path d="M46,22 L64,22 C65.1045695,22 66,22.8954305 66,24 L66,42 C66,43.1045695 65.1045695,44 64,44 L46,44 C44.8954305,44 44,43.1045695 44,42 L44,24 C44,22.8954305 44.8954305,22 46,22 Z" id="Rectangle-19-Copy-5" fill="#E0EBFE"></path>
                    <path d="M55.4989039,35.8190903 L52.2963664,39.0240168 C51.8539577,39.466508 51.2646765,39.7119384 50.6377816,39.7119384 C50.0108867,39.7119384 49.4216055,39.4682995 48.9791968,39.0240168 C48.5367881,38.5797341 48.2896124,37.9921344 48.2896124,37.3651225 C48.2896124,36.7381106 48.5332058,36.1487194 48.9774057,35.7062281 L52.1817342,32.5013016 C52.4342833,32.2487054 52.4342833,31.8402519 52.1817342,31.5894472 C51.9291851,31.3368509 51.5208079,31.3368509 51.2700499,31.5894472 L48.0657213,34.7925822 C47.3779281,35.4805038 47,36.3941498 47,37.3651225 C47,38.3360952 47.3779281,39.2497411 48.0657213,39.9358712 C48.7750082,40.6452904 49.7063949,41 50.6359905,41 C51.5673772,41 52.4987639,40.6452904 53.2062596,39.9358712 L56.4105882,36.7309447 C56.6631373,36.4783485 56.6631373,36.069895 56.4105882,35.8190903 C56.1580391,35.5682855 55.751453,35.5682855 55.4989039,35.8190903 Z M61.9358706,26.0642777 C60.5173301,24.6452408 58.2122017,24.6452408 56.7936612,26.0642777 L53.5894074,29.2696529 C53.3368642,29.5222844 53.3368642,29.9307951 53.5894074,30.1816349 C53.8419506,30.4342665 54.2503183,30.4342665 54.5010704,30.1816349 L57.7053242,26.9762598 C58.6205695,26.0606943 60.1089624,26.0606943 61.0242076,26.9762598 C61.4666059,27.418813 61.7119848,28.0082867 61.7119848,28.6353863 C61.7119848,29.262486 61.468397,29.8519597 61.0242076,30.2945129 L57.8199538,33.499888 C57.5674106,33.7525196 57.5674106,34.1610302 57.8199538,34.4118701 C57.9453298,34.53729 58.1101098,34.6 58.2766808,34.6 C58.4432519,34.6 58.6062408,34.53729 58.7334079,34.4118701 L61.9376617,31.206495 C63.3544111,29.7892497 63.3544111,27.481523 61.9358706,26.0642777 Z M54.5302499,34.4068688 L56.4055731,32.5307372 C56.664809,32.2713896 56.664809,31.852019 56.4055731,31.5945107 C56.1463373,31.3351631 55.7271474,31.3351631 55.4697501,31.5945107 L53.5944269,33.4706423 C53.335191,33.7299899 53.335191,34.1493605 53.5944269,34.4068688 C53.7231255,34.5356229 53.8922723,34.6 54.0632577,34.6 C54.234243,34.6 54.3997127,34.5356229 54.5302499,34.4068688 Z" id="Shape" fill="#3B6CFF" fill-rule="nonzero"></path>
                </g>
            </g>
        </g>
    </g>
</svg>