<?xml version="1.0" encoding="UTF-8"?>
<svg width="100px" height="96px" viewBox="0 0 100 96" version="1.1" xmlns="http://www.w3.org/2000/svg" xmlns:xlink="http://www.w3.org/1999/xlink">
    <!-- Generator: Sketch 52.3 (67297) - http://www.bohemiancoding.com/sketch -->
    <title>资产登记</title>
    <desc>Created with Sketch.</desc>
    <defs>
        <linearGradient x1="61.1821135%" y1="100%" x2="61.1821115%" y2="2.77555756e-15%" id="linearGradient-1">
            <stop stop-color="#C3D5F8" offset="0%"></stop>
            <stop stop-color="#396BE2" offset="100%"></stop>
        </linearGradient>
        <path d="M2.69925721,0 L11.3007428,4.4408921e-16 C11.8672502,3.40023494e-16 12.3569954,0.395235699 12.4766287,0.948967105 L13.6852018,6.54293405 C13.8255094,7.1923579 13.4127892,7.83256175 12.7633653,7.97286938 C12.6798853,7.99090518 12.594722,8 12.5093159,8 L1.4906841,8 C0.826276421,8 0.287667575,7.46139115 0.287667575,6.79698347 C0.287667575,6.71157736 0.296762394,6.62641406 0.3147982,6.54293405 L1.5233713,0.948967105 C1.64300463,0.395235699 2.13274984,1.04065716e-16 2.69925721,0 Z" id="path-2"></path>
        <linearGradient x1="0%" y1="0%" x2="100%" y2="100%" id="linearGradient-4">
            <stop stop-color="#DCE8FC" offset="0%"></stop>
            <stop stop-color="#BBCAE8" offset="100%"></stop>
        </linearGradient>
    </defs>
    <g id="1.1版本" stroke="none" stroke-width="1" fill="none" fill-rule="evenodd">
        <g id="资产工作台1920x1080-copy" transform="translate(-731.000000, -478.000000)">
            <g id="资产登记" transform="translate(731.000000, 478.000000)">
                <rect id="矩形-copy-38" fill="#A7ACB7" x="0" y="0" width="100" height="96" rx="4"></rect>
                <text font-family="PingFangSC-Regular, PingFang SC" font-size="14" font-weight="normal" fill="#FFFFFF">
                    <tspan x="22" y="81">资产登记</tspan>
                </text>
                <g id="硬件登记" transform="translate(21.000000, 16.000000)">
                    <g id="Rectangle-3" transform="translate(17.000000, 32.000000)">
                        <mask id="mask-3" fill="white">
                            <use xlink:href="#path-2"></use>
                        </mask>
                        <use id="Mask" fill="url(#linearGradient-1)" xlink:href="#path-2"></use>
                        <rect fill="#000000" opacity="0.200000003" style="mix-blend-mode: overlay;" mask="url(#mask-3)" x="-10" y="-4" width="25" height="8"></rect>
                    </g>
                    <path d="M2.40603306,0 L45.5939669,0 C46.9227823,-2.44099423e-16 48,1.07721769 48,2.40603306 L48,33.5939669 C48,34.9227823 46.9227823,36 45.5939669,36 L2.40603306,36 C1.07721769,36 -2.81356261e-16,34.9227823 -4.4408921e-16,33.5939669 L0,2.40603306 C-1.62732948e-16,1.07721769 1.07721769,-1.99989787e-16 2.40603306,-4.4408921e-16 Z" id="Rectangle-17" fill="url(#linearGradient-4)"></path>
                    <polygon id="Rectangle-17-Copy" fill="#FFFFFF" points="2 2 46 2 46 32 2 32"></polygon>
                    <g id="Group-14" transform="translate(14.000000, 15.000000)">
                        <circle id="Oval" fill="#68727E" cx="2" cy="2" r="2"></circle>
                        <circle id="Oval-Copy" fill="#68727E" cx="10" cy="2" r="2"></circle>
                        <circle id="Oval-Copy-2" fill="#FF6300" cx="18" cy="2" r="2"></circle>
                    </g>
                    <path d="M39,22 L57,22 C58.1045695,22 59,22.8954305 59,24 L59,42 C59,43.1045695 58.1045695,44 57,44 L39,44 C37.8954305,44 37,43.1045695 37,42 L37,24 C37,22.8954305 37.8954305,22 39,22 Z" id="Rectangle-19-Copy-5" fill="#E0EBFE"></path>
                    <path d="M55.3575459,39.7137168 L40.642874,39.7137168 C40.2875075,39.7137168 40,40.0012143 40,40.3565684 C40,40.7119225 40.2875075,40.99942 40.642874,40.99942 L55.3575459,40.99942 C55.7129124,40.99942 56.0004199,40.7119225 56.0004199,40.3565684 C56.0004199,40.0012143 55.7129124,39.7137168 55.3575459,39.7137168 Z M44.1429659,37.6065922 L48.3484334,35.8262504 C48.4162923,35.7976793 48.4770082,35.7566082 48.530581,35.7048229 L55.6236243,28.6120271 C56.1254232,28.1102457 56.1289947,27.2923957 55.6271958,26.7906143 L54.2110872,25.3745551 C53.7092884,24.8727737 52.8914097,24.8763451 52.3896109,25.3781265 L45.2965676,32.4709223 C45.2447805,32.5227076 45.203708,32.585207 45.1751358,32.6530636 L43.3929462,36.8565987 C43.2929436,37.0923109 43.3625882,37.3298089 43.5143779,37.483379 C43.6661676,37.6369491 43.9054596,37.7065913 44.1429659,37.6065922 Z M53.2985633,26.2870472 L53.3021348,26.2834758 L54.7164576,27.6977493 L54.7128861,27.7013207 L53.6057142,28.808454 L52.1913914,27.3941805 L53.2985633,26.2870472 Z M46.3037369,33.2816296 L51.282439,28.3031012 L52.6967618,29.7173747 L47.7180597,34.6959031 L45.2644239,35.7351798 L46.3037369,33.2816296 Z" id="Shape" fill="#3B6CFF" fill-rule="nonzero"></path>
                </g>
            </g>
        </g>
    </g>
</svg>