<?xml version="1.0" encoding="UTF-8"?>
<svg width="100px" height="96px" viewBox="0 0 100 96" version="1.1" xmlns="http://www.w3.org/2000/svg" xmlns:xlink="http://www.w3.org/1999/xlink">
    <!-- Generator: Sketch 52.3 (67297) - http://www.bohemiancoding.com/sketch -->
    <title>结果验证</title>
    <desc>Created with Sketch.</desc>
    <defs>
        <linearGradient x1="50%" y1="0%" x2="50%" y2="100%" id="linearGradient-1">
            <stop stop-color="#6DA5FF" offset="0%"></stop>
            <stop stop-color="#3B6CFF" offset="100%"></stop>
        </linearGradient>
        <linearGradient x1="0%" y1="0%" x2="100%" y2="100%" id="linearGradient-2">
            <stop stop-color="#75A8FF" offset="0%"></stop>
            <stop stop-color="#4D82FF" offset="100%"></stop>
        </linearGradient>
    </defs>
    <g id="1.1版本" stroke="none" stroke-width="1" fill="none" fill-rule="evenodd">
        <g id="资产工作台1920x1080-copy" transform="translate(-1050.000000, -398.000000)">
            <g id="结果验证" transform="translate(1050.000000, 398.000000)">
                <rect id="矩形-copy-43" fill="url(#linearGradient-1)" x="0" y="0" width="100" height="96" rx="4"></rect>
                <text font-family="PingFangSC-Regular, PingFang SC" font-size="14" font-weight="normal" fill="#FFFFFF">
                    <tspan x="22" y="81">结果验证</tspan>
                </text>
                <g id="准入实施" transform="translate(21.000000, 16.000000)">
                    <g id="Group-3">
                        <rect id="Rectangle-12" fill="url(#linearGradient-2)" x="0" y="0" width="48" height="40" rx="2"></rect>
                        <rect id="Rectangle-12-Copy-2" fill="#F7F9FC" x="2" y="2" width="44" height="36" rx="2"></rect>
                    </g>
                    <path d="M4.86755016,25 L34.1324498,25 C34.6115846,25 35,25.3884154 35,25.8675502 L35,26.1324498 C35,26.6115846 34.6115846,27 34.1324498,27 L4.86755016,27 C4.38841544,27 4,26.6115846 4,26.1324498 L4,25.8675502 C4,25.3884154 4.38841544,25 4.86755016,25 Z" id="Rectangle-14-Copy" fill="#F7E08D"></path>
                    <rect id="Rectangle-14-Copy-2" fill="#F7E08D" x="4" y="29" width="23" height="2" rx="0.867550163"></rect>
                    <rect id="Rectangle-14-Copy-3" fill="#F7E08D" x="4" y="33" width="23" height="2" rx="0.867550163"></rect>
                    <g id="Group-5" transform="translate(4.000000, 4.000000)" fill="#F7E08D">
                        <rect id="Rectangle-14" x="0" y="0" width="40" height="19" rx="0.867550163"></rect>
                    </g>
                    <g id="Group-2" transform="translate(16.000000, 6.000000)" fill-rule="nonzero">
                        <path d="M7.5,15 C3.35775151,15 0,11.642023 0,7.5 C0,3.35797703 3.35775151,0 7.5,0 C11.6422485,0 15,3.35797703 15,7.5 C15,11.642023 11.6422485,15 7.5,15 Z M7.5,13.8888889 C11.0278579,13.8888889 13.8879561,11.0285986 13.8879561,7.5 C13.8879561,3.97140144 11.0278579,1.11111111 7.5,1.11111111 C3.97214211,1.11111111 1.11204388,3.97140144 1.11204388,7.5 C1.11204388,11.0285986 3.97214211,13.8888889 7.5,13.8888889 Z" id="Oval-5-Copy" fill="#F7F9FC"></path>
                        <polygon id="Path-4" fill="#FFB93C" points="14.2318136 2 16 3.57623978 7.23390493 12 3 7.62526426 4.82861843 6.10923903 7.29914058 8.66193724"></polygon>
                    </g>
                    <path d="M39,22 L57,22 C58.1045695,22 59,22.8954305 59,24 L59,42 C59,43.1045695 58.1045695,44 57,44 L39,44 C37.8954305,44 37,43.1045695 37,42 L37,24 C37,22.8954305 37.8954305,22 39,22 Z" id="Rectangle-19-Copy-5" fill="#E0EBFE"></path>
                    <path d="M54.907847,32.8771574 C54.8562902,32.5709298 54.5672594,32.3631326 54.2610431,32.4146913 C53.9548267,32.46625 53.747037,32.7552913 53.7985938,33.0615189 C53.8485884,33.3583722 53.8735856,33.6833484 53.8735856,34.0036374 C53.8735856,35.5722725 53.2627152,37.0471645 52.1534621,38.1564582 C51.044209,39.265752 49.569371,39.8750824 47.999231,39.8750824 C46.4306534,39.8750824 44.9542531,39.2641896 43.8449999,38.1548959 C42.7357468,37.0456021 42.1248764,35.5691478 42.1248764,34.0005126 C42.1248764,32.4318775 42.7357468,30.9554232 43.8449999,29.8461294 C44.9542531,28.7368357 46.4306534,28.1259429 47.999231,28.1259429 C48.0648488,28.1259429 48.1304666,28.1275053 48.1960844,28.1290677 L46.9180998,29.4070991 C46.6978115,29.6273954 46.6978115,29.9836194 46.9180998,30.2023533 C47.1383881,30.4226497 47.494599,30.4226497 47.7133249,30.2023533 L49.8349668,28.0806337 C50.0552551,27.8603374 50.0552551,27.5041135 49.8349668,27.2853795 L47.7133249,25.1652223 C47.4930366,24.9449259 47.1368258,24.9449259 46.9180998,25.1652223 C46.6978115,25.3855186 46.6978115,25.7417426 46.9180998,25.9604765 L47.9586105,27.0010253 C47.0290251,27.0057125 46.1259993,27.1916363 45.2760927,27.550985 C44.4418094,27.9040842 43.6934541,28.4087347 43.0513371,29.0508752 C42.4092202,29.6930156 41.9045881,30.4413983 41.5515019,31.2757122 C41.1859171,32.1397114 41,33.0552694 41,34.0005126 C41,34.9457559 41.1859171,35.8613138 41.5499396,36.7253131 C41.9030258,37.559627 42.4076578,38.3080097 43.0497748,38.9501501 C43.6918917,39.5922906 44.440247,40.0969411 45.2745304,40.4500403 C46.138498,40.8156385 47.0540224,41 47.999231,41 C48.9444397,41 49.8599641,40.8156385 50.7239317,40.4500403 C51.558215,40.0985035 52.3065703,39.593853 52.9486872,38.9517125 C53.5908042,38.309572 54.0954362,37.5611893 54.4485225,36.7284378 C54.8141073,35.866001 54.998462,34.9488807 54.998462,34.0036374 C54.998462,33.6177282 54.9672155,33.2380685 54.907847,32.8771574 Z" id="Shape" fill="#3B6CFF" fill-rule="nonzero"></path>
                </g>
            </g>
        </g>
    </g>
</svg>