<?xml version="1.0" encoding="UTF-8"?>
<svg width="100px" height="96px" viewBox="0 0 100 96" version="1.1" xmlns="http://www.w3.org/2000/svg" xmlns:xlink="http://www.w3.org/1999/xlink">
    <!-- Generator: Sketch 52.3 (67297) - http://www.bohemiancoding.com/sketch -->
    <title>安全检查</title>
    <desc>Created with Sketch.</desc>
    <defs>
        <linearGradient x1="110.847655%" y1="20.4080351%" x2="44.1373919%" y2="72.7854763%" id="linearGradient-1">
            <stop stop-color="#05CC7F" offset="0%"></stop>
            <stop stop-color="#37B765" offset="100%"></stop>
        </linearGradient>
    </defs>
    <g id="1.1版本" stroke="none" stroke-width="1" fill="none" fill-rule="evenodd">
        <g id="资产工作台1920x1080-copy" transform="translate(-891.000000, -558.000000)">
            <g id="安全检查" transform="translate(891.000000, 558.000000)">
                <rect id="矩形-copy-42" fill="#A7ACB7" x="0" y="0" width="100" height="96" rx="4"></rect>
                <text font-family="PingFangSC-Regular, PingFang SC" font-size="14" font-weight="normal" fill="#FFFFFF">
                    <tspan x="22" y="81">安全检查</tspan>
                </text>
                <g id="入网检查" transform="translate(16.000000, 4.000000)">
                    <g id="Group-9" transform="translate(33.941125, 33.941125) rotate(-45.000000) translate(-33.941125, -33.941125) translate(9.941125, 9.941125)">
                        <ellipse id="Oval-7" stroke="#4877FC" stroke-width="2.46279739" fill="#FFFFFF" cx="23.939956" cy="24.0040663" rx="22.9067194" ry="22.826475"></ellipse>
                        <ellipse id="Oval-8" stroke="#5F8AFF" stroke-width="2.46279739" cx="24.0754987" cy="24.1391342" rx="5.69279418" ry="5.67285178"></ellipse>
                        <ellipse id="Oval-8-Copy" stroke="#E0EBFE" stroke-width="2.46279739" cx="24.0754987" cy="24.1391342" rx="14.909699" ry="14.8574689"></ellipse>
                        <path d="M19.2172281,10.0882658 C13.3681021,12.096142 9.16579969,17.6286071 9.16579969,24.1391342 M36.1781135,32.8183245 C37.944527,30.3766878 38.9851978,27.3790161 38.9851978,24.1391342 C38.9851978,21.9473643 38.5089369,19.8664415 37.6539161,17.993525" id="Oval-8-Copy-2" stroke="#05CC7F" stroke-width="2.46279739"></path>
                        <ellipse id="Oval-9-Copy-3" fill="url(#linearGradient-1)" opacity="0.200000003" cx="38.9851978" cy="25.4898132" rx="4.06628155" ry="4.05203698"></ellipse>
                        <ellipse id="Oval-9" fill="#05CC7F" cx="38.849655" cy="25.3547453" rx="2.03314078" ry="2.02601849"></ellipse>
                        <ellipse id="Oval-9-Copy-2" fill="url(#linearGradient-1)" opacity="0.200000003" cx="11.7411113" cy="15.3597207" rx="3.93073884" ry="3.91696909"></ellipse>
                        <ellipse id="Oval-9-Copy" fill="#05CC7F" cx="11.7411113" cy="15.3597207" rx="2.03314078" ry="2.02601849"></ellipse>
                    </g>
                    <path d="M46,35 L64,35 C65.1045695,35 66,35.8954305 66,37 L66,55 C66,56.1045695 65.1045695,57 64,57 L46,57 C44.8954305,57 44,56.1045695 44,55 L44,37 C44,35.8954305 44.8954305,35 46,35 Z" id="Rectangle-19-Copy-5" fill="#E0EBFE"></path>
                    <path d="M62.8122788,52.9017857 L59.1391159,49.2303571 C60.1230307,48.0428571 60.7140939,46.5196429 60.7140939,44.8571429 C60.7140939,41.0696429 57.644494,38 53.8570469,38 C50.0695999,38 47,41.0696429 47,44.8571429 C47,48.6446429 50.0695999,51.7142857 53.8570469,51.7142857 C55.5195237,51.7142857 57.0427167,51.1232143 58.2302001,50.1392857 L61.903363,53.8125 C62.0283612,53.9375 62.1926446,54 62.3587137,54 C62.5247828,54 62.6872806,53.9375 62.8140645,53.8125 C63.0622753,53.5607143 63.0622753,53.1535714 62.8122788,52.9017857 Z M55.9242604,49.8727811 C55.2426036,50.1621302 54.5183432,50.3076923 53.7692308,50.3076923 C53.0201183,50.3076923 52.295858,50.1621302 51.6142012,49.8727811 C50.9556213,49.5940828 50.3627219,49.1946746 49.8532544,48.6852071 C49.343787,48.1757396 48.9443787,47.5828402 48.6656805,46.9242604 C48.3763314,46.2426036 48.2307692,45.5183432 48.2307692,44.7692308 C48.2307692,44.0201183 48.3763314,43.295858 48.6656805,42.6142012 C48.9443787,41.9556213 49.343787,41.3627219 49.8532544,40.8532544 C50.3627219,40.343787 50.9556213,39.9443787 51.6142012,39.6656805 C52.295858,39.3763314 53.0201183,39.2307692 53.7692308,39.2307692 C54.5183432,39.2307692 55.2426036,39.3763314 55.9242604,39.6656805 C56.5828402,39.9443787 57.1757396,40.343787 57.6852071,40.8532544 C58.1946746,41.3627219 58.5940828,41.9556213 58.8727811,42.6142012 C59.1621302,43.295858 59.3076923,44.0201183 59.3076923,44.7692308 C59.3076923,45.5183432 59.1621302,46.2426036 58.8727811,46.9242604 C58.5940828,47.5828402 58.1946746,48.1757396 57.6852071,48.6852071 C57.1757396,49.1946746 56.5846154,49.5940828 55.9242604,49.8727811 Z" id="Shape" fill="#3B6CFF" fill-rule="nonzero"></path>
                </g>
            </g>
        </g>
    </g>
</svg>