<?xml version="1.0" encoding="UTF-8"?>
<svg width="100px" height="96px" viewBox="0 0 100 96" version="1.1" xmlns="http://www.w3.org/2000/svg" xmlns:xlink="http://www.w3.org/1999/xlink">
    <!-- Generator: Sketch 52.3 (67297) - http://www.bohemiancoding.com/sketch -->
    <title>资产探测</title>
    <desc>Created with Sketch.</desc>
    <defs>
        <linearGradient x1="61.1821135%" y1="100%" x2="61.1821115%" y2="2.77555756e-15%" id="linearGradient-1">
            <stop stop-color="#C3D5F8" offset="0%"></stop>
            <stop stop-color="#396BE2" offset="100%"></stop>
        </linearGradient>
        <path d="M2.69925721,0 L11.3007428,4.4408921e-16 C11.8672502,3.40023494e-16 12.3569954,0.395235699 12.4766287,0.948967105 L13.6852018,6.54293405 C13.8255094,7.1923579 13.4127892,7.83256175 12.7633653,7.97286938 C12.6798853,7.99090518 12.594722,8 12.5093159,8 L1.4906841,8 C0.826276421,8 0.287667575,7.46139115 0.287667575,6.79698347 C0.287667575,6.71157736 0.296762394,6.62641406 0.3147982,6.54293405 L1.5233713,0.948967105 C1.64300463,0.395235699 2.13274984,1.04065716e-16 2.69925721,0 Z" id="path-2"></path>
        <linearGradient x1="0%" y1="0%" x2="100%" y2="100%" id="linearGradient-4">
            <stop stop-color="#DCE8FC" offset="0%"></stop>
            <stop stop-color="#BBCAE8" offset="100%"></stop>
        </linearGradient>
    </defs>
    <g id="1.1版本" stroke="none" stroke-width="1" fill="none" fill-rule="evenodd">
        <g id="资产工作台1920x1080-copy" transform="translate(-570.000000, -478.000000)">
            <g id="资产探测" transform="translate(570.000000, 478.000000)">
                <rect id="矩形-copy-38" fill="#A7ACB7" x="0" y="0" width="100" height="96" rx="4"></rect>
                <text font-family="PingFangSC-Regular, PingFang SC" font-size="14" font-weight="normal" fill="#FFFFFF">
                    <tspan x="22" y="81">资产探测</tspan>
                </text>
                <g id="硬件登记" transform="translate(21.000000, 16.000000)">
                    <g id="Rectangle-3" transform="translate(17.000000, 32.000000)">
                        <mask id="mask-3" fill="white">
                            <use xlink:href="#path-2"></use>
                        </mask>
                        <use id="Mask" fill="url(#linearGradient-1)" xlink:href="#path-2"></use>
                        <rect fill="#000000" opacity="0.200000003" style="mix-blend-mode: overlay;" mask="url(#mask-3)" x="-10" y="-4" width="25" height="8"></rect>
                    </g>
                    <path d="M2.40603306,0 L45.5939669,0 C46.9227823,-2.44099423e-16 48,1.07721769 48,2.40603306 L48,33.5939669 C48,34.9227823 46.9227823,36 45.5939669,36 L2.40603306,36 C1.07721769,36 -2.81356261e-16,34.9227823 -4.4408921e-16,33.5939669 L0,2.40603306 C-1.62732948e-16,1.07721769 1.07721769,-1.99989787e-16 2.40603306,-4.4408921e-16 Z" id="Rectangle-17" fill="url(#linearGradient-4)"></path>
                    <polygon id="Rectangle-17-Copy" fill="#FFFFFF" points="2 2 46 2 46 32 2 32"></polygon>
                    <g id="Group-14" transform="translate(14.000000, 15.000000)">
                        <circle id="Oval" fill="#68727E" cx="2" cy="2" r="2"></circle>
                        <circle id="Oval-Copy" fill="#68727E" cx="10" cy="2" r="2"></circle>
                        <circle id="Oval-Copy-2" fill="#FF6300" cx="18" cy="2" r="2"></circle>
                    </g>
                    <path d="M39,22 L57,22 C58.1045695,22 59,22.8954305 59,24 L59,42 C59,43.1045695 58.1045695,44 57,44 L39,44 C37.8954305,44 37,43.1045695 37,42 L37,24 C37,22.8954305 37.8954305,22 39,22 Z" id="Rectangle-19-Copy-5" fill="#E0EBFE"></path>
                    <path d="M55.8122788,39.9017857 L52.1391159,36.2303571 C53.1230307,35.0428571 53.7140939,33.5196429 53.7140939,31.8571429 C53.7140939,28.0696429 50.644494,25 46.8570469,25 C43.0695999,25 40,28.0696429 40,31.8571429 C40,35.6446429 43.0695999,38.7142857 46.8570469,38.7142857 C48.5195237,38.7142857 50.0427167,38.1232143 51.2302001,37.1392857 L54.903363,40.8125 C55.0283612,40.9375 55.1926446,41 55.3587137,41 C55.5247828,41 55.6872806,40.9375 55.8140645,40.8125 C56.0622753,40.5607143 56.0622753,40.1535714 55.8122788,39.9017857 Z M48.9242604,36.8727811 C48.2426036,37.1621302 47.5183432,37.3076923 46.7692308,37.3076923 C46.0201183,37.3076923 45.295858,37.1621302 44.6142012,36.8727811 C43.9556213,36.5940828 43.3627219,36.1946746 42.8532544,35.6852071 C42.343787,35.1757396 41.9443787,34.5828402 41.6656805,33.9242604 C41.3763314,33.2426036 41.2307692,32.5183432 41.2307692,31.7692308 C41.2307692,31.0201183 41.3763314,30.295858 41.6656805,29.6142012 C41.9443787,28.9556213 42.343787,28.3627219 42.8532544,27.8532544 C43.3627219,27.343787 43.9556213,26.9443787 44.6142012,26.6656805 C45.295858,26.3763314 46.0201183,26.2307692 46.7692308,26.2307692 C47.5183432,26.2307692 48.2426036,26.3763314 48.9242604,26.6656805 C49.5828402,26.9443787 50.1757396,27.343787 50.6852071,27.8532544 C51.1946746,28.3627219 51.5940828,28.9556213 51.8727811,29.6142012 C52.1621302,30.295858 52.3076923,31.0201183 52.3076923,31.7692308 C52.3076923,32.5183432 52.1621302,33.2426036 51.8727811,33.9242604 C51.5940828,34.5828402 51.1946746,35.1757396 50.6852071,35.6852071 C50.1757396,36.1946746 49.5846154,36.5940828 48.9242604,36.8727811 Z" id="Shape" fill="#3B6CFF" fill-rule="nonzero"></path>
                </g>
            </g>
        </g>
    </g>
</svg>