<?xml version="1.0" encoding="UTF-8"?>
<svg width="100px" height="96px" viewBox="0 0 100 96" version="1.1" xmlns="http://www.w3.org/2000/svg" xmlns:xlink="http://www.w3.org/1999/xlink">
    <!-- Generator: Sketch 52.3 (67297) - http://www.bohemiancoding.com/sketch -->
    <title>退役发起</title>
    <desc>Created with Sketch.</desc>
    <defs>
        <linearGradient x1="0%" y1="0%" x2="100%" y2="100%" id="linearGradient-1">
            <stop stop-color="#F7E08D" offset="0%"></stop>
            <stop stop-color="#FFB32A" offset="100%"></stop>
        </linearGradient>
        <linearGradient x1="0%" y1="0%" x2="100%" y2="100%" id="linearGradient-2">
            <stop stop-color="#FFFFFF" offset="0%"></stop>
            <stop stop-color="#FFB32A" offset="100%"></stop>
        </linearGradient>
        <linearGradient x1="0%" y1="0%" x2="100%" y2="100%" id="linearGradient-3">
            <stop stop-color="#9CC0FF" offset="0%"></stop>
            <stop stop-color="#6C98FF" offset="100%"></stop>
        </linearGradient>
        <linearGradient x1="0%" y1="0%" x2="100%" y2="100%" id="linearGradient-4">
            <stop stop-color="#75A8FF" offset="0%"></stop>
            <stop stop-color="#4D82FF" offset="100%"></stop>
        </linearGradient>
    </defs>
    <g id="1.1版本" stroke="none" stroke-width="1" fill="none" fill-rule="evenodd">
        <g id="资产工作台1920x1080-copy" transform="translate(-1050.000000, -719.000000)">
            <g id="退役发起" transform="translate(1050.000000, 719.000000)">
                <rect id="矩形-copy-46" fill="#A7ACB7" x="0" y="0" width="100" height="96" rx="4"></rect>
                <text font-family="PingFangSC-Regular, PingFang SC" font-size="14" font-weight="normal" fill="#FFFFFF">
                    <tspan x="22" y="81">退役发起</tspan>
                </text>
                <g transform="translate(25.000000, 20.000000)">
                    <polygon id="Shape" fill="#E0E0E0" fill-rule="nonzero" points="39 9.8336714 23 6 23 36 39 31.8335211"></polygon>
                    <polygon id="Shape" fill="#2D59D4" fill-rule="nonzero" points="39 9.8336714 23 6 23 36 39 31.8335211"></polygon>
                    <polygon id="Shape" fill="#3364ED" fill-rule="nonzero" points="23 6 23 36 7 31.9348276 7 9.81610112"></polygon>
                    <path d="M15,2.28907277 L15,27.6832138 C15,28.7877833 15.8954305,29.6832138 17,29.6832138 C17.172996,29.6832138 17.3452609,29.6607685 17.512481,29.6164399 L29.512481,26.4353466 C30.3893884,26.2028863 31,25.4093164 31,24.5021205 L31,5.21606859 C31,4.2940558 30.3696891,3.49152248 29.4739378,3.27303412 L17.4739378,0.346038297 C16.4008295,0.0842896699 15.3187142,0.742026646 15.0569655,1.81513495 C15.0191247,1.97027356 15,2.12938583 15,2.28907277 Z" id="Shape" fill="url(#linearGradient-1)" fill-rule="nonzero"></path>
                    <path d="M16,4.4185679 L16,25.540425 C16,26.6449945 16.8954305,27.540425 18,27.540425 C18.1985334,27.540425 18.3959603,27.5108642 18.585787,27.4527151 L26.585787,25.0020951 C27.426173,24.7446618 28,23.9687364 28,23.089805 L28,6.67343875 C28,5.7778318 27.4045971,4.99141061 26.5425772,4.74844265 L18.5425772,2.4935718 C17.4794312,2.19391468 16.374661,2.81284471 16.0750039,3.8759907 C16.0252379,4.05255417 16,4.23512496 16,4.4185679 Z" id="Shape-Copy" fill="url(#linearGradient-2)" fill-rule="nonzero"></path>
                    <polygon id="Shape" fill="url(#linearGradient-3)" fill-rule="nonzero" points="8 9 8 31.7868217 23.7868952 36 24 13.3852713"></polygon>
                    <polygon id="Shape" fill="#E0E0E0" fill-rule="nonzero" points="39 31.7007752 23 36 23 13.3852713 39 9"></polygon>
                    <polygon id="Shape" fill="url(#linearGradient-4)" fill-rule="nonzero" points="39 31.7007752 23 36 23 13.3852713 39 9"></polygon>
                    <polygon id="Shape" fill="#000000" fill-rule="nonzero" opacity="0.1" points="7 20.5263356 15.9841586 23 23 16.8796477 23 13.5656763 7.16804139 9 7 17.3378226"></polygon>
                    <polygon id="Shape" fill="#000000" fill-rule="nonzero" opacity="0.1" points="29.9691629 22 23 16.3156491 23 13.4359622 39 10 39 19.6476096"></polygon>
                    <polygon id="Shape" fill="#79A5F9" fill-rule="nonzero" points="8.13800418 9 0 15.9071913 15.8612472 20 24 13.3488015"></polygon>
                    <polygon id="Shape" fill="#E0E0E0" fill-rule="nonzero" points="39.8072619 9 48 15.9071913 32.2755533 20 24 13.3488015"></polygon>
                    <polygon id="Shape" fill="#79A5F9" fill-rule="nonzero" points="39.8072619 9 48 15.9071913 32.2755533 20 24 13.3488015"></polygon>
                    <path d="M-7.2785966,11.7214034 L-3.01973167,11.7214034 L1.2404678,17.2214034 L-3.0190644,22.7214034 L-7.2785966,22.7214034 L-3.0190644,17.2214034 L-7.2785966,11.7214034 Z M1.2404678,11.7214034 L5.5,11.7214034 L9.7595322,17.2214034 L5.5,22.7214034 L1.2404678,22.7214034 L5.5,17.2214034 L1.2404678,11.7214034 Z M9.7595322,11.7214034 L14.0183971,11.7214034 L18.2785966,17.2214034 L14.0190644,22.7214034 L9.7595322,22.7214034 L14.0190644,17.2214034 L9.7595322,11.7214034 Z" id="Combined-Shape" fill="#E0EBFE" fill-rule="nonzero" transform="translate(5.500000, 17.221403) scale(1, -1) rotate(-90.000000) translate(-5.500000, -17.221403) "></path>
                    <path d="M31,18 L49,18 C50.1045695,18 51,18.8954305 51,20 L51,38 C51,39.1045695 50.1045695,40 49,40 L31,40 C29.8954305,40 29,39.1045695 29,38 L29,20 C29,18.8954305 29.8954305,18 31,18 Z" id="Rectangle-19-Copy-5" fill="#E0EBFE"></path>
                    <g id="select" transform="translate(32.000000, 21.000000)" fill="#3B6CFF" fill-rule="nonzero">
                        <path d="M14.7142857,0 L1.28571429,0 C0.575,0 0,0.575 0,1.28571429 L0,14.7142857 C0,15.425 0.575,16 1.28571429,16 L10.2857143,16 C10.6410714,16 10.9285714,15.7125 10.9285714,15.3571429 C10.9285714,15.0017857 10.6410714,14.7142857 10.2857143,14.7142857 L1.28571429,14.7142857 L1.28571429,1.28571429 L14.7142857,1.28571429 L14.7142857,10.2857143 C14.7142857,10.6410714 15.0017857,10.9285714 15.3571429,10.9285714 C15.7125,10.9285714 16,10.6410714 16,10.2857143 L16,1.28571429 C16,0.575 15.425,0 14.7142857,0 Z" id="Shape"></path>
                        <path d="M10.7852988,9.8207393 L12.750824,7.85431812 C12.9647974,7.64024722 12.8133118,7.27272727 12.5103407,7.27272727 L7.95441231,7.27272727 C7.57759197,7.27272727 7.27272727,7.57773094 7.27272727,7.95472306 L7.27272727,12.5108338 C7.27272727,12.813943 7.64007977,12.9673921 7.85405313,12.7514267 L9.81957833,10.7850056 L13.3794891,14.3465391 C13.512039,14.4791494 13.6862474,14.5454545 13.8623493,14.5454545 C14.0384513,14.5454545 14.2107661,14.4791494 14.3452096,14.3465391 C14.6122029,14.0794241 14.6122029,13.6474934 14.3452096,13.3822728 L10.7852988,9.8207393 Z" id="Shape"></path>
                    </g>
                </g>
            </g>
        </g>
    </g>
</svg>