<?xml version="1.0" encoding="UTF-8"?>
<svg width="100px" height="96px" viewBox="0 0 100 96" version="1.1" xmlns="http://www.w3.org/2000/svg" xmlns:xlink="http://www.w3.org/1999/xlink">
    <!-- Generator: Sketch 52.3 (67297) - http://www.bohemiancoding.com/sketch -->
    <title>变更</title>
    <desc>Created with Sketch.</desc>
    <defs>
        <linearGradient x1="50%" y1="0%" x2="50%" y2="100%" id="linearGradient-1">
            <stop stop-color="#6DA5FF" offset="0%"></stop>
            <stop stop-color="#3B6CFF" offset="100%"></stop>
        </linearGradient>
        <linearGradient x1="0%" y1="0%" x2="100%" y2="100%" id="linearGradient-2">
            <stop stop-color="#75A8FF" offset="0%"></stop>
            <stop stop-color="#4D82FF" offset="100%"></stop>
        </linearGradient>
    </defs>
    <g id="1.1版本" stroke="none" stroke-width="1" fill="none" fill-rule="evenodd">
        <g id="资产工作台1920x1080-copy" transform="translate(-1376.000000, -558.000000)">
            <g id="变更" transform="translate(1376.000000, 558.000000)">
                <rect id="矩形-copy-43" fill="url(#linearGradient-1)" x="0" y="0" width="100" height="96" rx="4"></rect>
                <text font-family="PingFangSC-Regular, PingFang SC" font-size="14" font-weight="normal" fill="#FFFFFF">
                    <tspan x="36" y="81">变更</tspan>
                </text>
                <g id="准入实施" transform="translate(21.000000, 16.000000)">
                    <g id="Group-3">
                        <rect id="Rectangle-12" fill="url(#linearGradient-2)" x="0" y="0" width="48" height="40" rx="2"></rect>
                        <rect id="Rectangle-12-Copy-2" fill="#F7F9FC" x="2" y="2" width="44" height="36" rx="2"></rect>
                    </g>
                    <path d="M4.86755016,25 L34.1324498,25 C34.6115846,25 35,25.3884154 35,25.8675502 L35,26.1324498 C35,26.6115846 34.6115846,27 34.1324498,27 L4.86755016,27 C4.38841544,27 4,26.6115846 4,26.1324498 L4,25.8675502 C4,25.3884154 4.38841544,25 4.86755016,25 Z" id="Rectangle-14-Copy" fill="#F7E08D"></path>
                    <rect id="Rectangle-14-Copy-2" fill="#F7E08D" x="4" y="29" width="23" height="2" rx="0.867550163"></rect>
                    <rect id="Rectangle-14-Copy-3" fill="#F7E08D" x="4" y="33" width="23" height="2" rx="0.867550163"></rect>
                    <g id="Group-5" transform="translate(4.000000, 4.000000)" fill="#F7E08D">
                        <rect id="Rectangle-14" x="0" y="0" width="40" height="19" rx="0.867550163"></rect>
                    </g>
                    <g id="Group-2" transform="translate(16.000000, 6.000000)" fill-rule="nonzero">
                        <path d="M7.5,15 C3.35775151,15 0,11.642023 0,7.5 C0,3.35797703 3.35775151,0 7.5,0 C11.6422485,0 15,3.35797703 15,7.5 C15,11.642023 11.6422485,15 7.5,15 Z M7.5,13.8888889 C11.0278579,13.8888889 13.8879561,11.0285986 13.8879561,7.5 C13.8879561,3.97140144 11.0278579,1.11111111 7.5,1.11111111 C3.97214211,1.11111111 1.11204388,3.97140144 1.11204388,7.5 C1.11204388,11.0285986 3.97214211,13.8888889 7.5,13.8888889 Z" id="Oval-5-Copy" fill="#F7F9FC"></path>
                        <polygon id="Path-4" fill="#FFB93C" points="14.2318136 2 16 3.57623978 7.23390493 12 3 7.62526426 4.82861843 6.10923903 7.29914058 8.66193724"></polygon>
                    </g>
                    <path d="M39,22 L57,22 C58.1045695,22 59,22.8954305 59,24 L59,42 C59,43.1045695 58.1045695,44 57,44 L39,44 C37.8954305,44 37,43.1045695 37,42 L37,24 C37,22.8954305 37.8954305,22 39,22 Z" id="Rectangle-19-Copy-5" fill="#E0EBFE"></path>
                    <path d="M45.3548532,29.5416958 L51.6135396,29.5416958 L49.4776956,31.675805 C49.2248375,31.9282457 49.2248375,32.3364478 49.4776956,32.5870982 C49.603228,32.7124234 49.7682134,32.775086 49.9349922,32.775086 C50.1017709,32.775086 50.264963,32.7124234 50.3922887,32.5870982 L53.5933647,29.3913056 C53.7153105,29.2695611 53.7816633,29.1066383 53.7816633,28.9347638 C53.7816633,28.7628892 53.7135171,28.5999664 53.5933647,28.4782219 L50.2972428,25.1893306 C50.0443847,24.9368898 49.6355077,24.9368898 49.384443,25.1893306 C49.1315848,25.4417713 49.1315848,25.8499734 49.384443,26.1006238 L51.5400134,28.2526366 L45.3548532,28.2526366 C43.9237839,28.2526366 42.578794,28.8094386 41.5673616,29.8192016 C40.5577225,30.8289647 40,32.1717347 40,33.600442 C40,33.9567236 40.2887245,34.2449716 40.6455952,34.2449716 C41.0024658,34.2449716 41.2911903,33.9567236 41.2911903,33.600442 C41.2911903,32.5172742 41.7144138,31.496769 42.4819547,30.7304949 C43.2494956,29.9642208 44.2698946,29.5416958 45.3548532,29.5416958 Z M55.3526115,31.7563712 C54.9957409,31.7563712 54.7070164,32.0446191 54.7070164,32.4009008 C54.7070164,33.4840686 54.2837929,34.5045738 53.516252,35.2708479 C52.7487111,36.037122 51.728312,36.459647 50.6415602,36.459647 L44.3828738,36.459647 L46.5205111,34.3255378 C46.7733692,34.073097 46.7733692,33.664895 46.5205111,33.4142446 C46.267653,33.1618038 45.8587761,33.1618038 45.6077113,33.4142446 L42.4066353,36.6100372 C42.2846895,36.7317817 42.2183367,36.8947045 42.2183367,37.066579 C42.2183367,37.2384536 42.2864829,37.4013763 42.4066353,37.5231208 L45.7009639,40.8120122 C45.8264963,40.9373374 45.9914817,41 46.1582605,41 C46.3250392,41 46.4882313,40.9373374 46.615557,40.8120122 C46.8684152,40.5595714 46.8684152,40.1513693 46.615557,39.9007189 L44.4581932,37.7469158 L50.6433535,37.7469158 C52.0744228,37.7469158 53.4194127,37.1901139 54.4308451,36.1803508 C55.4422775,35.1705877 56,33.8278177 56,32.3991104 C55.9982067,32.0446191 55.7094822,31.7563712 55.3526115,31.7563712 Z" id="Shape" fill="#3B6CFF" fill-rule="nonzero"></path>
                </g>
            </g>
        </g>
    </g>
</svg>