<?xml version="1.0" encoding="UTF-8"?>
<svg width="100px" height="96px" viewBox="0 0 100 96" version="1.1" xmlns="http://www.w3.org/2000/svg" xmlns:xlink="http://www.w3.org/1999/xlink">
    <!-- Generator: Sketch 52.3 (67297) - http://www.bohemiancoding.com/sketch -->
    <title>退役实施</title>
    <desc>Created with Sketch.</desc>
    <defs>
        <linearGradient x1="0%" y1="0%" x2="100%" y2="100%" id="linearGradient-1">
            <stop stop-color="#F7E08D" offset="0%"></stop>
            <stop stop-color="#FFB32A" offset="100%"></stop>
        </linearGradient>
        <linearGradient x1="0%" y1="0%" x2="100%" y2="100%" id="linearGradient-2">
            <stop stop-color="#FFFFFF" offset="0%"></stop>
            <stop stop-color="#FFB32A" offset="100%"></stop>
        </linearGradient>
        <linearGradient x1="0%" y1="0%" x2="100%" y2="100%" id="linearGradient-3">
            <stop stop-color="#9CC0FF" offset="0%"></stop>
            <stop stop-color="#6C98FF" offset="100%"></stop>
        </linearGradient>
        <linearGradient x1="0%" y1="0%" x2="100%" y2="100%" id="linearGradient-4">
            <stop stop-color="#75A8FF" offset="0%"></stop>
            <stop stop-color="#4D82FF" offset="100%"></stop>
        </linearGradient>
    </defs>
    <g id="1.1版本" stroke="none" stroke-width="1" fill="none" fill-rule="evenodd">
        <g id="资产工作台1920x1080-copy" transform="translate(-1212.000000, -719.000000)">
            <g id="退役实施" transform="translate(1212.000000, 719.000000)">
                <rect id="矩形-copy-45" fill="#A7ACB7" x="0" y="0" width="100" height="96" rx="4"></rect>
                <text font-family="PingFangSC-Regular, PingFang SC" font-size="14" font-weight="normal" fill="#FFFFFF">
                    <tspan x="22" y="81">退役实施</tspan>
                </text>
                <g transform="translate(25.000000, 20.000000)">
                    <polygon id="Shape" fill="#E0E0E0" fill-rule="nonzero" points="39 9.8336714 23 6 23 36 39 31.8335211"></polygon>
                    <polygon id="Shape" fill="#2D59D4" fill-rule="nonzero" points="39 9.8336714 23 6 23 36 39 31.8335211"></polygon>
                    <polygon id="Shape" fill="#3364ED" fill-rule="nonzero" points="23 6 23 36 7 31.9348276 7 9.81610112"></polygon>
                    <path d="M16,2.28907277 L16,27.6832138 C16,28.7877833 16.8954305,29.6832138 18,29.6832138 C18.172996,29.6832138 18.3452609,29.6607685 18.512481,29.6164399 L30.512481,26.4353466 C31.3893884,26.2028863 32,25.4093164 32,24.5021205 L32,5.21606859 C32,4.2940558 31.3696891,3.49152248 30.4739378,3.27303412 L18.4739378,0.346038297 C17.4008295,0.0842896699 16.3187142,0.742026646 16.0569655,1.81513495 C16.0191247,1.97027356 16,2.12938583 16,2.28907277 Z" id="Shape" fill="url(#linearGradient-1)" fill-rule="nonzero"></path>
                    <path d="M17,4.4185679 L17,25.540425 C17,26.6449945 17.8954305,27.540425 19,27.540425 C19.1985334,27.540425 19.3959603,27.5108642 19.585787,27.4527151 L27.585787,25.0020951 C28.426173,24.7446618 29,23.9687364 29,23.089805 L29,6.67343875 C29,5.7778318 28.4045971,4.99141061 27.5425772,4.74844265 L19.5425772,2.4935718 C18.4794312,2.19391468 17.374661,2.81284471 17.0750039,3.8759907 C17.0252379,4.05255417 17,4.23512496 17,4.4185679 Z" id="Shape-Copy-2" fill="url(#linearGradient-2)" fill-rule="nonzero"></path>
                    <polygon id="Shape" fill="url(#linearGradient-3)" fill-rule="nonzero" points="8 9 8 31.7868217 23.7868952 36 24 13.3852713"></polygon>
                    <polygon id="Shape" fill="#E0E0E0" fill-rule="nonzero" points="39 31.7007752 23 36 23 13.3852713 39 9"></polygon>
                    <polygon id="Shape" fill="url(#linearGradient-4)" fill-rule="nonzero" points="39 31.7007752 23 36 23 13.3852713 39 9"></polygon>
                    <polygon id="Shape" fill="#000000" fill-rule="nonzero" opacity="0.1" points="7 20.5263356 15.9841586 23 23 16.8796477 23 13.5656763 7.16804139 9 7 17.3378226"></polygon>
                    <polygon id="Shape" fill="#000000" fill-rule="nonzero" opacity="0.1" points="29.9691629 22 23 16.3156491 23 13.4359622 39 10 39 19.6476096"></polygon>
                    <polygon id="Shape" fill="#79A5F9" fill-rule="nonzero" points="8.13800418 9 0 15.9071913 15.8612472 20 24 13.3488015"></polygon>
                    <polygon id="Shape" fill="#E0E0E0" fill-rule="nonzero" points="39.8072619 9 48 15.9071913 32.2755533 20 24 13.3488015"></polygon>
                    <polygon id="Shape" fill="#79A5F9" fill-rule="nonzero" points="39.8072619 9 48 15.9071913 32.2755533 20 24 13.3488015"></polygon>
                    <path d="M-7.2785966,11.7214034 L-3.01973167,11.7214034 L1.2404678,17.2214034 L-3.0190644,22.7214034 L-7.2785966,22.7214034 L-3.0190644,17.2214034 L-7.2785966,11.7214034 Z M1.2404678,11.7214034 L5.5,11.7214034 L9.7595322,17.2214034 L5.5,22.7214034 L1.2404678,22.7214034 L5.5,17.2214034 L1.2404678,11.7214034 Z M9.7595322,11.7214034 L14.0183971,11.7214034 L18.2785966,17.2214034 L14.0190644,22.7214034 L9.7595322,22.7214034 L14.0190644,17.2214034 L9.7595322,11.7214034 Z" id="Combined-Shape" fill="#E0EBFE" fill-rule="nonzero" transform="translate(5.500000, 17.221403) scale(1, -1) rotate(-90.000000) translate(-5.500000, -17.221403) "></path>
                    <path d="M31,18 L49,18 C50.1045695,18 51,18.8954305 51,20 L51,38 C51,39.1045695 50.1045695,40 49,40 L31,40 C29.8954305,40 29,39.1045695 29,38 L29,20 C29,18.8954305 29.8954305,18 31,18 Z" id="Rectangle-19-Copy-5" fill="#E0EBFE"></path>
                    <path d="M47.4789048,29.0016254 C47.1691077,28.978188 46.8984264,29.2109987 46.8749569,29.5203713 C46.7450924,31.2453577 45.9737288,32.8469076 44.7032476,34.0297108 C43.4249432,35.2203265 41.7586101,35.8750088 40.0109161,35.8750088 C38.6496862,35.8750088 37.3338306,35.4796994 36.2057309,34.7297053 C35.2137542,34.071898 34.4142272,33.1765925 33.8775585,32.1250383 L35.4421905,32.1250383 C35.7535523,32.1250383 36.005458,31.8734778 36.005458,31.5625427 C36.005458,31.2516077 35.7535523,31.0000472 35.4421905,31.0000472 L32.5632675,31.0000472 C32.2519058,31.0000472 32,31.2516077 32,31.5625427 L32,34.4375201 C32,34.7484552 32.2519058,35.0000157 32.5632675,35.0000157 C32.8746293,35.0000157 33.1265351,34.7484552 33.1265351,34.4375201 L33.1265351,33.0937807 C33.7383062,34.1203351 34.5753844,34.9984532 35.5814428,35.667198 C36.8957337,36.5390661 38.4259438,37 40.0109161,37 C42.0449377,37 43.9850815,36.237506 45.4714819,34.8531419 C46.9516238,33.4765902 47.848158,31.6125423 47.9983627,29.6047456 C48.0218322,29.295373 47.7902666,29.0250627 47.4789048,29.0016254 Z M47.4367872,23 C47.1254557,23 46.8735744,23.2515625 46.8735744,23.5625 L46.8735744,24.90625 C46.2618627,23.8796875 45.4248659,23.0015625 44.4173408,22.3328125 C43.1047421,21.4609375 41.5731161,21 39.9898624,21 C37.9560383,21 36.0160831,21.7625 34.5298271,23.146875 C33.049829,24.5234375 32.153382,26.3875 32.0016274,28.3953125 C31.9781602,28.7046875 32.2112677,28.975 32.5210348,28.9984375 C32.5351151,29 32.5491954,29 32.5632758,29 C32.8558335,29 33.1014569,28.775 33.1249241,28.4796875 C33.2547759,26.7546875 34.0260646,25.153125 35.2964223,23.9703125 C36.576167,22.7796875 38.2423382,22.125 39.9898624,22.125 C41.35096,22.125 42.6666876,22.5203125 43.7946777,23.2703125 C44.7865581,23.928125 45.5860073,24.8234375 46.122624,25.875 L44.558144,25.875 C44.2468125,25.875 43.9949312,26.1265625 43.9949312,26.4375 C43.9949312,26.7484375 44.2468125,27 44.558144,27 L47.4367872,27 C47.7481187,27 48,26.7484375 48,26.4375 L48,23.5625 C48,23.2515625 47.7481187,23 47.4367872,23 Z" id="Shape" fill="#3B6CFF" fill-rule="nonzero"></path>
                </g>
            </g>
        </g>
    </g>
</svg>