<?xml version="1.0" encoding="UTF-8"?>
<svg width="100px" height="96px" viewBox="0 0 100 96" version="1.1" xmlns="http://www.w3.org/2000/svg" xmlns:xlink="http://www.w3.org/1999/xlink">
    <!-- Generator: Sketch 52.3 (67297) - http://www.bohemiancoding.com/sketch -->
    <title>配置核查</title>
    <desc>Created with Sketch.</desc>
    <defs>
        <linearGradient x1="50%" y1="0%" x2="50%" y2="100%" id="linearGradient-1">
            <stop stop-color="#DDE9FD" offset="0%"></stop>
            <stop stop-color="#C2D5F8" offset="100%"></stop>
        </linearGradient>
        <linearGradient x1="0%" y1="0%" x2="100%" y2="100%" id="linearGradient-2">
            <stop stop-color="#FFFFFF" offset="0%"></stop>
            <stop stop-color="#9EAFFF" offset="100%"></stop>
        </linearGradient>
    </defs>
    <g id="1.1版本" stroke="none" stroke-width="1" fill="none" fill-rule="evenodd">
        <g id="配置工作台1920x1080-copy" transform="translate(-1115.000000, -494.000000)">
            <g id="分组" transform="translate(737.000000, 494.000000)">
                <g id="配置核查" transform="translate(378.000000, 0.000000)">
                    <rect id="矩形-copy-42" fill="#A7ACB7" x="0" y="0" width="100" height="96" rx="4"></rect>
                    <text font-family="PingFangSC-Regular, PingFang SC" font-size="14" font-weight="normal" fill="#FFFFFF">
                        <tspan x="22" y="81">配置核查</tspan>
                    </text>
                    <g id="基准实施" transform="translate(21.000000, 19.000000)">
                        <g id="Group-61">
                            <g id="Group-48">
                                <path d="M2,0 L46,0 C47.1045695,-2.02906125e-16 48,0.8954305 48,2 L48,38 C48,39.1045695 47.1045695,40 46,40 L2,40 C0.8954305,40 1.3527075e-16,39.1045695 0,38 L0,2 C-1.3527075e-16,0.8954305 0.8954305,2.02906125e-16 2,0 Z" id="Rectangle-12" fill="url(#linearGradient-1)" fill-rule="nonzero"></path>
                                <path d="M4,2 L44,2 C45.1045695,2 46,2.8954305 46,4 L46,36 C46,37.1045695 45.1045695,38 44,38 L4,38 C2.8954305,38 2,37.1045695 2,36 L2,4 C2,2.8954305 2.8954305,2 4,2 Z" id="Rectangle-12-Copy-2" fill="url(#linearGradient-2)"></path>
                            </g>
                            <g id="分组-4" transform="translate(6.000000, 6.000000)">
                                <rect id="Rectangle-30" fill="#50E3C2" x="8" y="0" width="8" height="2"></rect>
                                <rect id="Rectangle-30-Copy-2" fill="#50E3C2" x="23.9965491" y="0" width="8" height="2"></rect>
                                <rect id="Rectangle-30-Copy" fill="#5C86FE" x="0.00345086272" y="0" width="6" height="2"></rect>
                                <rect id="Rectangle-30-Copy-3" fill="#5C86FE" x="18" y="0" width="4" height="2"></rect>
                                <rect id="Rectangle-30" fill="#50E3C2" transform="translate(20.000000, 19.000000) scale(-1, 1) translate(-20.000000, -19.000000) " x="16" y="18" width="8" height="2"></rect>
                                <rect id="Rectangle-30-Copy-2" fill="#50E3C2" transform="translate(4.000000, 19.000000) scale(-1, 1) translate(-4.000000, -19.000000) " x="0" y="18" width="8" height="2"></rect>
                                <rect id="Rectangle-30-Copy" fill="#5C86FE" transform="translate(29.000000, 19.000000) scale(-1, 1) translate(-29.000000, -19.000000) " x="26" y="18" width="6" height="2"></rect>
                                <rect id="Rectangle-30-Copy-3" fill="#5C86FE" transform="translate(12.001650, 19.000000) scale(-1, 1) translate(-12.001650, -19.000000) " x="10.0016504" y="18" width="4" height="2"></rect>
                                <rect id="Rectangle-30-Copy" fill="#5C86FE" x="0" y="10" width="8" height="2"></rect>
                                <rect id="Rectangle-30" fill="#50E3C2" x="24" y="4" width="6" height="2"></rect>
                                <rect id="Rectangle-30-Copy" fill="#50E3C2" x="0" y="4" width="14" height="2"></rect>
                                <rect id="Rectangle-30-Copy-3" fill="#5C86FE" x="16" y="4" width="6" height="2"></rect>
                                <rect id="Rectangle-30" fill="#50E3C2" transform="translate(2.000000, 23.000000) scale(-1, 1) translate(-2.000000, -23.000000) " x="0" y="22" width="4" height="2"></rect>
                                <rect id="Rectangle-30-Copy-4" fill="#50E3C2" transform="translate(28.003451, 23.000000) scale(-1, 1) translate(-28.003451, -23.000000) " x="26.0034509" y="22" width="4" height="2"></rect>
                                <rect id="Rectangle-30-Copy" fill="#50E3C2" transform="translate(19.000000, 23.000000) scale(-1, 1) translate(-19.000000, -23.000000) " x="14" y="22" width="10" height="2"></rect>
                                <rect id="Rectangle-30-Copy-3" fill="#5C86FE" transform="translate(9.000000, 23.000000) scale(-1, 1) translate(-9.000000, -23.000000) " x="6" y="22" width="6" height="2"></rect>
                                <rect id="Rectangle-30" fill="#50E3C2" x="20" y="14" width="4" height="2"></rect>
                                <rect id="Rectangle-30-Copy" fill="#50E3C2" x="0" y="14" width="10" height="2"></rect>
                                <rect id="Rectangle-30-Copy-3" fill="#5C86FE" x="12.0034509" y="14" width="6" height="2"></rect>
                            </g>
                        </g>
                        <path d="M39,22 L57,22 C58.1045695,22 59,22.8954305 59,24 L59,42 C59,43.1045695 58.1045695,44 57,44 L39,44 C37.8954305,44 37,43.1045695 37,42 L37,24 C37,22.8954305 37.8954305,22 39,22 Z" id="Rectangle-19-Copy-5" fill="#E0EBFE"></path>
                        <path d="M55.4789048,33.0016254 C55.1691077,32.978188 54.8984264,33.2109987 54.8749569,33.5203713 C54.7450924,35.2453577 53.9737288,36.8469076 52.7032476,38.0297108 C51.4249432,39.2203265 49.7586101,39.8750088 48.0109161,39.8750088 C46.6496862,39.8750088 45.3338306,39.4796994 44.2057309,38.7297053 C43.2137542,38.071898 42.4142272,37.1765925 41.8775585,36.1250383 L43.4421905,36.1250383 C43.7535523,36.1250383 44.005458,35.8734778 44.005458,35.5625427 C44.005458,35.2516077 43.7535523,35.0000472 43.4421905,35.0000472 L40.5632675,35.0000472 C40.2519058,35.0000472 40,35.2516077 40,35.5625427 L40,38.4375201 C40,38.7484552 40.2519058,39.0000157 40.5632675,39.0000157 C40.8746293,39.0000157 41.1265351,38.7484552 41.1265351,38.4375201 L41.1265351,37.0937807 C41.7383062,38.1203351 42.5753844,38.9984532 43.5814428,39.667198 C44.8957337,40.5390661 46.4259438,41 48.0109161,41 C50.0449377,41 51.9850815,40.237506 53.4714819,38.8531419 C54.9516238,37.4765902 55.848158,35.6125423 55.9983627,33.6047456 C56.0218322,33.295373 55.7902666,33.0250627 55.4789048,33.0016254 Z M55.4367872,27 C55.1254557,27 54.8735744,27.2515625 54.8735744,27.5625 L54.8735744,28.90625 C54.2618627,27.8796875 53.4248659,27.0015625 52.4173408,26.3328125 C51.1047421,25.4609375 49.5731161,25 47.9898624,25 C45.9560383,25 44.0160831,25.7625 42.5298271,27.146875 C41.049829,28.5234375 40.153382,30.3875 40.0016274,32.3953125 C39.9781602,32.7046875 40.2112677,32.975 40.5210348,32.9984375 C40.5351151,33 40.5491954,33 40.5632758,33 C40.8558335,33 41.1014569,32.775 41.1249241,32.4796875 C41.2547759,30.7546875 42.0260646,29.153125 43.2964223,27.9703125 C44.576167,26.7796875 46.2423382,26.125 47.9898624,26.125 C49.35096,26.125 50.6666876,26.5203125 51.7946777,27.2703125 C52.7865581,27.928125 53.5860073,28.8234375 54.122624,29.875 L52.558144,29.875 C52.2468125,29.875 51.9949312,30.1265625 51.9949312,30.4375 C51.9949312,30.7484375 52.2468125,31 52.558144,31 L55.4367872,31 C55.7481187,31 56,30.7484375 56,30.4375 L56,27.5625 C56,27.2515625 55.7481187,27 55.4367872,27 Z" id="Shape" fill="#3B6CFF" fill-rule="nonzero"></path>
                    </g>
                </g>
            </g>
        </g>
    </g>
</svg>