<?xml version="1.0" encoding="UTF-8"?>
<svg width="100px" height="96px" viewBox="0 0 100 96" version="1.1" xmlns="http://www.w3.org/2000/svg" xmlns:xlink="http://www.w3.org/1999/xlink">
    <!-- Generator: Sketch 52.3 (67297) - http://www.bohemiancoding.com/sketch -->
    <title>新建模版</title>
    <desc>Created with Sketch.</desc>
    <defs>
        <linearGradient x1="50%" y1="0%" x2="50%" y2="100%" id="linearGradient-1">
            <stop stop-color="#DDE9FD" offset="0%"></stop>
            <stop stop-color="#C2D5F8" offset="100%"></stop>
        </linearGradient>
    </defs>
    <g id="1.1版本" stroke="none" stroke-width="1" fill="none" fill-rule="evenodd">
        <g id="配置工作台1920x1080-copy" transform="translate(-737.000000, -494.000000)">
            <g id="分组" transform="translate(737.000000, 494.000000)">
                <g id="新建模版">
                    <rect id="矩形-copy-38" fill="#A7ACB7" x="0" y="0" width="100" height="96" rx="4"></rect>
                    <text font-family="PingFangSC-Regular, PingFang SC" font-size="14" font-weight="normal" fill="#FFFFFF">
                        <tspan x="22" y="81">新建模版</tspan>
                    </text>
                    <g transform="translate(21.000000, 19.000000)">
                        <rect id="Rectangle-9" fill="url(#linearGradient-1)" x="0" y="-5.68434189e-14" width="48" height="40" rx="4.00896"></rect>
                        <path d="M5.48,3 L42.52,3 C44.4419509,3 46,4.55804907 46,6.48 L46,14 L2,14 L2,6.48 C2,4.55804907 3.55804907,3 5.48,3 Z" id="Rectangle-6" fill="#ECF3FF"></path>
                        <rect id="Rectangle-7" fill="#6FA2FF" x="20" y="7" width="22" height="3"></rect>
                        <circle id="Oval" fill="#6FA2FF" cx="7.5" cy="8.5" r="1.5"></circle>
                        <circle id="Oval" fill="#6FA2FF" cx="14.5" cy="8.5" r="1.5"></circle>
                        <polygon id="Rectangle-6" fill="#ECF3FF" points="2 16 46 16 46 27 2 27"></polygon>
                        <path d="M2,29 L46,29 L46,34.52 C46,36.4419509 44.4419509,38 42.52,38 L5.48,38 C3.55804907,38 2,36.4419509 2,34.52 L2,29 Z" id="Rectangle-6" fill="#ECF3FF"></path>
                        <path d="M7,31 L7.54545455,31 C8.0977393,31 8.54545455,31.4477153 8.54545455,32 L8.54545455,34 C8.54545455,34.5522847 8.0977393,35 7.54545455,35 L7,35 C6.44771525,35 6,34.5522847 6,34 L6,32 C6,31.4477153 6.44771525,31 7,31 Z M12.0909091,31 L12.6363636,31 C13.1886484,31 13.6363636,31.4477153 13.6363636,32 L13.6363636,34 C13.6363636,34.5522847 13.1886484,35 12.6363636,35 L12.0909091,35 C11.5386243,35 11.0909091,34.5522847 11.0909091,34 L11.0909091,32 C11.0909091,31.4477153 11.5386243,31 12.0909091,31 Z M17.1818182,31 L17.7272727,31 C18.2795575,31 18.7272727,31.4477153 18.7272727,32 L18.7272727,34 C18.7272727,34.5522847 18.2795575,35 17.7272727,35 L17.1818182,35 C16.6295334,35 16.1818182,34.5522847 16.1818182,34 L16.1818182,32 C16.1818182,31.4477153 16.6295334,31 17.1818182,31 Z M22.2727273,31 L22.8181818,31 C23.3704666,31 23.8181818,31.4477153 23.8181818,32 L23.8181818,34 C23.8181818,34.5522847 23.3704666,35 22.8181818,35 L22.2727273,35 C21.7204425,35 21.2727273,34.5522847 21.2727273,34 L21.2727273,32 C21.2727273,31.4477153 21.7204425,31 22.2727273,31 Z M27.3636364,31 L27.9090909,31 C28.4613757,31 28.9090909,31.4477153 28.9090909,32 L28.9090909,34 C28.9090909,34.5522847 28.4613757,35 27.9090909,35 L27.3636364,35 C26.8113516,35 26.3636364,34.5522847 26.3636364,34 L26.3636364,32 C26.3636364,31.4477153 26.8113516,31 27.3636364,31 Z M32.4545455,31 L33,31 C33.5522847,31 34,31.4477153 34,32 L34,34 C34,34.5522847 33.5522847,35 33,35 L32.4545455,35 C31.9022607,35 31.4545455,34.5522847 31.4545455,34 L31.4545455,32 C31.4545455,31.4477153 31.9022607,31 32.4545455,31 Z" id="Combined-Shape" fill="#6FA2FF"></path>
                        <polygon id="Rectangle-7" fill="#6FA2FF" points="20 20 42 20 42 23 20 23"></polygon>
                        <circle id="Oval" fill="#6FA2FF" cx="7.5" cy="21.5" r="1.5"></circle>
                        <circle id="Oval" fill="#6FA2FF" cx="14.5" cy="21.5" r="1.5"></circle>
                        <path d="M39,22 L57,22 C58.1045695,22 59,22.8954305 59,24 L59,42 C59,43.1045695 58.1045695,44 57,44 L39,44 C37.8954305,44 37,43.1045695 37,42 L37,24 C37,22.8954305 37.8954305,22 39,22 Z" id="Rectangle-19-Copy-5" fill="#E0EBFE"></path>
                        <path d="M48,25 C43.58125,25 40,28.58125 40,33 C40,37.41875 43.58125,41 48,41 C52.41875,41 56,37.41875 56,33 C56,28.58125 52.41875,25 48,25 Z M52.7861538,37.7861538 C52.1646154,38.4076923 51.44,38.8969231 50.6338462,39.2369231 C49.8,39.5907692 48.9138462,39.7692308 48,39.7692308 C47.0861538,39.7692308 46.2,39.5907692 45.3661538,39.2384615 C44.56,38.8969231 43.8369231,38.4092308 43.2138462,37.7876923 C42.5923077,37.1661538 42.1030769,36.4415385 41.7630769,35.6353846 C41.4092308,34.8 41.2307692,33.9138462 41.2307692,33 C41.2307692,32.0861538 41.4092308,31.2 41.7615385,30.3661538 C42.1030769,29.56 42.5907692,28.8369231 43.2123077,28.2138462 C43.8338462,27.5923077 44.5584615,27.1030769 45.3646154,26.7630769 C46.2,26.4092308 47.0861538,26.2307692 48,26.2307692 C48.9138462,26.2307692 49.8,26.4092308 50.6338462,26.7615385 C51.44,27.1030769 52.1630769,27.5907692 52.7861538,28.2123077 C53.4076923,28.8338462 53.8969231,29.5584615 54.2369231,30.3646154 C54.5907692,31.2 54.7692308,32.0861538 54.7692308,33 C54.7692308,33.9138462 54.5907692,34.8 54.2384615,35.6338462 C53.8969231,36.44 53.4092308,37.1646154 52.7861538,37.7861538 Z M51.7019231,32.4003017 L48.6141827,32.4003017 L48.6141827,29.3004525 C48.6141827,28.9642836 48.3432692,28.6923077 48.0084135,28.6923077 C47.6735577,28.6923077 47.4026442,28.9642836 47.4026442,29.3004525 L47.4026442,32.4003017 L44.2980769,32.4003017 C43.9632212,32.4003017 43.6923077,32.6722775 43.6923077,33.0084465 C43.6923077,33.3446154 43.9632212,33.6165913 44.2980769,33.6165913 L47.4026442,33.6165913 L47.4026442,36.6995475 C47.4026442,37.0357164 47.6735577,37.3076923 48.0084135,37.3076923 C48.3432692,37.3076923 48.6141827,37.0357164 48.6141827,36.6995475 L48.6141827,33.6165913 L51.7019231,33.6165913 C52.0367788,33.6165913 52.3076923,33.3446154 52.3076923,33.0084465 C52.3076923,32.6722775 52.0367788,32.4003017 51.7019231,32.4003017 Z" id="Shape" fill="#588CFF" fill-rule="nonzero"></path>
                    </g>
                </g>
            </g>
        </g>
    </g>
</svg>