<?xml version="1.0" encoding="UTF-8"?>
<svg width="100px" height="100px" viewBox="0 0 100 100" version="1.1" xmlns="http://www.w3.org/2000/svg" xmlns:xlink="http://www.w3.org/1999/xlink">
    <!-- Generator: Sketch 52.3 (67297) - http://www.bohemiancoding.com/sketch -->
    <title>漏洞扫描</title>
    <desc>Created with Sketch.</desc>
    <defs>
        <linearGradient x1="50%" y1="0%" x2="50%" y2="100%" id="linearGradient-1">
            <stop stop-color="#DDE9FD" offset="0%"></stop>
            <stop stop-color="#C2D5F8" offset="100%"></stop>
        </linearGradient>
        <path d="M4.8,6 L43.2,6 C44.7463973,6 46,7.2536027 46,8.8 L46,35.2 C46,36.7463973 44.7463973,38 43.2,38 L4.8,38 C3.2536027,38 2,36.7463973 2,35.2 L2,8.8 C2,7.2536027 3.2536027,6 4.8,6 Z" id="path-2"></path>
    </defs>
    <g id="1.1版本" stroke="none" stroke-width="1" fill="none" fill-rule="evenodd">
        <g id="漏洞工作台1920x1080-copy" transform="translate(-800.000000, -678.000000)">
            <g id="分组-4" transform="translate(800.000000, 490.000000)">
                <g id="漏洞扫描" transform="translate(0.000000, 188.000000)">
                    <rect id="矩形-copy-32" fill="#A7ACB7" x="0" y="0" width="100" height="100" rx="4"></rect>
                    <text font-family="PingFangSC-Regular, PingFang SC" font-size="14" font-weight="normal" fill="#FFFFFF">
                        <tspan x="22" y="85">漏洞扫描</tspan>
                    </text>
                    <g id="漏洞登记" transform="translate(21.000000, 17.000000)">
                        <g id="Group-2">
                            <path d="M2.8,0 L45.2,0 C46.7463973,-4.4044987e-15 48,1.2536027 48,2.8 L48,37.2 C48,38.7463973 46.7463973,40 45.2,40 L2.8,40 C1.2536027,40 1.52164668e-15,38.7463973 1.33226763e-15,37.2 L-4.4408921e-16,2.8 C-6.3346826e-16,1.2536027 1.2536027,1.61633621e-15 2.8,1.33226763e-15 Z" id="Rectangle-2" fill="url(#linearGradient-1)"></path>
                            <circle id="Oval-2" fill="#BBCAE8" cx="3" cy="3" r="1"></circle>
                            <circle id="Oval-2" fill="#BBCAE8" cx="6" cy="3" r="1"></circle>
                            <circle id="Oval-2" fill="#BBCAE8" cx="9" cy="3" r="1"></circle>
                            <mask id="mask-3" fill="white">
                                <use xlink:href="#path-2"></use>
                            </mask>
                            <use id="Rectangle-2-Copy" fill="#FFFFFF" xlink:href="#path-2"></use>
                            <path d="M29.603132,23.6818823 L29.603132,21.8267124 C30.9979166,21.651718 32,20.2895063 32,18.6665186 C31.9994495,18.3465188 31.7726523,18.0872643 31.4927147,18.086635 C31.212777,18.0872643 30.9859798,18.3465188 30.9854293,18.6665186 C30.9854293,19.6810289 30.4656172,20.4930946 29.603132,20.6669453 L29.603132,20.2609124 C29.603132,19.2178083 28.5014204,18.1583254 27.435821,17.6653672 C27.4118074,15.462496 25.9520981,14 24,14 C22.0969295,14 20.6906385,15.6813192 20.5885811,17.7972651 C19.2708398,18.2604857 18.4053763,19.0725514 18.4053763,20.2609124 L18.4053763,20.6086138 C17.6243075,20.3719763 17.0089469,19.5615847 17.0135701,18.6379247 C17.0130196,18.3179249 16.7862224,18.0586705 16.5062848,18.0580412 C16.226738,18.0592986 16.0005481,18.3183698 16,18.6379247 C16,20.202581 17.0866345,21.5361988 18.4053763,21.7683809 L18.4053763,23.6521447 C18.4053763,23.9998461 18.4313909,24.3475474 18.4814191,24.666655 C17.183371,24.9751755 16.1791683,26.2815646 16.1770996,27.7971112 C16.1770996,28.1173625 16.4052279,28.3769948 16.684385,28.3769947 C16.9643226,28.3763655 17.1911198,28.117111 17.1916703,27.7971112 C17.1916703,26.8123385 17.898091,25.9716789 18.735562,25.7978282 C19.537699,28.320778 21.6516662,30.0002788 24,29.9999825 C26.3584185,30.0062904 28.4872453,28.3096227 29.2739469,25.7680906 C30.195327,25.85645 30.7886418,26.7401889 30.7833156,27.7971112 C30.7833156,28.1173625 31.0104434,28.3769948 31.2896004,28.3769947 C31.5693107,28.3757408 31.7957888,28.1168512 31.7968857,27.7971112 C31.7968857,26.2038611 30.8708451,24.8988372 29.5270893,24.666655 C29.5771174,24.3475475 29.603132,23.9998461 29.603132,23.6818823 Z M24.0054997,14.8707483 C25.2742134,14.8707483 26.5712502,16.0372087 26.6776661,17.5026476 C25.9303777,17.128917 25.0396556,16.9420517 24.0054997,16.9420517 C22.986475,16.9420517 22.0957529,17.128917 21.3333333,17.5026476 C21.7487781,15.9773432 22.7367861,14.8707483 24.0054997,14.8707483 Z" id="形状" fill="#5A92FF" fill-rule="nonzero" mask="url(#mask-3)"></path>
                        </g>
                        <path d="M39,22 L57,22 C58.1045695,22 59,22.8954305 59,24 L59,42 C59,43.1045695 58.1045695,44 57,44 L39,44 C37.8954305,44 37,43.1045695 37,42 L37,24 C37,22.8954305 37.8954305,22 39,22 Z" id="Rectangle-19-Copy-5" fill="#E0EBFE"></path>
                        <path d="M55.8122788,39.9017857 L52.1391159,36.2303571 C53.1230307,35.0428571 53.7140939,33.5196429 53.7140939,31.8571429 C53.7140939,28.0696429 50.644494,25 46.8570469,25 C43.0695999,25 40,28.0696429 40,31.8571429 C40,35.6446429 43.0695999,38.7142857 46.8570469,38.7142857 C48.5195237,38.7142857 50.0427167,38.1232143 51.2302001,37.1392857 L54.903363,40.8125 C55.0283612,40.9375 55.1926446,41 55.3587137,41 C55.5247828,41 55.6872806,40.9375 55.8140645,40.8125 C56.0622753,40.5607143 56.0622753,40.1535714 55.8122788,39.9017857 Z M48.9242604,36.8727811 C48.2426036,37.1621302 47.5183432,37.3076923 46.7692308,37.3076923 C46.0201183,37.3076923 45.295858,37.1621302 44.6142012,36.8727811 C43.9556213,36.5940828 43.3627219,36.1946746 42.8532544,35.6852071 C42.343787,35.1757396 41.9443787,34.5828402 41.6656805,33.9242604 C41.3763314,33.2426036 41.2307692,32.5183432 41.2307692,31.7692308 C41.2307692,31.0201183 41.3763314,30.295858 41.6656805,29.6142012 C41.9443787,28.9556213 42.343787,28.3627219 42.8532544,27.8532544 C43.3627219,27.343787 43.9556213,26.9443787 44.6142012,26.6656805 C45.295858,26.3763314 46.0201183,26.2307692 46.7692308,26.2307692 C47.5183432,26.2307692 48.2426036,26.3763314 48.9242604,26.6656805 C49.5828402,26.9443787 50.1757396,27.343787 50.6852071,27.8532544 C51.1946746,28.3627219 51.5940828,28.9556213 51.8727811,29.6142012 C52.1621302,30.295858 52.3076923,31.0201183 52.3076923,31.7692308 C52.3076923,32.5183432 52.1621302,33.2426036 51.8727811,33.9242604 C51.5940828,34.5828402 51.1946746,35.1757396 50.6852071,35.6852071 C50.1757396,36.1946746 49.5846154,36.5940828 48.9242604,36.8727811 Z" id="Shape" fill="#3B6CFF" fill-rule="nonzero"></path>
                    </g>
                </g>
            </g>
        </g>
    </g>
</svg>