<?xml version="1.0" encoding="UTF-8"?>
<svg width="100px" height="100px" viewBox="0 0 100 100" version="1.1" xmlns="http://www.w3.org/2000/svg" xmlns:xlink="http://www.w3.org/1999/xlink">
    <!-- Generator: Sketch 52.3 (67297) - http://www.bohemiancoding.com/sketch -->
    <title>突发漏洞登记</title>
    <desc>Created with Sketch.</desc>
    <defs>
        <linearGradient x1="50%" y1="0%" x2="50%" y2="100%" id="linearGradient-1">
            <stop stop-color="#DDE9FD" offset="0%"></stop>
            <stop stop-color="#C2D5F8" offset="100%"></stop>
        </linearGradient>
        <linearGradient x1="50%" y1="0%" x2="50%" y2="100%" id="linearGradient-2">
            <stop stop-color="#FFC485" offset="0%"></stop>
            <stop stop-color="#FF5150" offset="100%"></stop>
        </linearGradient>
        <path d="M4.8,6 L43.2,6 C44.7463973,6 46,7.2536027 46,8.8 L46,35.2 C46,36.7463973 44.7463973,38 43.2,38 L4.8,38 C3.2536027,38 2,36.7463973 2,35.2 L2,8.8 C2,7.2536027 3.2536027,6 4.8,6 Z" id="path-3"></path>
    </defs>
    <g id="1.1版本" stroke="none" stroke-width="1" fill="none" fill-rule="evenodd">
        <g id="漏洞工作台1920x1080-copy" transform="translate(-800.000000, -490.000000)">
            <g id="分组-4" transform="translate(800.000000, 490.000000)">
                <g id="突发漏洞登记">
                    <rect id="矩形-copy-32" fill="#A7ACB7" x="0" y="0" width="100" height="100" rx="4"></rect>
                    <text font-family="PingFangSC-Regular, PingFang SC" font-size="14" font-weight="normal" fill="#FFFFFF">
                        <tspan x="8" y="85">突发漏洞登记</tspan>
                    </text>
                    <g id="漏洞登记" transform="translate(21.000000, 17.000000)">
                        <g id="Group-2">
                            <path d="M2.8,0 L45.2,0 C46.7463973,-4.4044987e-15 48,1.2536027 48,2.8 L48,37.2 C48,38.7463973 46.7463973,40 45.2,40 L2.8,40 C1.2536027,40 1.52164668e-15,38.7463973 1.33226763e-15,37.2 L-4.4408921e-16,2.8 C-6.3346826e-16,1.2536027 1.2536027,1.61633621e-15 2.8,1.33226763e-15 Z" id="Rectangle-2" fill="url(#linearGradient-1)"></path>
                            <circle id="Oval-2" fill="#BBCAE8" cx="3" cy="3" r="1"></circle>
                            <circle id="Oval-2" fill="#BBCAE8" cx="6" cy="3" r="1"></circle>
                            <circle id="Oval-2" fill="#BBCAE8" cx="9" cy="3" r="1"></circle>
                            <mask id="mask-4" fill="white">
                                <use xlink:href="#path-3"></use>
                            </mask>
                            <path stroke="url(#linearGradient-2)" stroke-width="1.4" d="M4.8,6.7 C3.64020203,6.7 2.7,7.64020203 2.7,8.8 L2.7,35.2 C2.7,36.359798 3.64020203,37.3 4.8,37.3 L43.2,37.3 C44.359798,37.3 45.3,36.359798 45.3,35.2 L45.3,8.8 C45.3,7.64020203 44.359798,6.7 43.2,6.7 L4.8,6.7 Z"></path>
                            <path d="M29.603132,23.6818823 L29.603132,21.8267124 C30.9979166,21.651718 32,20.2895063 32,18.6665186 C31.9994495,18.3465188 31.7726523,18.0872643 31.4927147,18.086635 C31.212777,18.0872643 30.9859798,18.3465188 30.9854293,18.6665186 C30.9854293,19.6810289 30.4656172,20.4930946 29.603132,20.6669453 L29.603132,20.2609124 C29.603132,19.2178083 28.5014204,18.1583254 27.435821,17.6653672 C27.4118074,15.462496 25.9520981,14 24,14 C22.0969295,14 20.6906385,15.6813192 20.5885811,17.7972651 C19.2708398,18.2604857 18.4053763,19.0725514 18.4053763,20.2609124 L18.4053763,20.6086138 C17.6243075,20.3719763 17.0089469,19.5615847 17.0135701,18.6379247 C17.0130196,18.3179249 16.7862224,18.0586705 16.5062848,18.0580412 C16.226738,18.0592986 16.0005481,18.3183698 16,18.6379247 C16,20.202581 17.0866345,21.5361988 18.4053763,21.7683809 L18.4053763,23.6521447 C18.4053763,23.9998461 18.4313909,24.3475474 18.4814191,24.666655 C17.183371,24.9751755 16.1791683,26.2815646 16.1770996,27.7971112 C16.1770996,28.1173625 16.4052279,28.3769948 16.684385,28.3769947 C16.9643226,28.3763655 17.1911198,28.117111 17.1916703,27.7971112 C17.1916703,26.8123385 17.898091,25.9716789 18.735562,25.7978282 C19.537699,28.320778 21.6516662,30.0002788 24,29.9999825 C26.3584185,30.0062904 28.4872453,28.3096227 29.2739469,25.7680906 C30.195327,25.85645 30.7886418,26.7401889 30.7833156,27.7971112 C30.7833156,28.1173625 31.0104434,28.3769948 31.2896004,28.3769947 C31.5693107,28.3757408 31.7957888,28.1168512 31.7968857,27.7971112 C31.7968857,26.2038611 30.8708451,24.8988372 29.5270893,24.666655 C29.5771174,24.3475475 29.603132,23.9998461 29.603132,23.6818823 Z M24.0054997,14.8707483 C25.2742134,14.8707483 26.5712502,16.0372087 26.6776661,17.5026476 C25.9303777,17.128917 25.0396556,16.9420517 24.0054997,16.9420517 C22.986475,16.9420517 22.0957529,17.128917 21.3333333,17.5026476 C21.7487781,15.9773432 22.7367861,14.8707483 24.0054997,14.8707483 Z" id="形状" fill="#5A92FF" fill-rule="nonzero" mask="url(#mask-4)"></path>
                        </g>
                        <path d="M39,22 L57,22 C58.1045695,22 59,22.8954305 59,24 L59,42 C59,43.1045695 58.1045695,44 57,44 L39,44 C37.8954305,44 37,43.1045695 37,42 L37,24 C37,22.8954305 37.8954305,22 39,22 Z" id="Rectangle-19-Copy-5" fill="#E0EBFE"></path>
                        <path d="M55.3575459,39.7137168 L40.642874,39.7137168 C40.2875075,39.7137168 40,40.0012143 40,40.3565684 C40,40.7119225 40.2875075,40.99942 40.642874,40.99942 L55.3575459,40.99942 C55.7129124,40.99942 56.0004199,40.7119225 56.0004199,40.3565684 C56.0004199,40.0012143 55.7129124,39.7137168 55.3575459,39.7137168 Z M44.1429659,37.6065922 L48.3484334,35.8262504 C48.4162923,35.7976793 48.4770082,35.7566082 48.530581,35.7048229 L55.6236243,28.6120271 C56.1254232,28.1102457 56.1289947,27.2923957 55.6271958,26.7906143 L54.2110872,25.3745551 C53.7092884,24.8727737 52.8914097,24.8763451 52.3896109,25.3781265 L45.2965676,32.4709223 C45.2447805,32.5227076 45.203708,32.585207 45.1751358,32.6530636 L43.3929462,36.8565987 C43.2929436,37.0923109 43.3625882,37.3298089 43.5143779,37.483379 C43.6661676,37.6369491 43.9054596,37.7065913 44.1429659,37.6065922 Z M53.2985633,26.2870472 L53.3021348,26.2834758 L54.7164576,27.6977493 L54.7128861,27.7013207 L53.6057142,28.808454 L52.1913914,27.3941805 L53.2985633,26.2870472 Z M46.3037369,33.2816296 L51.282439,28.3031012 L52.6967618,29.7173747 L47.7180597,34.6959031 L45.2644239,35.7351798 L46.3037369,33.2816296 Z" id="Shape" fill="#3B6CFF" fill-rule="nonzero"></path>
                    </g>
                </g>
            </g>
        </g>
    </g>
</svg>