<?xml version="1.0" encoding="UTF-8"?>
<svg width="100px" height="100px" viewBox="0 0 100 100" version="1.1" xmlns="http://www.w3.org/2000/svg" xmlns:xlink="http://www.w3.org/1999/xlink">
    <!-- Generator: Sketch 52.3 (67297) - http://www.bohemiancoding.com/sketch -->
    <title>漏洞修复 copy</title>
    <desc>Created with Sketch.</desc>
    <defs>
        <circle id="path-1" cx="24" cy="24" r="24"></circle>
    </defs>
    <g id="Page-1" stroke="none" stroke-width="1" fill="none" fill-rule="evenodd">
        <g id="漏洞工作台" transform="translate(-1240.000000, -678.000000)">
            <g id="分组-4" transform="translate(800.000000, 490.000000)">
                <g id="漏洞修复-copy" transform="translate(440.000000, 188.000000)">
                    <rect id="矩形-copy-39" fill="#A7ACB7" x="0" y="0" width="100" height="100" rx="4"></rect>
                    <text id="漏洞处置" font-family="PingFangSC-Regular, PingFang SC" font-size="14" font-weight="normal" fill="#FFFFFF">
                        <tspan x="22" y="85">漏洞处置</tspan>
                    </text>
                    <g id="漏洞修复" transform="translate(21.000000, 12.000000)">
                        <g id="Group-26">
                            <g id="101001011010101001">
                                <mask id="mask-2" fill="white">
                                    <use xlink:href="#path-1"></use>
                                </mask>
                                <use id="Mask" stroke="#5A92FF" stroke-width="2" fill="#FFFFFF" xlink:href="#path-1"></use>
                            </g>
                            <path d="M31.003915,25.8921176 L31.003915,23.8050515 C32.7473957,23.6081827 34,22.0756946 34,20.2498334 C33.9993119,19.8898336 33.7158153,19.5981724 33.3658933,19.5974644 C33.0159713,19.5981724 32.7324748,19.8898336 32.7317866,20.2498334 C32.7317866,21.3911575 32.0820215,22.3047314 31.003915,22.5003135 L31.003915,22.0435265 C31.003915,20.8700343 29.6267755,19.6781161 28.2947762,19.1235381 C28.2647593,16.645308 26.4401226,15 24,15 C21.6211619,15 19.8632981,16.8914841 19.7357264,19.2719233 C18.0885498,19.7930464 17.0067204,20.7066204 17.0067204,22.0435265 L17.0067204,22.4346906 C16.0303844,22.1684733 15.2611837,21.2567828 15.2669627,20.2176653 C15.2662745,19.8576655 14.982778,19.5660043 14.632856,19.5652963 C14.2834225,19.566711 14.0006852,19.858166 14,20.2176653 C14,21.9779036 15.3582931,23.4782236 17.0067204,23.7394286 L17.0067204,25.8586628 C17.0067204,26.2498268 17.0392387,26.6409909 17.1017739,26.9999869 C15.4792137,27.3470724 14.2239604,28.8167602 14.2213745,30.5217501 C14.2213745,30.8820328 14.5065349,31.1741191 14.8554812,31.1741191 C15.2054032,31.1734111 15.4888997,30.8817499 15.4895879,30.5217501 C15.4895879,29.4138808 16.3726137,28.4681388 17.4194526,28.2725568 C18.4221238,31.1108752 21.0645827,33.0003136 24,32.9999803 C26.9480231,33.0070767 29.6090566,31.0983255 30.5924336,28.2391019 C31.7441588,28.3385062 32.4858023,29.3327125 32.4791445,30.5217501 C32.4791445,30.8820328 32.7630542,31.1741191 33.1120005,31.1741191 C33.4616384,31.1727085 33.744736,30.8814576 33.7461072,30.5217501 C33.7461072,28.7293437 32.5885564,27.2611918 30.9088616,26.9999869 C30.9713967,26.6409909 31.003915,26.2498268 31.003915,25.8921176 Z M24.0068746,15.9795918 C25.5927667,15.9795918 27.2140628,17.2918598 27.3470826,18.9404786 C26.4129722,18.5200317 25.2995695,18.3098082 24.0068746,18.3098082 C22.7330938,18.3098082 21.6196911,18.5200317 20.6666667,18.9404786 C21.1859726,17.2245112 22.4209826,15.9795918 24.0068746,15.9795918 Z" id="形状" fill="#5A92FF" fill-rule="nonzero"></path>
                        </g>
                        <path d="M39,31 L57,31 C58.1045695,31 59,31.8954305 59,33 L59,51 C59,52.1045695 58.1045695,53 57,53 L39,53 C37.8954305,53 37,52.1045695 37,51 L37,33 C37,31.8954305 37.8954305,31 39,31 Z" id="Rectangle-19-Copy-5" fill="#E0EBFE"></path>
                        <g id="peizhixiufu" transform="translate(40.000000, 34.000000)" fill="#3B6CFF" fill-rule="nonzero">
                            <path d="M4.10318369,16 C3.50319272,16 2.9000768,15.868752 2.3360228,15.600006 C2.18758753,15.5281321 2.08133913,15.3890717 2.05477703,15.2265741 C2.02665245,15.0656391 2.07977666,14.8984541 2.19696239,14.7828308 L3.80475067,13.1750425 C4.07505909,12.9047341 4.07505909,12.4656782 3.80475067,12.1953698 C3.53444225,11.9250614 3.09694883,11.9250614 2.82664041,12.1953698 L1.21728964,13.8047206 C1.10010391,13.9219063 0.936043875,13.9750305 0.771983844,13.9469059 C0.611048766,13.9187813 0.471988359,13.8140954 0.400114437,13.6656602 C-0.348311797,12.0953713 -0.0264416406,10.2172746 1.20166487,8.98916808 C2.22352448,7.96730847 3.68287752,7.56418953 5.07035661,7.90168445 L7.9000015,5.07047708 C7.56406906,3.6814355 7.96718798,2.22364495 8.98748513,1.20178534 C10.2171541,-0.0263211562 12.0968133,-0.348191312 13.6624147,0.398672438 C13.81085,0.470546359 13.9170984,0.609606766 13.9436605,0.770541828 C13.9717851,0.933039375 13.9186609,1.09866189 13.8014751,1.21584763 L12.1936868,2.82519839 C12.0640013,2.95488394 11.9921274,3.12831883 11.9921274,3.31425353 C11.9921274,3.50018823 12.0640013,3.67362313 12.1936868,3.80487114 C12.4639953,4.07517956 12.9030512,4.07517956 13.1733596,3.80487114 L14.7811479,2.19552038 C14.8983336,2.07833464 15.0639561,2.02521044 15.2264537,2.05333502 C15.3873888,2.08145959 15.5264492,2.18614552 15.5983231,2.33458078 C16.3467493,3.90330716 16.0233167,5.78140388 14.7952102,7.00951039 C13.774913,8.03137 12.318685,8.43605141 10.9280809,8.09699402 L8.09843602,10.9297638 C8.43436845,12.3188054 8.03124953,13.776596 7.01095239,14.7984556 C6.22502672,15.5843813 5.17035511,16 4.10318369,16 Z M3.49225537,14.9234537 C4.48755289,15.1297006 5.55003689,14.8250177 6.29377569,14.0797164 C7.11876327,13.2547288 7.40625894,12.0500595 7.04688936,10.9375762 C6.98907773,10.756329 7.03595203,10.556332 7.170325,10.421959 L10.4218385,7.17044545 C10.557774,7.03607248 10.7562085,6.9876357 10.9374558,7.04700981 C12.0483765,7.40481692 13.2530459,7.11732125 14.079596,6.29389616 C14.8217723,5.55171983 15.1248927,4.49236078 14.9233332,3.49393833 L13.8920988,4.5251728 C13.2249213,5.1892253 12.1421251,5.1892253 11.4765102,4.5251728 C11.15464,4.20330264 10.9780802,3.77362161 10.9780802,3.315816 C10.9780802,2.85801039 11.1562025,2.42989184 11.4765102,2.10958417 L12.5077446,1.0783497 C11.5124471,0.878352719 10.4499631,1.17991067 9.70622431,1.922087 C8.88123673,2.74551209 8.59374106,3.94861898 8.95311064,5.0626647 C9.01092227,5.24391197 8.96404797,5.44390897 8.829675,5.57828194 L5.57816147,8.82979547 C5.4437885,8.96573092 5.2437915,9.01260522 5.06254423,8.95323111 C3.94849852,8.59386152 2.74382916,8.88291967 1.92040405,9.70634478 C1.17822772,10.4485211 0.875107281,11.5078802 1.07666675,12.5078651 L2.10790123,11.4766306 C2.75007906,10.8344528 3.87974955,10.8344528 4.52192737,11.4766306 C4.84379753,11.7985008 5.02035737,12.2281818 5.02035737,12.6844249 C5.02035737,13.140668 4.84379753,13.5703491 4.52192737,13.8922192 L3.49225537,14.9234537 Z" id="形状"></path>
                        </g>
                    </g>
                </g>
            </g>
        </g>
    </g>
</svg>