<?xml version="1.0" encoding="UTF-8"?>
<svg width="100px" height="100px" viewBox="0 0 100 100" version="1.1" xmlns="http://www.w3.org/2000/svg" xmlns:xlink="http://www.w3.org/1999/xlink">
    <!-- Generator: Sketch 52.3 (67297) - http://www.bohemiancoding.com/sketch -->
    <title>漏洞分析 copy</title>
    <desc>Created with Sketch.</desc>
    <defs>
        <linearGradient x1="50%" y1="0%" x2="50%" y2="100%" id="linearGradient-1">
            <stop stop-color="#6DA5FF" offset="0%"></stop>
            <stop stop-color="#3B6CFF" offset="100%"></stop>
        </linearGradient>
        <linearGradient x1="50%" y1="0%" x2="50%" y2="100%" id="linearGradient-2">
            <stop stop-color="#DDE9FD" offset="0%"></stop>
            <stop stop-color="#C2D5F8" offset="100%"></stop>
        </linearGradient>
        <path d="M4.8,6 L43.2,6 C44.7463973,6 46,7.2536027 46,8.8 L46,35.2 C46,36.7463973 44.7463973,38 43.2,38 L4.8,38 C3.2536027,38 2,36.7463973 2,35.2 L2,8.8 C2,7.2536027 3.2536027,6 4.8,6 Z" id="path-3"></path>
    </defs>
    <g id="Page-1" stroke="none" stroke-width="1" fill="none" fill-rule="evenodd">
        <g id="漏洞工作台" transform="translate(-1020.000000, -678.000000)">
            <g id="分组-4" transform="translate(800.000000, 490.000000)">
                <g id="漏洞分析-copy" transform="translate(220.000000, 188.000000)">
                    <rect id="矩形-copy-34" fill="url(#linearGradient-1)" x="0" y="0" width="100" height="100" rx="4"></rect>
                    <text id="漏洞信息" font-family="PingFangSC-Regular, PingFang SC" font-size="14" font-weight="normal" fill="#FFFFFF">
                        <tspan x="22" y="85">漏洞信息</tspan>
                    </text>
                    <g id="漏洞分析" transform="translate(21.000000, 17.000000)">
                        <g id="Group-2">
                            <path d="M2.8,0 L45.2,0 C46.7463973,-4.4044987e-15 48,1.2536027 48,2.8 L48,37.2 C48,38.7463973 46.7463973,40 45.2,40 L2.8,40 C1.2536027,40 1.52164668e-15,38.7463973 1.33226763e-15,37.2 L-4.4408921e-16,2.8 C-6.3346826e-16,1.2536027 1.2536027,1.61633621e-15 2.8,1.33226763e-15 Z" id="Rectangle-2" fill="url(#linearGradient-2)"></path>
                            <circle id="Oval-2" fill="#BBCAE8" cx="3" cy="3" r="1"></circle>
                            <circle id="Oval-2" fill="#BBCAE8" cx="6" cy="3" r="1"></circle>
                            <circle id="Oval-2" fill="#BBCAE8" cx="9" cy="3" r="1"></circle>
                            <mask id="mask-4" fill="white">
                                <use xlink:href="#path-3"></use>
                            </mask>
                            <use id="Rectangle-2-Copy" fill="#FFFFFF" xlink:href="#path-3"></use>
                            <path d="M29.603132,23.6818823 L29.603132,21.8267124 C30.9979166,21.651718 32,20.2895063 32,18.6665186 C31.9994495,18.3465188 31.7726523,18.0872643 31.4927147,18.086635 C31.212777,18.0872643 30.9859798,18.3465188 30.9854293,18.6665186 C30.9854293,19.6810289 30.4656172,20.4930946 29.603132,20.6669453 L29.603132,20.2609124 C29.603132,19.2178083 28.5014204,18.1583254 27.435821,17.6653672 C27.4118074,15.462496 25.9520981,14 24,14 C22.0969295,14 20.6906385,15.6813192 20.5885811,17.7972651 C19.2708398,18.2604857 18.4053763,19.0725514 18.4053763,20.2609124 L18.4053763,20.6086138 C17.6243075,20.3719763 17.0089469,19.5615847 17.0135701,18.6379247 C17.0130196,18.3179249 16.7862224,18.0586705 16.5062848,18.0580412 C16.226738,18.0592986 16.0005481,18.3183698 16,18.6379247 C16,20.202581 17.0866345,21.5361988 18.4053763,21.7683809 L18.4053763,23.6521447 C18.4053763,23.9998461 18.4313909,24.3475474 18.4814191,24.666655 C17.183371,24.9751755 16.1791683,26.2815646 16.1770996,27.7971112 C16.1770996,28.1173625 16.4052279,28.3769948 16.684385,28.3769947 C16.9643226,28.3763655 17.1911198,28.117111 17.1916703,27.7971112 C17.1916703,26.8123385 17.898091,25.9716789 18.735562,25.7978282 C19.537699,28.320778 21.6516662,30.0002788 24,29.9999825 C26.3584185,30.0062904 28.4872453,28.3096227 29.2739469,25.7680906 C30.195327,25.85645 30.7886418,26.7401889 30.7833156,27.7971112 C30.7833156,28.1173625 31.0104434,28.3769948 31.2896004,28.3769947 C31.5693107,28.3757408 31.7957888,28.1168512 31.7968857,27.7971112 C31.7968857,26.2038611 30.8708451,24.8988372 29.5270893,24.666655 C29.5771174,24.3475475 29.603132,23.9998461 29.603132,23.6818823 Z M24.0054997,14.8707483 C25.2742134,14.8707483 26.5712502,16.0372087 26.6776661,17.5026476 C25.9303777,17.128917 25.0396556,16.9420517 24.0054997,16.9420517 C22.986475,16.9420517 22.0957529,17.128917 21.3333333,17.5026476 C21.7487781,15.9773432 22.7367861,14.8707483 24.0054997,14.8707483 Z" id="形状" fill="#5A92FF" fill-rule="nonzero" mask="url(#mask-4)"></path>
                        </g>
                        <path d="M39,22 L57,22 C58.1045695,22 59,22.8954305 59,24 L59,42 C59,43.1045695 58.1045695,44 57,44 L39,44 C37.8954305,44 37,43.1045695 37,42 L37,24 C37,22.8954305 37.8954305,22 39,22 Z" id="Rectangle-19-Copy-5" fill="#E0EBFE"></path>
                        <path d="M54.6276402,29.715625 L49.5569752,25.3328125 C49.474837,25.2625 49.3853977,25.203125 49.2886571,25.153125 C49.263103,25.140625 49.2375489,25.128125 49.2101695,25.1171875 C49.1937419,25.109375 49.1754889,25.103125 49.1590613,25.096875 C48.9947849,25.034375 48.8140808,25 48.6297262,25 L42.3324641,25 C41.6059974,25 41,25.503125 41,26.125 L41,39.875 C41,40.496875 41.6059974,41 42.3324641,41 L53.7040417,41 C54.4305085,41 55,40.496875 55,39.875 L55,30.5078125 C55,30.2109375 54.8722295,29.9265625 54.6276402,29.715625 Z M49.1666667,26.1428571 L53.3666667,29.8351648 L49.1666667,29.8351648 L49.1666667,26.1428571 Z M53.8333333,39.8571429 L42.1666667,39.8571429 L42.1666667,26.1428571 L47.9906367,26.1428571 L47.9906367,29.8831169 C47.9906367,30.5033766 48.6123596,31.0051948 49.3576779,31.0051948 L53.8333333,31.0051948 L53.8333333,39.8571429 Z M49.4,33 C49.4,32.6598291 49.125122,32.3846154 48.7853659,32.3846154 L44.4146341,32.3846154 C44.074878,32.3846154 43.8,32.6598291 43.8,33 C43.8,33.3401709 44.074878,33.6153846 44.4146341,33.6153846 L48.7853659,33.6153846 C49.125122,33.6153846 49.4,33.3401709 49.4,33 Z M53.6,35.4615385 C53.6,35.1213675 53.2965769,34.8461538 52.9215385,34.8461538 L44.4784615,34.8461538 C44.1034231,34.8461538 43.8,35.1213675 43.8,35.4615385 C43.8,35.8017094 44.1034231,36.0769231 44.4784615,36.0769231 L52.9215385,36.0769231 C53.2965769,36.0769231 53.6,35.8017094 53.6,35.4615385 Z M50.8,37.9230769 C50.8,37.582906 50.5125,37.3076923 50.1571429,37.3076923 L44.4428571,37.3076923 C44.0875,37.3076923 43.8,37.582906 43.8,37.9230769 C43.8,38.2632479 44.0875,38.5384615 44.4428571,38.5384615 L50.1571429,38.5384615 C50.5125,38.5384615 50.8,38.2632479 50.8,37.9230769 Z" id="Shape" fill="#3B6CFF" fill-rule="nonzero"></path>
                    </g>
                </g>
            </g>
        </g>
    </g>
</svg>