<?xml version="1.0" encoding="UTF-8"?>
<svg width="15px" height="63px" viewBox="0 0 15 63" version="1.1" xmlns="http://www.w3.org/2000/svg" xmlns:xlink="http://www.w3.org/1999/xlink">
    <!-- Generator: Sketch 52.3 (67297) - http://www.bohemiancoding.com/sketch -->
    <title>直线 copy 13</title>
    <desc>Created with Sketch.</desc>
    <g id="1.1版本" stroke="none" stroke-width="1" fill="none" fill-rule="evenodd">
        <g id="资产工作台1920x1080-copy" transform="translate(-934.000000, -654.000000)" fill="#05CC7F" fill-rule="nonzero">
            <path id="直线-copy-13" d="M940.5,703 L940.5,702 L940.5,701 L942.5,701 L942.5,702 L942.5,703 L948.5,703 L941.5,717 L934.5,703 L940.5,703 Z M942.5,668 L942.5,669 L940.5,669 L940.5,668 L934.5,668 L941.5,654 L948.5,668 L942.5,668 Z M942.5,698 L942.5,699 L940.5,699 L940.5,698 L940.5,696 L940.5,695 L942.5,695 L942.5,696 L942.5,698 Z M942.5,692 L942.5,693 L940.5,693 L940.5,692 L940.5,690 L940.5,689 L942.5,689 L942.5,690 L942.5,692 Z M942.5,686 L942.5,687 L940.5,687 L940.5,686 L940.5,684 L940.5,683 L942.5,683 L942.5,684 L942.5,686 Z M942.5,680 L942.5,681 L940.5,681 L940.5,680 L940.5,678 L940.5,677 L942.5,677 L942.5,678 L942.5,680 Z M942.5,674 L942.5,675 L940.5,675 L940.5,674 L940.5,672 L940.5,671 L942.5,671 L942.5,672 L942.5,674 Z"></path>
        </g>
    </g>
</svg>