<?xml version="1.0" encoding="UTF-8"?>
<svg width="14px" height="64px" viewBox="0 0 14 64" version="1.1" xmlns="http://www.w3.org/2000/svg" xmlns:xlink="http://www.w3.org/1999/xlink">
    <!-- Generator: Sketch 52.3 (67297) - http://www.bohemiancoding.com/sketch -->
    <title>直线 copy 9</title>
    <desc>Created with Sketch.</desc>
    <g id="Page-1" stroke="none" stroke-width="1" fill="none" fill-rule="evenodd">
        <g id="资产工作台1920x1080" transform="translate(-1220.000000, -636.000000)" fill="#05CC7F" fill-rule="nonzero">
            <path id="直线-copy-9" d="M1226,686 L1226,685 L1226,684 L1228,684 L1228,685 L1228,686 L1234,686 L1227,700 L1220,686 L1226,686 Z M1226,637 L1226,636 L1228,636 L1228,637 L1228,639 L1228,640 L1226,640 L1226,639 L1226,637 Z M1226,643 L1226,642 L1228,642 L1228,643 L1228,645 L1228,646 L1226,646 L1226,645 L1226,643 Z M1226,649 L1226,648 L1228,648 L1228,649 L1228,651 L1228,652 L1226,652 L1226,651 L1226,649 Z M1226,655 L1226,654 L1228,654 L1228,655 L1228,657 L1228,658 L1226,658 L1226,657 L1226,655 Z M1226,661 L1226,660 L1228,660 L1228,661 L1228,663 L1228,664 L1226,664 L1226,663 L1226,661 Z M1226,667 L1226,666 L1228,666 L1228,667 L1228,669 L1228,670 L1226,670 L1226,669 L1226,667 Z M1226,673 L1226,672 L1228,672 L1228,673 L1228,675 L1228,676 L1226,676 L1226,675 L1226,673 Z M1226,679 L1226,678 L1228,678 L1228,679 L1228,681 L1228,682 L1226,682 L1226,681 L1226,679 Z"></path>
        </g>
    </g>
</svg>