<?xml version="1.0" encoding="UTF-8"?>
<svg width="61px" height="15px" viewBox="0 0 61 15" version="1.1" xmlns="http://www.w3.org/2000/svg" xmlns:xlink="http://www.w3.org/1999/xlink">
    <!-- Generator: Sketch 52.3 (67297) - http://www.bohemiancoding.com/sketch -->
    <title>直线 copy</title>
    <desc>Created with Sketch.</desc>
    <g id="1.1版本" stroke="none" stroke-width="1" fill="none" fill-rule="evenodd">
        <g id="资产工作台1920x1080-copy" transform="translate(-670.000000, -519.000000)" fill="#05CC7F" fill-rule="nonzero">
            <path id="直线-copy" d="M731,526.5 L717,533.5 L717,519.5 L731,526.5 Z M671,527.5 L670,527.5 L670,525.5 L671,525.5 L673,525.5 L674,525.5 L674,527.5 L673,527.5 L671,527.5 Z M677,527.5 L676,527.5 L676,525.5 L677,525.5 L679,525.5 L680,525.5 L680,527.5 L679,527.5 L677,527.5 Z M683,527.5 L682,527.5 L682,525.5 L683,525.5 L685,525.5 L686,525.5 L686,527.5 L685,527.5 L683,527.5 Z M689,527.5 L688,527.5 L688,525.5 L689,525.5 L691,525.5 L692,525.5 L692,527.5 L691,527.5 L689,527.5 Z M695,527.5 L694,527.5 L694,525.5 L695,525.5 L697,525.5 L698,525.5 L698,527.5 L697,527.5 L695,527.5 Z M701,527.5 L700,527.5 L700,525.5 L701,525.5 L703,525.5 L704,525.5 L704,527.5 L703,527.5 L701,527.5 Z M707,527.5 L706,527.5 L706,525.5 L707,525.5 L709,525.5 L710,525.5 L710,527.5 L709,527.5 L707,527.5 Z M713,527.5 L712,527.5 L712,525.5 L713,525.5 L715,525.5 L716,525.5 L716,527.5 L715,527.5 L713,527.5 Z"></path>
        </g>
    </g>
</svg>