<?xml version="1.0" encoding="UTF-8"?>
<svg width="33px" height="33px" viewBox="0 0 33 33" version="1.1" xmlns="http://www.w3.org/2000/svg" xmlns:xlink="http://www.w3.org/1999/xlink">
    <!-- Generator: Sketch 53.2 (72643) - https://sketchapp.com -->
    <title>创建工单</title>
    <desc>Created with Sketch.</desc>
    <defs>
        <linearGradient x1="50%" y1="100%" x2="50%" y2="-2.48949813e-15%" id="linearGradient-1">
            <stop stop-color="#264AFF" offset="0%"></stop>
            <stop stop-color="#48BDFF" offset="100%"></stop>
        </linearGradient>
    </defs>
    <g id="风格1" stroke="none" stroke-width="1" fill="none" fill-rule="evenodd">
        <g id="巡检任务" transform="translate(-1380.000000, -18.000000)">
            <g id="导航-横">
                <g id="icon工单2" transform="translate(1380.000000, 18.000000)">
                    <circle id="椭圆形" fill="url(#linearGradient-1)" cx="16.5" cy="16.5" r="16.5"></circle>
                    <path d="M15.5,16 L15.5,10.5 C15.5,9.94771525 15.9477153,9.5 16.5,9.5 C17.0522847,9.5 17.5,9.94771525 17.5,10.5 L17.5,16 L23,16 C23.5522847,16 24,16.4477153 24,17 C24,17.5522847 23.5522847,18 23,18 L17.5,18 L17.5,23.5 C17.5,24.0522847 17.0522847,24.5 16.5,24.5 C15.9477153,24.5 15.5,24.0522847 15.5,23.5 L15.5,18 L10,18 C9.44771525,18 9,17.5522847 9,17 C9,16.4477153 9.44771525,16 10,16 L15.5,16 Z" id="合并形状" fill="#FFFFFF"></path>
                </g>
            </g>
        </g>
    </g>
</svg>