<?xml version="1.0" encoding="UTF-8"?>
<svg width="832px" height="155px" viewBox="0 0 832 155" version="1.1" xmlns="http://www.w3.org/2000/svg" xmlns:xlink="http://www.w3.org/1999/xlink">
    <!-- Generator: Sketch 52.3 (67297) - http://www.bohemiancoding.com/sketch -->
    <title>装机模版流程</title>
    <desc>Created with Sketch.</desc>
    <defs>
        <linearGradient x1="50%" y1="0%" x2="50%" y2="100%" id="linearGradient-1">
            <stop stop-color="#6DA5FF" offset="0%"></stop>
            <stop stop-color="#3B6CFF" offset="100%"></stop>
        </linearGradient>
    </defs>
    <g id="1.1版本" stroke="none" stroke-width="1" fill="none" fill-rule="evenodd">
        <g id="装机模版流程" transform="translate(-685.000000, -494.000000)">
            <g transform="translate(685.000000, 494.000000)">
                <path d="M346,33 L346,30 L352,34 L346,38 L346,35 L272,35 L272,33 L346,33 Z" id="合并形状" fill="#BFC6D2"></path>
                <path d="M138,33 L138,30 L144,34 L138,38 L138,35 L64,35 L64,33 L138,33 Z" id="合并形状-copy" fill="#BFC6D2"></path>
                <polygon id="Line-Copy-16" fill="#BFC6D2" points="207 146 625 146 625 148 207 148"></polygon>
                <path d="M554,35 L480,35 L480,33 L554,33 L554,30 L560,34 L554,38 L554,35 Z" id="合并形状" fill="#BFC6D2"></path>
                <path d="M762,35 L688,35 L688,33 L762,33 L762,30 L768,34 L762,38 L762,35 Z" id="合并形状-copy-2" fill="#BFC6D2"></path>
                <path d="M209,72 L209,146 L207,146 L207,72 L204,72 L208,66 L212,72 L209,72 Z" id="合并形状" fill="#BFC6D2"></path>
                <polygon id="合并形状-copy-3" fill="#BFC6D2" points="623 66 625 66 625 146 623 146"></polygon>
                <g id="分组-5" transform="translate(352.000000, 2.000000)">
                    <path d="M4,0 L124,0 C126.209139,-4.05812251e-16 128,1.790861 128,4 L128,60 C128,62.209139 126.209139,64 124,64 L4,64 C1.790861,64 2.705415e-16,62.209139 0,60 L0,4 C-2.705415e-16,1.790861 1.790861,4.05812251e-16 4,0 Z" id="Rectangle-7-Copy-11" fill="#1D45BD"></path>
                    <path d="M4,0 L124,0 C126.209139,-4.05812251e-16 128,1.790861 128,4 L128,58 C128,60.209139 126.209139,62 124,62 L4,62 C1.790861,62 2.705415e-16,60.209139 0,58 L0,4 C-2.705415e-16,1.790861 1.790861,4.05812251e-16 4,0 Z" id="Rectangle-7-Copy-12" fill="url(#linearGradient-1)"></path>
                    <text id="模版审核" font-family="PingFangSC-Medium, PingFang SC" font-size="14" font-weight="400" line-spacing="14" fill="#FFFFFF">
                        <tspan x="36" y="25">模版审核</tspan>
                    </text>
                </g>
                <path d="M624,0.566177217 L561.065745,34 L624,67.4338228 L686.934255,34 L624,0.566177217 Z" id="多边形" stroke="#3B6CFF" fill-opacity="0.1" fill="#3B6CFF"></path>
                <text id="是否审核通过" font-family="PingFangSC-Medium, PingFang SC" font-size="12" font-weight="400" line-spacing="12" fill="#3B6CFF">
                    <tspan x="588" y="41">是否审核通过</tspan>
                </text>
                <g id="分组-4" transform="translate(0.000000, 2.000000)" fill="#3B6CFF">
                    <circle id="Oval-6" fill-opacity="0.1" cx="32" cy="32" r="32"></circle>
                    <circle id="Oval-6-Copy" cx="32" cy="32" r="16"></circle>
                </g>
                <g id="分组-14" transform="translate(144.000000, 2.000000)" fill="#3B6CFF">
                    <path d="M4,0.5 C2.06700338,0.5 0.5,2.06700338 0.5,4 L0.5,60 C0.5,61.9329966 2.06700338,63.5 4,63.5 L124,63.5 C125.932997,63.5 127.5,61.9329966 127.5,60 L127.5,4 C127.5,2.06700338 125.932997,0.5 124,0.5 L4,0.5 Z" id="Rectangle-7-Copy-4" stroke="#3B6CFF" fill-opacity="0.1"></path>
                    <text id="创建/编辑" font-family="PingFangSC-Medium, PingFang SC" font-size="14" font-weight="400" line-spacing="14">
                        <tspan x="32.5" y="25">创建/编辑</tspan>
                    </text>
                    <g id="Group-4-Copy-4" transform="translate(19.000000, 40.000000)">
                        <path d="M10.9456912,6.27722928 C10.6437097,5.98392835 10.3007558,5.75253014 9.92138207,5.58598238 C10.3614556,5.36047966 10.7377944,5.03327964 11.0200484,4.62943817 C11.3645198,4.13716426 11.5466192,3.56235341 11.5466192,2.96396057 C11.5466192,1.32943433 10.1778387,0 8.4949368,0 C7.85758892,0 7.24755594,0.188655869 6.73009016,0.545333372 C6.27939416,0.856320782 5.92733532,1.27342712 5.70578106,1.75980553 C5.12913297,1.15699107 4.32637814,0.813578436 3.47051098,0.813578436 C1.78760907,0.813578436 0.41882861,2.14301277 0.41882861,3.77753901 C0.41882861,4.37445797 0.600928005,4.94926882 0.945399362,5.44154273 C1.22765342,5.8453842 1.60399218,6.17258422 2.04406571,6.39956082 C1.66469197,6.56610858 1.32022062,6.79750679 1.01975662,7.09080771 C0.362681296,7.72899515 0,8.57499881 0,9.47258806 L0,11.9000585 C0,12.6369955 0.61762045,13.2383361 1.37788543,13.2383361 L5.56617152,13.2383361 C6.11853969,13.2383361 6.61779553,12.9140838 6.83327982,12.4247576 L10.5921148,12.4247576 C11.3508623,12.4247576 11.9700003,11.8248909 11.9700003,11.0864801 L11.9700003,8.65753575 C11.9654478,7.7599465 11.604284,6.91394284 10.9456912,6.27722928 Z M7.10035893,1.60947038 C7.4721452,1.24689739 7.96684856,1.0479244 8.4949368,1.0479244 C9.02302505,1.0479244 9.51772841,1.24689739 9.88951467,1.60947038 C10.2628184,1.97056951 10.4676803,2.45105243 10.4676803,2.96396057 C10.4676803,3.47686872 10.2613009,3.95735163 9.88951467,4.31845076 C9.51772841,4.68102376 9.02302505,4.87999674 8.4949368,4.87999674 C7.96684856,4.87999674 7.4721452,4.68102376 7.10035893,4.31845076 C6.72705517,3.95735163 6.52219335,3.47686872 6.52219335,2.96396057 C6.52219335,2.45105243 6.72705517,1.97056951 7.10035893,1.60947038 Z M1.49625003,3.77753901 C1.49625003,3.26463086 1.70111185,2.78414795 2.07441561,2.42304882 C2.44620188,2.06047582 2.94090524,1.86150284 3.46899349,1.86150284 C3.99708173,1.86150284 4.49178509,2.06047582 4.86357136,2.42304882 C5.23687512,2.78562182 5.44173694,3.26610474 5.44173694,3.77753901 C5.44173694,4.29044715 5.23687512,4.77093007 4.86357136,5.13202919 C4.49178509,5.49460219 3.99708173,5.69357518 3.46899349,5.69357518 C2.94242273,5.69357518 2.44620188,5.49460219 2.07289812,5.13202919 C1.70111185,4.77093007 1.49625003,4.28897328 1.49625003,3.77753901 Z M5.86056555,11.8985846 C5.86056555,11.9752261 5.83021565,12.0474459 5.77255084,12.1019792 C5.71640353,12.1565126 5.64204627,12.1874639 5.56313653,12.1874639 L1.37485044,12.1874639 C1.21096098,12.1874639 1.07742142,12.057763 1.07742142,11.8985846 L1.07742142,9.47111419 C1.07742142,8.85356099 1.3262906,8.27138077 1.78002159,7.83069245 C2.23375259,7.39000413 2.8331631,7.1482888 3.46899349,7.1482888 C4.10482387,7.1482888 4.70423438,7.39000413 5.15796538,7.83069245 C5.16555285,7.83806182 5.17314033,7.84543119 5.17769281,7.85132669 L5.1822453,7.85722218 C5.61928385,8.29348888 5.86056555,8.86682586 5.86056555,9.47258806 L5.86056555,11.8985846 Z M5.59348643,6.80929778 C5.37648465,6.6442239 5.14279043,6.50715362 4.89543875,6.39808694 C5.49788425,6.08709953 5.98044765,5.58745625 6.25814923,4.98169405 C6.49184345,5.22488326 6.76499254,5.42975174 7.06697404,5.58450851 C6.6876003,5.75105627 6.34312894,5.98392835 6.04266494,6.2757554 C5.874223,6.44082929 5.723991,6.61916804 5.59348643,6.80929778 Z M10.8865089,11.0864801 C10.8865089,11.2456585 10.7529693,11.3753594 10.5890799,11.3753594 L6.94102196,11.3753594 L6.94102196,9.47111419 C6.94102196,8.80344928 6.74071263,8.1623141 6.36133888,7.61108523 C6.4766685,7.391478 6.62538301,7.19250502 6.80596491,7.01858789 C7.25817841,6.57789957 7.85910641,6.33471036 8.4949368,6.33471036 C9.13076719,6.33471036 9.7301777,6.57642569 10.1839087,7.01711401 C10.6376397,7.45780233 10.8865089,8.03998255 10.8865089,8.65753575 L10.8865089,11.0864801 Z" id="Shape" fill-rule="nonzero"></path>
                        <text id="业务运维人员" font-family="PingFangSC-Medium, PingFang SC" font-size="12" font-weight="400" line-spacing="12">
                            <tspan x="18" y="14">业务运维人员</tspan>
                        </text>
                    </g>
                </g>
                <g id="分组-3" transform="translate(768.000000, 2.000000)" fill="#3B6CFF">
                    <circle id="Oval-6-Copy-3" opacity="0.100506074" cx="32" cy="32" r="32"></circle>
                    <circle id="Oval-6-Copy-4" cx="32" cy="32" r="16"></circle>
                </g>
                <g id="分组-2" transform="translate(411.000000, 139.000000)">
                    <rect id="Rectangle-2-Copy-5" stroke="#FFA025" fill="#FFFFFF" x="0.5" y="0.5" width="15" height="15"></rect>
                    <polygon id="N-Copy-4" fill="#FFA025" points="4 4 5.32 4 9.7 10.372 9.748 10.372 9.748 4 11.056 4 11.056 12.568 9.784 12.568 5.356 6.124 5.308 6.124 5.308 12.568 4 12.568"></polygon>
                </g>
                <g id="分组" transform="translate(720.000000, 26.000000)">
                    <rect id="Rectangle-2-Copy-7" stroke="#05CC7F" fill="#FFFFFF" x="0.5" y="0.5" width="15" height="15"></rect>
                    <polygon id="Y" fill="#05CC7F" points="4 4 5.572 4 8.044 7.924 10.516 4 12.088 4 8.692 9.148 8.692 12.568 7.396 12.568 7.396 9.148"></polygon>
                </g>
            </g>
        </g>
    </g>
</svg>