<?xml version="1.0" encoding="UTF-8"?>
<svg width="33px" height="33px" viewBox="0 0 33 33" version="1.1" xmlns="http://www.w3.org/2000/svg" xmlns:xlink="http://www.w3.org/1999/xlink">
    <!-- Generator: Sketch 53.2 (72643) - https://sketchapp.com -->
    <title>消息提示</title>
    <desc>Created with Sketch.</desc>
    <defs>
        <linearGradient x1="50%" y1="100%" x2="50%" y2="-2.48949813e-15%" id="linearGradient-1">
            <stop stop-color="#264AFF" offset="0%"></stop>
            <stop stop-color="#48BDFF" offset="100%"></stop>
        </linearGradient>
    </defs>
    <g id="组件" stroke="none" stroke-width="1" fill="none" fill-rule="evenodd">
        <g id="-顶部导航" transform="translate(-1604.000000, -18.000000)">
            <g id="导航-横">
                <g id="btn" transform="translate(1402.000000, 17.000000)">
                    <g id="分组-11" transform="translate(202.000000, 1.000000)">
                        <circle id="椭圆形" fill="url(#linearGradient-1)" cx="16.5" cy="16.5" r="16.5"></circle>
                        <g id="tixing" transform="translate(9.000000, 8.000000)" fill="#FFFFFF">
                            <path d="M1.68034907,14.6795023 C1.66055817,14.6794859 1.64077616,14.6785765 1.62105267,14.6767764 C1.24976198,14.6409851 0.974981151,14.2801692 1.00759316,13.8706417 C1.01088852,13.827936 1.3492457,10.6630337 1.68298134,6.99718761 C2.06681047,2.78321425 4.5772854,0 8.02539801,0 C11.3351457,0 13.9243882,2.90840612 14.3263217,6.98701534 C14.6607204,10.3799613 14.9993991,13.8250328 15.0026945,13.8706417 C15.0329957,14.2803465 14.7565873,14.6395224 14.3852966,14.6729645 C14.0133428,14.710019 13.0703756,14.2701521 13.0400543,13.8604694 C13.036759,13.81506 12.7235536,10.3861273 12.3669769,7.01644619 C12.1027902,4.51985885 10.9806533,2.05393491 8.02539801,2.05393489 C5.30736851,2.05393489 3.9831731,3.94801685 3.66337499,7.01644619 C3.28290397,10.6670258 2.99258827,13.827936 2.98929291,13.8706417 C2.95865007,14.2580074 2.02660305,14.6795023 1.68034907,14.6795023 Z" id="路径" fill-rule="nonzero"></path>
                            <rect id="矩形" x="0" y="13" width="16" height="2" rx="1"></rect>
                            <path d="M4.48470479,14.3510969 C4.48470479,13.9081959 4.79978714,13.5491031 5.18840617,13.5491031 C5.57702519,13.5491031 6.48947628,13.9081959 6.48947628,14.3510969 C6.48947628,15.2856759 7.11168767,16.1757365 8,16.1757365 C8.88831233,16.1757365 9.49900079,15.3414584 9.49900079,14.3510969 C9.49900079,13.9081959 10.4737708,13.5491031 10.8623898,13.5491031 C11.2510089,13.5491031 11.5660912,13.9081959 11.5660912,14.3510969 C11.5661331,16.3533707 10.1011997,18 7.99093148,17.9824364 C5.89889586,18 4.48470479,16.3533707 4.48470479,14.3510969 Z" id="路径" fill-rule="nonzero"></path>
                        </g>
                    </g>
                </g>
            </g>
        </g>
    </g>
</svg>