<?xml version="1.0" standalone="no"?><!DOCTYPE svg PUBLIC "-//W3C//DTD SVG 1.1//EN" "http://www.w3.org/Graphics/SVG/1.1/DTD/svg11.dtd"><svg t="1558409057801" class="icon" style="" viewBox="0 0 1024 1024" version="1.1" xmlns="http://www.w3.org/2000/svg" p-id="2971" xmlns:xlink="http://www.w3.org/1999/xlink" width="32" height="32"><defs><style type="text/css"></style></defs><path d="M0 0m320 0l384 0q320 0 320 320l0 384q0 320-320 320l-384 0q-320 0-320-320l0-384q0-320 320-320Z" fill="#9BEBCC" p-id="2972"></path><path d="M287.712 730.656l-2.016-0.096a23.616 23.616 0 0 1-21.088-25.792c0.128-1.376 11.744-138.016 23.2-255.328C300.992 314.592 389.376 224 507.744 224c113.6 0 206.08 94.72 219.904 225.248 11.456 108.576 23.104 254.176 23.2 255.648a23.616 23.616 0 0 1-21.184 25.664 23.264 23.264 0 0 1-24.96-21.76c-0.128-1.472-11.712-146.464-23.104-254.4-9.6-90.816-72.416-182.784-173.856-182.784-93.312 0-163.2 73.376-173.824 182.592-11.456 116.992-23.04 253.344-23.168 254.72a23.424 23.424 0 0 1-23.04 21.728z" fill="#3B6CFF" p-id="2973"></path><path d="M789.12 730.656H246.592c-12.48 0-22.592-9.056-22.592-20.256 0-11.2 10.112-20.256 22.592-20.256H789.12c12.48 0 22.624 9.056 22.624 20.256 0 11.2-10.144 20.256-22.624 20.256z" fill="#3B6CFF" p-id="2974"></path><path d="M528 832c-55.872 0-101.344-52.16-101.344-116.192 0-14.176 10.08-25.664 22.528-25.664 12.448 0 22.528 11.488 22.528 25.664 0 35.776 25.248 64.864 56.288 64.864 31.04 0 56.32-29.12 56.32-64.864 0-14.176 10.048-25.664 22.496-25.664 12.448 0 22.528 11.488 22.528 25.664 0 64.064-45.44 116.192-101.344 116.192z" fill="#3B6CFF" p-id="2975"></path><path d="M439.552 649.6H406.4l13.664-182.4h33.152c8.64 0 14.816 10.208 13.888 22.816l-10.24 136.768c-0.96 12.608-8.704 22.816-17.28 22.816z" fill="#00D8A0" p-id="2976"></path></svg>