<?xml version="1.0" encoding="UTF-8"?>
<svg width="24px" height="24px" viewBox="0 0 24 24" version="1.1" xmlns="http://www.w3.org/2000/svg" xmlns:xlink="http://www.w3.org/1999/xlink">
    <!-- Generator: Sketch 53.2 (72643) - https://sketchapp.com -->
    <title>xiazai copy 4</title>
    <desc>Created with Sketch.</desc>
    <g id="Page-1" stroke="none" stroke-width="1" fill="none" fill-rule="evenodd">
        <g id="信息展示、tab切换" transform="translate(-229.000000, -3350.000000)" fill-rule="nonzero">
            <g id="下载" transform="translate(150.000000, 3273.000000)">
                <g id="分组-4" transform="translate(68.000000, 30.000000)">
                    <g id="1文件" transform="translate(0.000000, 36.000000)">
                        <g id="xiazai-copy-4" transform="translate(11.000000, 11.000000)">
                            <path d="M4.61538462,16.1538462 C4.61538462,20.4871573 8.12822735,24 12.4615385,24 C16.7948496,24 20.3076923,20.4871573 20.3076923,16.1538462 C20.3076923,11.820535 16.7948496,8.30769231 12.4615385,8.30769231 C8.12822735,8.30769231 4.61538462,11.820535 4.61538462,16.1538462 L4.61538462,16.1538462 Z" id="路径" fill="#06B471" opacity="0.200000003"></path>
                            <path d="M11.9986889,23.9999999 C5.37199599,23.9999998 8.11535834e-16,18.6274168 0,11.9999999 C-8.11535814e-16,5.37258304 5.11600702,9.87562086e-08 11.7427,0 C12.1309154,0.00223835862 12.4444444,0.317614563 12.4444444,0.705878897 C12.4444444,1.09414323 12.1309154,1.86651951 11.7427,1.86875787 C6.54231074,1.86844326 2.83262817,5.18852636 2.00941934,10.3239072 C1.18621052,15.4592881 3.74923551,19.9768205 8.68909921,21.602358 C13.6289629,23.2278955 18.4298994,21.4800789 20.8164547,16.859141 C23.20301,12.2382031 22.46847,6.56795166 18.2838929,3.47999999 C18.0809017,3.32994844 17.9733729,3.08298874 18.0018115,2.83214822 C18.0302502,2.58130769 18.1903358,2.36469499 18.4217656,2.26390602 C18.6531955,2.16311705 18.9208099,2.19346405 19.1238011,2.34351561 C23.2940807,5.4204728 25.0178385,10.8274247 23.3980584,15.7506794 C21.7782784,20.673934 17.1810463,24.0007882 11.9986889,23.9999999 Z" id="路径" fill="#4083FF"></path>
                            <path d="M12,14.7692308 C11.4901987,14.7692308 11.0769231,14.4301288 11.0769231,14.0118253 L11.0769231,0.757405485 C11.0769231,0.339101986 11.4901987,7.68411061e-17 12,0 C12.5098013,-7.68411061e-17 12.9230769,0.339101986 12.9230769,0.757405485 L12.9230769,14.0118253 C12.9230769,14.4301288 12.5098013,14.7692308 12,14.7692308 L12,14.7692308 Z" id="路径" fill="#4083FF"></path>
                            <path d="M11.5001416,15.4730498 L7.57470996,11.3965648 C7.3215195,11.1024289 7.3329342,10.6518199 7.60065932,10.3721832 C7.86838443,10.0925465 8.2982984,10.0821914 8.5779943,10.3486426 L12.0000064,13.8974279 L15.4201506,10.3486181 C15.6998525,10.0821742 16.1297659,10.0925401 16.3974846,10.3721832 C16.6652033,10.6518263 16.6766081,11.1024352 16.4234114,11.3965649 L12.4998476,15.4730744 C12.3674884,15.6126252 12.1877346,15.6914573 12.0000064,15.692283 C11.8122632,15.6914755 11.6324989,15.6126246 11.5001416,15.4730498 Z" id="路径" fill="#4083FF"></path>
                        </g>
                    </g>
                </g>
            </g>
        </g>
    </g>
</svg>