<?xml version="1.0" standalone="no"?><!DOCTYPE svg PUBLIC "-//W3C//DTD SVG 1.1//EN" "http://www.w3.org/Graphics/SVG/1.1/DTD/svg11.dtd"><svg t="1559124830677" class="icon" style="" viewBox="0 0 1024 1024" version="1.1" xmlns="http://www.w3.org/2000/svg" p-id="2981" xmlns:xlink="http://www.w3.org/1999/xlink" width="200" height="200"><defs><style type="text/css"></style></defs><path d="M698.124381 0.00512h279.294604c12.851136 0 23.807881 4.556777 32.870236 13.823931A44.287779 44.287779 0 0 1 1024.010752 46.596887v279.192204a44.850976 44.850976 0 0 1-13.619132 32.972635 44.799776 44.799776 0 0 1-32.921435 13.670332 44.799776 44.799776 0 0 1-32.921436-13.670332 44.799776 44.799776 0 0 1-13.670331-32.972635V159.031525l-386.199669 386.097269a44.543777 44.543777 0 0 1-32.767836 13.516733 45.260574 45.260574 0 0 1-46.489368-46.489368c0-12.953535 4.454378-23.756681 13.414333-32.870235l386.250869-386.14847h-166.911166a44.902175 44.902175 0 0 1-32.972635-13.619132 44.953375 44.953375 0 0 1-13.619132-32.870235 45.055775 45.055775 0 0 1 13.619132-32.972635 44.902175 44.902175 0 0 1 32.921435-13.670332h0.0512zM139.586374 0.00512H465.421545a44.543777 44.543777 0 0 1 32.921435 13.823931 44.441378 44.441378 0 0 1 13.619132 32.819036c0 12.799936-4.607977 23.756681-13.619132 32.870235a44.902175 44.902175 0 0 1-32.921435 13.619132H139.586374a44.697377 44.697377 0 0 0-32.870236 13.670332 44.697377 44.697377 0 0 0-13.670331 33.023835v744.649077c0 12.799936 4.505577 23.756681 13.670331 32.870235a44.697377 44.697377 0 0 0 32.870236 13.619132h744.700277a44.902175 44.902175 0 0 0 32.921435-13.619132 44.902175 44.902175 0 0 0 13.670332-32.870235V558.594327c0-12.799936 4.607977-23.756681 13.619132-32.819036a44.902175 44.902175 0 0 1 32.972635-13.670332c12.799936 0 23.756681 4.556777 32.921435 13.670332a44.953375 44.953375 0 0 1 13.619132 32.819036v325.835171c0 38.553407-13.619132 71.372443-40.908595 98.713106a134.348128 134.348128 0 0 1-98.713107 40.806196H139.637574A134.296929 134.296929 0 0 1 40.975667 983.193804 134.501727 134.501727 0 0 1 0.015872 884.480698V139.831621C0.015872 101.278214 13.635004 68.407978 40.975667 41.118514a134.450528 134.450528 0 0 1 98.661907-40.959795V0.00512z" fill="#3B6CFF" p-id="2982"></path></svg>