<?xml version="1.0" encoding="UTF-8"?>
<svg width="940px" height="320px" viewBox="0 0 940 320" version="1.1" xmlns="http://www.w3.org/2000/svg" xmlns:xlink="http://www.w3.org/1999/xlink">
    <!-- Generator: Sketch 52.3 (67297) - http://www.bohemiancoding.com/sketch -->
    <title>硬件退役流程</title>
    <desc>Created with Sketch.</desc>
    <defs>
        <linearGradient x1="50%" y1="0%" x2="50%" y2="100%" id="linearGradient-1">
            <stop stop-color="#6DA5FF" offset="0%"></stop>
            <stop stop-color="#3B6CFF" offset="100%"></stop>
        </linearGradient>
    </defs>
    <g id="Page-1" stroke="none" stroke-width="1" fill="none" fill-rule="evenodd">
        <g id="硬件退役流程" transform="translate(-601.000000, -426.000000)">
            <g transform="translate(601.000000, 426.000000)">
                <g id="分组-21" transform="translate(124.000000, 2.000000)">
                    <path d="M4,0.5 C2.06700338,0.5 0.5,2.06700338 0.5,4 L0.5,60 C0.5,61.9329966 2.06700338,63.5 4,63.5 L124,63.5 C125.932997,63.5 127.5,61.9329966 127.5,60 L127.5,4 C127.5,2.06700338 125.932997,0.5 124,0.5 L4,0.5 Z" id="Rectangle-7-Copy-4" stroke="#3B6CFF" fill="#455385"></path>
                    <text id="退役申请" font-family="PingFangSC-Medium, PingFang SC" font-size="14" font-weight="400" line-spacing="14" fill="#FFFFFF">
                        <tspan x="36" y="40">退役申请</tspan>
                    </text>
                </g>
                <g id="分组-21-copy" transform="translate(500.000000, 128.000000)">
                    <path d="M4,0.5 C2.06700338,0.5 0.5,2.06700338 0.5,4 L0.5,60 C0.5,61.9329966 2.06700338,63.5 4,63.5 L124,63.5 C125.932997,63.5 127.5,61.9329966 127.5,60 L127.5,4 C127.5,2.06700338 125.932997,0.5 124,0.5 L4,0.5 Z" id="Rectangle-7-Copy-4" stroke="#3B6CFF" fill="#455385"></path>
                    <text id="退役审批未通过" font-family="PingFangSC-Medium, PingFang SC" font-size="14" font-weight="400" line-spacing="14" fill="#FFFFFF">
                        <tspan x="15" y="40">退役审批未通过</tspan>
                    </text>
                </g>
                <path d="M909,126 L909,70.5 L906,70.5 L910,66 L914,70.5 L911,70.5 L911,126 L911,287 L909,287 L909,126 Z" id="合并形状" fill="#BFC6D2"></path>
                <path d="M187,126 L187,70.5 L184,70.5 L188,66 L192,70.5 L189,70.5 L189,126 L189,287 L187,287 L187,126 Z" id="合并形状" fill="#BFC6D2"></path>
                <g id="分组-10-copy" transform="translate(500.000000, 0.000000)">
                    <path d="M64,0.566177217 L1.06574535,34 L64,67.4338228 L126.934255,34 L64,0.566177217 Z" id="多边形-copy" stroke="#3B6CFF" fill="#455385"></path>
                    <text id="是否审批通过" font-family="PingFangSC-Medium, PingFang SC" font-size="12" font-weight="400" line-spacing="12" fill="#FFFFFF">
                        <tspan x="28" y="41">是否审批通过</tspan>
                    </text>
                </g>
                <g id="分组-10-copy-2" transform="translate(500.000000, 252.000000)">
                    <path d="M64,0.566177217 L1.06574535,34 L64,67.4338228 L126.934255,34 L64,0.566177217 Z" id="多边形-copy" stroke="#3B6CFF" fill="#455385"></path>
                    <text id="是否继续退役" font-family="PingFangSC-Medium, PingFang SC" font-size="12" font-weight="400" line-spacing="12" fill="#FFFFFF">
                        <tspan x="28" y="41">是否继续退役</tspan>
                    </text>
                </g>
                <g id="分组-7-copy-2" transform="translate(312.000000, 2.000000)">
                    <path d="M4,0 L124,0 C126.209139,-4.05812251e-16 128,1.790861 128,4 L128,60 C128,62.209139 126.209139,64 124,64 L4,64 C1.790861,64 2.705415e-16,62.209139 0,60 L0,4 C-2.705415e-16,1.790861 1.790861,4.05812251e-16 4,0 Z" id="Rectangle-7-Copy-19" fill="#1D45BD"></path>
                    <path d="M4,0 L124,0 C126.209139,-4.05812251e-16 128,1.790861 128,4 L128,58 C128,60.209139 126.209139,62 124,62 L4,62 C1.790861,62 2.705415e-16,60.209139 0,58 L0,4 C-2.705415e-16,1.790861 1.790861,4.05812251e-16 4,0 Z" id="Rectangle-7-Copy-20" fill="url(#linearGradient-1)"></path>
                    <text id="退役审批" font-family="PingFangSC-Medium, PingFang SC" font-size="14" font-weight="400" line-spacing="14" fill="#FFFFFF">
                        <tspan x="36" y="25">退役审批</tspan>
                    </text>
                </g>
                <g id="分组-7-copy-3" transform="translate(688.000000, 2.000000)">
                    <path d="M4,0 L124,0 C126.209139,-4.05812251e-16 128,1.790861 128,4 L128,60 C128,62.209139 126.209139,64 124,64 L4,64 C1.790861,64 2.705415e-16,62.209139 0,60 L0,4 C-2.705415e-16,1.790861 1.790861,4.05812251e-16 4,0 Z" id="Rectangle-7-Copy-19" fill="#1D45BD"></path>
                    <path d="M4,0 L124,0 C126.209139,-4.05812251e-16 128,1.790861 128,4 L128,58 C128,60.209139 126.209139,62 124,62 L4,62 C1.790861,62 2.705415e-16,60.209139 0,58 L0,4 C-2.705415e-16,1.790861 1.790861,4.05812251e-16 4,0 Z" id="Rectangle-7-Copy-20" fill="url(#linearGradient-1)"></path>
                    <text id="退役执行" font-family="PingFangSC-Medium, PingFang SC" font-size="14" font-weight="400" line-spacing="14" fill="#FFFFFF">
                        <tspan x="36" y="25">退役执行</tspan>
                    </text>
                </g>
                <path d="M119.5,33 L119.5,30 L124,34 L119.5,38 L119.5,35 L64,35 L64,33 L119.5,33 Z" id="合并形状" fill="#BFC6D2"></path>
                <path d="M307.5,33 L307.5,30 L312,34 L307.5,38 L307.5,35 L252,35 L252,33 L307.5,33 Z" id="合并形状-copy-4" fill="#BFC6D2"></path>
                <path d="M495.5,33 L495.5,30 L500,34 L495.5,38 L495.5,35 L440,35 L440,33 L495.5,33 Z" id="合并形状-copy-6" fill="#BFC6D2"></path>
                <path d="M683.5,33 L683.5,30 L688,34 L683.5,38 L683.5,35 L628,35 L628,33 L683.5,33 Z" id="合并形状-copy-9" fill="#BFC6D2"></path>
                <path d="M871.5,33 L871.5,30 L876,34 L871.5,38 L871.5,35 L816,35 L816,33 L871.5,33 Z" id="合并形状-copy-11" fill="#BFC6D2"></path>
                <path d="M589.5,221 L589.5,218 L594,222 L589.5,226 L589.5,223 L534,223 L534,221 L589.5,221 Z" id="合并形状-copy-12" fill="#BFC6D2" transform="translate(564.000000, 222.000000) rotate(90.000000) translate(-564.000000, -222.000000) "></path>
                <path d="M589.5,97 L589.5,94 L594,98 L589.5,102 L589.5,99 L534,99 L534,97 L589.5,97 Z" id="合并形状-copy-13" fill="#BFC6D2" transform="translate(564.000000, 98.000000) rotate(90.000000) translate(-564.000000, -98.000000) "></path>
                <polygon id="Line-Copy-8" fill="#BFC6D2" points="628 285 911 285 911 287 628 287"></polygon>
                <polygon id="Line-Copy-9" fill="#BFC6D2" points="188 285 500 285 500 287 188 287"></polygon>
                <g id="分组-8-copy-2" transform="translate(336.000000, 278.000000)">
                    <rect id="Rectangle-2-Copy-8" stroke="#05CC7F" fill="#252A3D" x="0.5" y="0.5" width="15" height="15"></rect>
                    <polygon id="Y-Copy" fill="#05CC7F" points="4 4 5.572 4 8.044 7.924 10.516 4 12.088 4 8.692 9.148 8.692 12.568 7.396 12.568 7.396 9.148"></polygon>
                </g>
                <g id="分组-8-copy" transform="translate(650.000000, 26.000000)">
                    <rect id="Rectangle-2-Copy-8" stroke="#05CC7F" fill="#252A3D" x="0.5" y="0.5" width="15" height="15"></rect>
                    <polygon id="Y-Copy" fill="#05CC7F" points="4 4 5.572 4 8.044 7.924 10.516 4 12.088 4 8.692 9.148 8.692 12.568 7.396 12.568 7.396 9.148"></polygon>
                </g>
                <g id="分组-16-copy" transform="translate(762.000000, 278.000000)">
                    <rect id="Rectangle-2-Copy-5" stroke="#FFA025" fill="#252A3D" x="0.5" y="0.5" width="15" height="15"></rect>
                    <polygon id="N" fill="#FFA025" points="4 4 5.32 4 9.7 10.372 9.748 10.372 9.748 4 11.056 4 11.056 12.568 9.784 12.568 5.356 6.124 5.308 6.124 5.308 12.568 4 12.568"></polygon>
                </g>
                <g id="分组-16-copy-2" transform="translate(556.000000, 90.000000)">
                    <rect id="Rectangle-2-Copy-5" stroke="#FFA025" fill="#252A3D" x="0.5" y="0.5" width="15" height="15"></rect>
                    <polygon id="N" fill="#FFA025" points="4 4 5.32 4 9.7 10.372 9.748 10.372 9.748 4 11.056 4 11.056 12.568 9.784 12.568 5.356 6.124 5.308 6.124 5.308 12.568 4 12.568"></polygon>
                </g>
                <g id="分组-22" transform="translate(0.000000, 2.000000)" fill="#3B6CFF">
                    <circle id="Oval-6" fill-opacity="0.1" cx="32" cy="32" r="32"></circle>
                    <circle id="Oval-6-Copy" cx="32" cy="32" r="16"></circle>
                </g>
                <g id="分组-6" transform="translate(876.000000, 2.000000)" fill="#3B6CFF">
                    <circle id="Oval-6-Copy-3" fill-opacity="0.1" cx="32" cy="32" r="32"></circle>
                    <circle id="Oval-6-Copy-4" cx="32" cy="32" r="16"></circle>
                </g>
            </g>
        </g>
    </g>
</svg>