<?xml version="1.0" encoding="UTF-8"?>
<svg width="20px" height="20px" viewBox="0 0 20 20" version="1.1" xmlns="http://www.w3.org/2000/svg" xmlns:xlink="http://www.w3.org/1999/xlink">
    <!-- Generator: Sketch 53.2 (72643) - https://sketchapp.com -->
    <title>icon_title_2</title>
    <desc>Created with Sketch.</desc>
    <g id="Page-1" stroke="none" stroke-width="1" fill="none" fill-rule="evenodd">
        <g id="漏洞处置" transform="translate(-260.000000, -473.000000)">
            <g id="分组-19" transform="translate(260.000000, 472.000000)">
                <g id="标题">
                    <g id="分组" transform="translate(0.000000, 1.000000)">
                        <g id="分组-16">
                            <path d="M6.58141153,19.4004093 C2.74203557,18.0038397 0,14.3221382 0,10 C0,4.4771525 4.4771525,1.04805054e-13 10,1.04805054e-13 C15.5228475,1.04805054e-13 20,4.4771525 20,10 C20,10.7992103 19.9062443,11.5765227 19.7291313,12.3215388 C18.3826363,10.3181817 16.0952571,9 13.5,9 C9.35786438,9 6,12.3578644 6,16.5 C6,17.5282571 6.20692738,18.5081837 6.58141153,19.4004093 Z" id="合并形状" fill="#4D6ED0"></path>
                            <path d="M6.58141153,19.4004093 C6.20692738,18.5081837 6,17.5282571 6,16.5 C6,12.3578644 9.35786438,9 13.5,9 C16.0952571,9 18.3826363,10.3181817 19.7291313,12.3215388 C18.6823263,16.7248676 14.7236372,20 10,20 C8.7992907,20 7.64800732,19.7883825 6.58141153,19.4004093 Z" id="合并形状" fill="#84A2FF" opacity="0.300000012"></path>
                        </g>
                    </g>
                </g>
            </g>
        </g>
    </g>
</svg>