<?xml version="1.0" encoding="UTF-8"?>
<svg width="227px" height="50px" viewBox="0 0 227 50" version="1.1" xmlns="http://www.w3.org/2000/svg" xmlns:xlink="http://www.w3.org/1999/xlink">
    <!-- Generator: Sketch 52.3 (67297) - http://www.bohemiancoding.com/sketch -->
    <title>安天logo</title>
    <desc>Created with Sketch.</desc>
    <defs>
        <linearGradient x1="0.0233136463%" y1="49.9852522%" x2="100.054399%" y2="49.9852522%" id="linearGradient-1">
            <stop stop-color="#A2D9F3" offset="0%"></stop>
            <stop stop-color="#6097CD" offset="62%"></stop>
            <stop stop-color="#356CB4" offset="100%"></stop>
        </linearGradient>
        <linearGradient x1="0.0158553988%" y1="49.9815123%" x2="100%" y2="49.9815123%" id="linearGradient-2">
            <stop stop-color="#3F5FAA" offset="0%"></stop>
            <stop stop-color="#3A58A1" offset="18%"></stop>
            <stop stop-color="#2D4489" offset="48%"></stop>
            <stop stop-color="#182361" offset="85%"></stop>
            <stop stop-color="#0E144F" offset="100%"></stop>
        </linearGradient>
    </defs>
    <g id="组件" stroke="none" stroke-width="1" fill="none" fill-rule="evenodd">
        <g id="-顶部导航-深" transform="translate(-20.000000, -10.000000)">
            <g id="导航-横">
                <g id="安天logo" transform="translate(20.000000, 10.000000)">
                    <path d="M18.6875,18.5810811 C15.8545833,19.8054054 11.0770833,22.5459459 8.44458333,24.2756757 C7.79458333,26.1675676 6.97666667,28.2108108 6.15875,30.4756757 L6.18041667,30.4756757 C7.085,29.6945946 12.618125,27.3918919 18.54125,25.3108108 C22.8781212,23.7906122 27.3115182,22.5599678 31.8120833,21.627027 C33.8487691,17.9467016 36.1887122,14.441824 38.8077083,11.1486486 C31.18375,12.9459459 25.4583333,15.6756757 18.6875,18.5810811 Z M18.581875,26.4432432 C13.3114583,28.2756757 7.995,30.4432432 5.91770833,31.8810811 C5.126875,34.3297297 4.40104167,36.6054054 3.956875,38.6378378 C8.70094842,36.5971914 13.5891664,34.9079389 18.581875,33.5837838 C21.3741667,32.8540541 24.29375,32.3594595 26.92625,31.9108108 C27.8795833,29.4783784 29.2283333,26.6135135 31.0727083,22.9918919 C30.9195018,23.0024819 30.7673665,23.025074 30.6177083,23.0594595 C28.5945833,23.2432432 23.603125,24.6756757 18.59,26.4432432 L18.581875,26.4432432 Z" id="形状" fill="url(#linearGradient-1)" fill-rule="nonzero"></path>
                    <path d="M15.2370833,16.5378378 C10.0208333,18.4675676 4.57708333,20.9513514 2.53770833,22.4162162 C1.83083333,24.8945946 1.28916667,27.3297297 0.912708333,29.3459459 C3.01166667,28.3081081 5.0375,27.4351351 6.99020833,26.6432432 C7.36395833,25.5945946 7.735,24.5648649 8.07354167,23.6540541 C10.3587782,22.1855625 12.7270965,20.8500054 15.1666667,19.6540541 C18.7064583,17.8972973 22.6145833,16.1945946 26.6608333,14.6378378 C26.8829167,14.1486486 27.2647917,13.3 27.4733333,12.9351351 C25.4366667,13.1756757 20.19875,14.7162162 15.2370833,16.5378378 Z M15.4158333,8.57027027 C11.7876863,10.3750462 8.29799532,12.4446339 4.97520833,14.7621622 C4.39833333,16.6567568 2.884375,21.0810811 2.884375,21.0810811 C3.74020833,20.2540541 9.43041667,17.7945946 15.2641667,15.4756757 C20.0416667,13.5837838 25.0927083,11.7054054 28.0691667,11.1837838 C28.185625,11.1621622 28.1991667,11.1648649 28.3047917,11.1405405 C30.253378,7.28323518 32.5180274,3.5932031 35.075625,0.108108108 C28.3545211,2.52346688 21.7888333,5.34953521 15.4158333,8.57027027 Z" id="形状" fill="url(#linearGradient-2)" fill-rule="nonzero"></path>
                    <path d="M16.1904167,41.6216216 L15.0177083,42.2783784 L15.0177083,46.3945946 C13.5416667,44.8810811 12.1875,43.2162162 10.7872917,41.5702703 L9.11625,42.9216216 L9.47916667,43.3459459 L9.47916667,49.7864865 L9.8475,49.7864865 L10.6952083,49.1108108 L10.6952083,44.8648649 L10.846875,44.8648649 L15.120625,49.7702703 L16.5316667,48.2594595 L16.185,47.8 L16.1904167,41.6216216 Z" id="路径" fill="#FFFFFF"></path>
                    <path d="M4.55,41.5459459 L2.86541667,42.972973 L3.54520833,44.1081081 L0.165208333,48.7567568 L0.888333333,49.7864865 L1.226875,49.8297297 C2.11791667,48.0513514 3.26895833,46.7243243 4.22229167,45.2675676 L4.43625,45.2675676 L6.94145833,49.8297297 L8.89416667,48.4594595 C7.30890204,46.243701 5.85824175,43.9350512 4.55,41.5459459 Z" id="路径" fill="#FFFFFF" fill-rule="nonzero"></path>
                    <polygon id="路径" fill="#E40F16" fill-rule="nonzero" points="2.75708333 48.2243243 4.29 49.8297297 5.63875 48.4135135 4.20333333 46.6162162"></polygon>
                    <polygon id="路径" fill="#FFFFFF" points="16.965 41.7054054 17.4822917 42.7297297 19.0829167 42.7297297 19.0829167 49.4324324 19.4647917 49.7513514 21.6504167 49.7513514 21.539375 49.5918919 21.539375 42.7297297 23.2754167 42.7297297 23.725 41.5459459 17.2791667 41.5459459"></polygon>
                    <polygon id="路径" fill="#FFFFFF" points="24.3641667 49.772973 26.6635417 49.772973 27.0264583 49.272973 27.0264583 41.5459459 24.3641667 41.5459459"></polygon>
                    <polygon id="路径" fill="#FFFFFF" points="32.6489583 46.0486486 35.0620833 42.7648649 34.181875 41.5810811 33.97875 41.5810811 31.8608333 44.8567568 29.7185417 41.7648649 29.3583333 41.6513514 27.9608333 43.1972973 30.216875 45.9972973 30.216875 49.5243243 30.3929167 49.7972973 32.8520833 49.7972973 32.6489583 49.3864865"></polygon>
                    <text id="安天资产安全运维平台" font-family="PingFangSC-Semibold, PingFang SC" font-size="18" font-weight="500" fill="#FFFFFF">
                        <tspan x="47" y="32">安天资产安全运维平台</tspan>
                    </text>
                </g>
            </g>
        </g>
    </g>
</svg>