<?xml version="1.0" standalone="no"?><!DOCTYPE svg PUBLIC "-//W3C//DTD SVG 1.1//EN" "http://www.w3.org/Graphics/SVG/1.1/DTD/svg11.dtd"><svg t="1561516731482" class="icon" viewBox="0 0 1024 1024" version="1.1" xmlns="http://www.w3.org/2000/svg" p-id="3124" xmlns:xlink="http://www.w3.org/1999/xlink" width="32" height="32"><defs><style type="text/css"></style></defs><path d="M338.432 568.896h612.608c19.264 0 35.008-17.088 35.008-37.952 0-20.864-15.744-37.888-35.008-37.888H338.432c-19.264 0-35.008 17.024-35.008 37.888 0 20.864 15.744 37.952 35.008 37.952z" fill="#BFC6D2" p-id="3125"></path><path d="M792.832 758.528c9.472 0 18.944-3.84 26.56-11.392l189.632-189.632a36.672 36.672 0 0 0 0-53.12L819.392 314.88a36.672 36.672 0 0 0-53.12 0 36.672 36.672 0 0 0 0 53.12l163.136 163.008-163.136 163.072a36.672 36.672 0 0 0 0 53.12 37.44 37.44 0 0 0 26.56 11.392zM155.584 1024H592c62.08 0 112.896-53.12 112.896-118.144v-157.568c0-21.632-16.896-39.36-37.632-39.36-20.672 0-37.632 17.728-37.632 39.36v157.568c0 21.632-16.96 39.36-37.632 39.36H155.52c-20.672 0-37.632-17.728-37.632-39.36V118.144c0-21.632 16.96-39.36 37.632-39.36H592c20.672 0 37.632 17.728 37.632 39.36v157.568c0 21.632 16.96 39.36 37.632 39.36 20.736 0 37.632-17.728 37.632-39.36V118.144C704.896 53.184 654.08 0 592 0H155.52C93.504 0 42.688 53.12 42.688 118.144v787.712C42.688 970.816 93.44 1024 155.52 1024z" fill="#BFC6D2" p-id="3126"></path></svg>