<?xml version="1.0" standalone="no"?><!DOCTYPE svg PUBLIC "-//W3C//DTD SVG 1.1//EN" "http://www.w3.org/Graphics/SVG/1.1/DTD/svg11.dtd"><svg t="1558409796396" class="icon" style="" viewBox="0 0 1024 1024" version="1.1" xmlns="http://www.w3.org/2000/svg" p-id="3671" xmlns:xlink="http://www.w3.org/1999/xlink" width="32" height="32"><defs><style type="text/css"></style></defs><path d="M0 0m320 0l384 0q320 0 320 320l0 384q0 320-320 320l-384 0q-320 0-320-320l0-384q0-320 320-320Z" fill="#9BEBCC" p-id="3672"></path><path d="M425.216 540.448h306.304c9.632 0 17.504-8.544 17.504-18.976 0-10.432-7.872-18.944-17.504-18.944h-306.304c-9.632 0-17.504 8.512-17.504 18.944 0 10.432 7.872 18.976 17.504 18.976z" fill="#00D8A0" p-id="3673"></path><path d="M654.208 635.264c4.768 0 9.504-1.92 13.28-5.696l94.816-94.816a18.336 18.336 0 0 0 0-26.56L667.52 413.44a18.336 18.336 0 0 0-26.56 0 18.336 18.336 0 0 0 0 26.56l81.568 81.504-81.536 81.536a18.336 18.336 0 0 0 0 26.56 18.72 18.72 0 0 0 13.248 5.696zM316.224 786.976h220.864c33.152 0 60.256-27.584 60.256-61.28v-81.696a20.32 20.32 0 0 0-20.096-20.416 20.32 20.32 0 0 0-20.064 20.416v81.696a20.32 20.32 0 0 1-20.096 20.416H316.224a20.32 20.32 0 0 1-20.064-20.416V317.28c0-11.232 9.024-20.448 20.064-20.448h220.864c11.04 0 20.096 9.216 20.096 20.448v81.664c0 11.232 9.024 20.416 20.064 20.416a20.32 20.32 0 0 0 20.096-20.416V317.28C597.344 283.584 570.24 256 537.088 256H316.224C283.104 256 256 283.584 256 317.28v408.416c0 33.696 27.104 61.28 60.224 61.28z" fill="#3B6CFF" p-id="3674"></path></svg>