<?xml version="1.0" standalone="no"?><!DOCTYPE svg PUBLIC "-//W3C//DTD SVG 1.1//EN" "http://www.w3.org/Graphics/SVG/1.1/DTD/svg11.dtd"><svg class="icon" width="200px" height="200.00px" viewBox="0 0 1024 1024" version="1.1" xmlns="http://www.w3.org/2000/svg"><path d="M512 512m-512 0a512 512 0 1 0 1024 0 512 512 0 1 0-1024 0Z" fill="#05CC7F" /><path d="M524.617143 658.468571l-183.552-170.642285a52.992 52.992 0 0 0-70.070857-1.682286 44.141714 44.141714 0 0 0-14.994286 32.402286c-0.109714 12.214857 5.046857 23.990857 14.372571 32.621714l219.501715 204.068571c1.206857 1.097143 2.450286 2.084571 3.766857 3.072l1.243428 0.841143c0.914286 0.658286 1.828571 1.28 2.779429 1.865143l1.609143 0.841143 2.633143 1.462857 1.718857 0.731429 2.633143 1.170285 1.828571 0.585143 2.706286 0.841143 1.865143 0.438857 2.706285 0.585143h1.938286l2.742857 0.329143h11.52l2.633143-0.365714 2.084572-0.475429 2.486857-0.585143 2.084571-0.731428 2.450286-0.804572 2.084571-0.914285 2.304-1.024 2.011429-1.097143 2.157714-1.243429 1.938286-1.28 2.084571-1.426286 1.828572-1.462857 1.645714-1.462857L986.441143 319.195429c-8.228571-22.930286-33.426286-72.155429-46.445714-87.917715L524.617143 658.468571z" fill="#FFFFFF" /></svg>