<?xml version="1.0" standalone="no"?><!DOCTYPE svg PUBLIC "-//W3C//DTD SVG 1.1//EN" "http://www.w3.org/Graphics/SVG/1.1/DTD/svg11.dtd"><svg t="1558409282322" class="icon" style="" viewBox="0 0 1024 1024" version="1.1" xmlns="http://www.w3.org/2000/svg" p-id="3205" xmlns:xlink="http://www.w3.org/1999/xlink" width="32" height="32"><defs><style type="text/css"></style></defs><path d="M0 0m320 0l384 0q320 0 320 320l0 384q0 320-320 320l-384 0q-320 0-320-320l0-384q0-320 320-320Z" fill="#9BEBCC" p-id="3206"></path><path d="M719.36 800H300.384C275.904 800 256 781.216 256 758.144v-85.792c0-12 5.44-23.424 14.912-31.36l122.272-102.4c-29.344-32.064-44.128-76.16-46.72-100.288-2.752-26.08-4.576-91.68 38.848-137.216C413.856 271.168 455.68 256 509.472 256c56.992 0 100.704 16.032 129.888 47.68 44.608 48.352 39.04 115.776 36.256 135.296-5.536 39.008-22.912 75.2-47.872 101.12l120.992 100.864c9.536 7.936 15.008 19.392 15.008 31.424v85.76c0 23.072-19.904 41.856-44.352 41.856zM509.536 297.856c-40.864 0-71.616 10.528-91.424 31.296-31.552 33.088-29.856 84.416-27.648 104.96 2.432 22.912 19.68 66.976 48.896 88.704 5.12 3.84 8.224 9.632 8.416 15.84a20.416 20.416 0 0 1-7.424 16.32L300.16 672.32v85.792h419.2l0.224-85.76-139.328-116.16a20.448 20.448 0 0 1-7.488-16.448 20.608 20.608 0 0 1 8.672-15.904c30.848-22.272 46.272-61.344 50.4-90.464 1.536-10.752 7.488-66.208-25.728-102.176-20.416-22.144-52.928-33.376-96.64-33.376z" fill="#3B6CFF" p-id="3207"></path><path d="M528 727.456h-36.256v-105.76c0-11.68 6.496-21.152 14.496-21.152h7.264c8 0 14.496 9.472 14.496 21.12v105.792z" fill="#00D8A0" p-id="3208"></path></svg>