<?xml version="1.0" standalone="no"?><!DOCTYPE svg PUBLIC "-//W3C//DTD SVG 1.1//EN" "http://www.w3.org/Graphics/SVG/1.1/DTD/svg11.dtd"><svg t="1561518489470" class="icon" viewBox="0 0 1024 1024" version="1.1" xmlns="http://www.w3.org/2000/svg" p-id="3241" xmlns:xlink="http://www.w3.org/1999/xlink" width="32" height="32"><defs><style type="text/css"></style></defs><path d="M114.085647 1024C67.644235 1024 29.876706 988.641882 29.876706 945.212235v-161.490823c0-22.588235 10.300235-44.092235 28.310588-59.030588l232.086588-192.752942c-55.657412-60.355765-83.727059-143.36-88.606117-188.777411-5.300706-49.091765-8.734118-172.574118 73.667764-258.288942C329.547294 28.551529 408.816941 0 511.036235 0c108.182588 0 191.126588 30.177882 246.543059 89.750588 84.630588 91.015529 74.089412 217.931294 68.788706 254.674824-10.480941 73.426824-43.489882 141.552941-90.834824 190.343529l229.677177 189.861647c18.070588 14.938353 28.431059 36.502588 28.431059 59.151059v161.430588c0 43.429647-37.767529 78.787765-84.208941 78.787765H114.085647z m396.950588-945.212235c-77.522824 0-135.890824 19.817412-173.477647 58.910117-59.934118 62.283294-56.681412 158.900706-52.525176 197.571765 4.638118 43.128471 37.345882 126.072471 92.762353 166.972235 9.818353 7.228235 15.661176 18.130824 16.082823 29.816471a38.309647 38.309647 0 0 1-14.155294 30.72L113.664 783.661176v161.490824h795.768471l0.421647-161.430588-264.493177-218.654118a38.369882 38.369882 0 0 1-14.215529-30.960941 38.731294 38.731294 0 0 1 16.50447-29.936941c58.548706-41.923765 87.823059-115.471059 95.653647-170.285177 2.891294-20.239059 14.155294-124.626824-48.790588-192.331294-38.851765-41.682824-100.592941-62.825412-183.476706-62.825412z" fill="#3B6CFF" p-id="3242"></path><path d="M541.876706 887.446588H473.630118v-199.077647c0-21.985882 12.227765-39.815529 27.286588-39.815529h13.673412c15.058824 0 27.286588 17.829647 27.286588 39.755294v199.137882z" fill="#3B6CFF" p-id="3243"></path></svg>