<?xml version="1.0" standalone="no"?><!DOCTYPE svg PUBLIC "-//W3C//DTD SVG 1.1//EN" "http://www.w3.org/Graphics/SVG/1.1/DTD/svg11.dtd"><svg t="1558674434682" class="icon" style="" viewBox="0 0 1024 1024" version="1.1" xmlns="http://www.w3.org/2000/svg" p-id="3298" xmlns:xlink="http://www.w3.org/1999/xlink" width="32" height="32"><defs><style type="text/css"></style></defs><path d="M0 0m320 0l384 0q320 0 320 320l0 384q0 320-320 320l-384 0q-320 0-320-320l0-384q0-320 320-320Z" fill="#05CC7F" opacity=".4" p-id="3299"></path><path d="M720 683.424h-416c-12.736 0-24.96-6.144-33.92-17.056A65.152 65.152 0 0 1 256 625.152V314.24C256 282.08 277.504 256 304 256h416c26.496 0 48 26.08 48 58.272v310.88c0 32.192-21.504 58.272-48 58.272zM304 294.848c-8.832 0-16 8.704-16 19.424v310.88c0 10.72 7.168 19.424 16 19.424h416c8.832 0 16-8.704 16-19.424V314.24c0-10.72-7.168-19.424-16-19.424h-416zM688 800h-352c-8.832 0-16-8.704-16-19.424 0-10.72 7.168-19.424 16-19.424h352c8.832 0 16 8.704 16 19.424 0 10.72-7.168 19.424-16 19.424z" fill="#3B6CFF" p-id="3300"></path><path d="M396.832 576a11.04 11.04 0 0 1-8.96-4.8 17.376 17.376 0 0 1-3.872-11.2c0-4.256 1.408-8.32 3.872-11.2l51.2-64.064a11.04 11.04 0 0 1 8.96-4.8h71.488l98.848-123.296c4.928-6.176 12.96-6.176 17.92 0a18.784 18.784 0 0 1 0 22.4l-102.432 128.096a11.04 11.04 0 0 1-8.96 4.8H453.44l-47.648 59.264a11.04 11.04 0 0 1-8.96 4.8z" fill="#00D8A0" p-id="3301"></path></svg>